%TF.GenerationSoftware,KiCad,Pcbnew,8.0.5*%
%TF.CreationDate,2024-09-27T23:05:58+12:00*%
%TF.ProjectId,LFR PCB,4c465220-5043-4422-9e6b-696361645f70,rev?*%
%TF.SameCoordinates,Original*%
%TF.FileFunction,Legend,Top*%
%TF.FilePolarity,Positive*%
%FSLAX46Y46*%
G04 Gerber Fmt 4.6, Leading zero omitted, Abs format (unit mm)*
G04 Created by KiCad (PCBNEW 8.0.5) date 2024-09-27 23:05:58*
%MOMM*%
%LPD*%
G01*
G04 APERTURE LIST*
%ADD10C,0.100000*%
%ADD11C,0.150000*%
%ADD12C,0.120000*%
G04 APERTURE END LIST*
D10*
X241500000Y-67250000D02*
X241750000Y-67000000D01*
X241750000Y-66250000D02*
X241250000Y-66000000D01*
X240000000Y-67500000D02*
X240500000Y-68000000D01*
X241250000Y-66000000D02*
X240750000Y-66000000D01*
X240500000Y-67250000D02*
X240750000Y-67500000D01*
X240750000Y-66750000D02*
X240750000Y-66500000D01*
X240250000Y-66250000D02*
X240000000Y-67000000D01*
X242000000Y-66500000D02*
X241750000Y-66250000D01*
X240250000Y-67000000D02*
X240500000Y-67250000D01*
X240000000Y-67000000D02*
X240000000Y-67500000D01*
X240750000Y-67500000D02*
X241000000Y-67500000D01*
X241250000Y-67500000D02*
X241500000Y-67250000D01*
X240750000Y-66000000D02*
X240250000Y-66250000D01*
X241750000Y-67500000D02*
X242000000Y-67000000D01*
X242000000Y-67000000D02*
X242000000Y-66500000D01*
X241250000Y-66750000D02*
X241250000Y-66500000D01*
X240500000Y-68000000D02*
X241250000Y-68000000D01*
X241000000Y-67500000D02*
X241250000Y-67500000D01*
X241250000Y-68000000D02*
X241750000Y-67500000D01*
D11*
X226369819Y-82537030D02*
X227369819Y-82346554D01*
X227369819Y-82346554D02*
X226655533Y-82194173D01*
X226655533Y-82194173D02*
X227369819Y-82041792D01*
X227369819Y-82041792D02*
X226369819Y-81851316D01*
X227322200Y-81241791D02*
X227369819Y-81317982D01*
X227369819Y-81317982D02*
X227369819Y-81470363D01*
X227369819Y-81470363D02*
X227322200Y-81546553D01*
X227322200Y-81546553D02*
X227226961Y-81584649D01*
X227226961Y-81584649D02*
X226846009Y-81584649D01*
X226846009Y-81584649D02*
X226750771Y-81546553D01*
X226750771Y-81546553D02*
X226703152Y-81470363D01*
X226703152Y-81470363D02*
X226703152Y-81317982D01*
X226703152Y-81317982D02*
X226750771Y-81241791D01*
X226750771Y-81241791D02*
X226846009Y-81203696D01*
X226846009Y-81203696D02*
X226941247Y-81203696D01*
X226941247Y-81203696D02*
X227036485Y-81584649D01*
X227369819Y-80517982D02*
X226369819Y-80517982D01*
X227322200Y-80517982D02*
X227369819Y-80594173D01*
X227369819Y-80594173D02*
X227369819Y-80746554D01*
X227369819Y-80746554D02*
X227322200Y-80822744D01*
X227322200Y-80822744D02*
X227274580Y-80860839D01*
X227274580Y-80860839D02*
X227179342Y-80898935D01*
X227179342Y-80898935D02*
X226893628Y-80898935D01*
X226893628Y-80898935D02*
X226798390Y-80860839D01*
X226798390Y-80860839D02*
X226750771Y-80822744D01*
X226750771Y-80822744D02*
X226703152Y-80746554D01*
X226703152Y-80746554D02*
X226703152Y-80594173D01*
X226703152Y-80594173D02*
X226750771Y-80517982D01*
X226417438Y-79108458D02*
X226369819Y-79184648D01*
X226369819Y-79184648D02*
X226369819Y-79298934D01*
X226369819Y-79298934D02*
X226417438Y-79413220D01*
X226417438Y-79413220D02*
X226512676Y-79489410D01*
X226512676Y-79489410D02*
X226607914Y-79527505D01*
X226607914Y-79527505D02*
X226798390Y-79565601D01*
X226798390Y-79565601D02*
X226941247Y-79565601D01*
X226941247Y-79565601D02*
X227131723Y-79527505D01*
X227131723Y-79527505D02*
X227226961Y-79489410D01*
X227226961Y-79489410D02*
X227322200Y-79413220D01*
X227322200Y-79413220D02*
X227369819Y-79298934D01*
X227369819Y-79298934D02*
X227369819Y-79222743D01*
X227369819Y-79222743D02*
X227322200Y-79108458D01*
X227322200Y-79108458D02*
X227274580Y-79070362D01*
X227274580Y-79070362D02*
X226941247Y-79070362D01*
X226941247Y-79070362D02*
X226941247Y-79222743D01*
X227369819Y-78727505D02*
X226703152Y-78727505D01*
X226893628Y-78727505D02*
X226798390Y-78689410D01*
X226798390Y-78689410D02*
X226750771Y-78651315D01*
X226750771Y-78651315D02*
X226703152Y-78575124D01*
X226703152Y-78575124D02*
X226703152Y-78498934D01*
X227084104Y-78270363D02*
X227084104Y-77889410D01*
X227369819Y-78346553D02*
X226369819Y-78079886D01*
X226369819Y-78079886D02*
X227369819Y-77813220D01*
X227369819Y-76937029D02*
X226369819Y-76937029D01*
X226750771Y-76937029D02*
X226703152Y-76860839D01*
X226703152Y-76860839D02*
X226703152Y-76708458D01*
X226703152Y-76708458D02*
X226750771Y-76632267D01*
X226750771Y-76632267D02*
X226798390Y-76594172D01*
X226798390Y-76594172D02*
X226893628Y-76556077D01*
X226893628Y-76556077D02*
X227179342Y-76556077D01*
X227179342Y-76556077D02*
X227274580Y-76594172D01*
X227274580Y-76594172D02*
X227322200Y-76632267D01*
X227322200Y-76632267D02*
X227369819Y-76708458D01*
X227369819Y-76708458D02*
X227369819Y-76860839D01*
X227369819Y-76860839D02*
X227322200Y-76937029D01*
X226703152Y-76327505D02*
X226703152Y-76022743D01*
X226369819Y-76213219D02*
X227226961Y-76213219D01*
X227226961Y-76213219D02*
X227322200Y-76175124D01*
X227322200Y-76175124D02*
X227369819Y-76098934D01*
X227369819Y-76098934D02*
X227369819Y-76022743D01*
X227369819Y-75641791D02*
X227322200Y-75717981D01*
X227322200Y-75717981D02*
X227274580Y-75756076D01*
X227274580Y-75756076D02*
X227179342Y-75794172D01*
X227179342Y-75794172D02*
X226893628Y-75794172D01*
X226893628Y-75794172D02*
X226798390Y-75756076D01*
X226798390Y-75756076D02*
X226750771Y-75717981D01*
X226750771Y-75717981D02*
X226703152Y-75641791D01*
X226703152Y-75641791D02*
X226703152Y-75527505D01*
X226703152Y-75527505D02*
X226750771Y-75451314D01*
X226750771Y-75451314D02*
X226798390Y-75413219D01*
X226798390Y-75413219D02*
X226893628Y-75375124D01*
X226893628Y-75375124D02*
X227179342Y-75375124D01*
X227179342Y-75375124D02*
X227274580Y-75413219D01*
X227274580Y-75413219D02*
X227322200Y-75451314D01*
X227322200Y-75451314D02*
X227369819Y-75527505D01*
X227369819Y-75527505D02*
X227369819Y-75641791D01*
X226703152Y-74689409D02*
X227369819Y-74689409D01*
X226322200Y-74879885D02*
X227036485Y-75070362D01*
X227036485Y-75070362D02*
X227036485Y-74575123D01*
X226369819Y-73889409D02*
X226369819Y-74270361D01*
X226369819Y-74270361D02*
X226846009Y-74308457D01*
X226846009Y-74308457D02*
X226798390Y-74270361D01*
X226798390Y-74270361D02*
X226750771Y-74194171D01*
X226750771Y-74194171D02*
X226750771Y-74003695D01*
X226750771Y-74003695D02*
X226798390Y-73927504D01*
X226798390Y-73927504D02*
X226846009Y-73889409D01*
X226846009Y-73889409D02*
X226941247Y-73851314D01*
X226941247Y-73851314D02*
X227179342Y-73851314D01*
X227179342Y-73851314D02*
X227274580Y-73889409D01*
X227274580Y-73889409D02*
X227322200Y-73927504D01*
X227322200Y-73927504D02*
X227369819Y-74003695D01*
X227369819Y-74003695D02*
X227369819Y-74194171D01*
X227369819Y-74194171D02*
X227322200Y-74270361D01*
X227322200Y-74270361D02*
X227274580Y-74308457D01*
X227369819Y-72898932D02*
X226703152Y-72898932D01*
X226798390Y-72898932D02*
X226750771Y-72860837D01*
X226750771Y-72860837D02*
X226703152Y-72784647D01*
X226703152Y-72784647D02*
X226703152Y-72670361D01*
X226703152Y-72670361D02*
X226750771Y-72594170D01*
X226750771Y-72594170D02*
X226846009Y-72556075D01*
X226846009Y-72556075D02*
X227369819Y-72556075D01*
X226846009Y-72556075D02*
X226750771Y-72517980D01*
X226750771Y-72517980D02*
X226703152Y-72441789D01*
X226703152Y-72441789D02*
X226703152Y-72327504D01*
X226703152Y-72327504D02*
X226750771Y-72251313D01*
X226750771Y-72251313D02*
X226846009Y-72213218D01*
X226846009Y-72213218D02*
X227369819Y-72213218D01*
X226703152Y-71908456D02*
X227369819Y-71756075D01*
X227369819Y-71756075D02*
X226893628Y-71603694D01*
X226893628Y-71603694D02*
X227369819Y-71451313D01*
X227369819Y-71451313D02*
X226703152Y-71298932D01*
X227369819Y-70651313D02*
X226846009Y-70651313D01*
X226846009Y-70651313D02*
X226750771Y-70689408D01*
X226750771Y-70689408D02*
X226703152Y-70765599D01*
X226703152Y-70765599D02*
X226703152Y-70917980D01*
X226703152Y-70917980D02*
X226750771Y-70994170D01*
X227322200Y-70651313D02*
X227369819Y-70727504D01*
X227369819Y-70727504D02*
X227369819Y-70917980D01*
X227369819Y-70917980D02*
X227322200Y-70994170D01*
X227322200Y-70994170D02*
X227226961Y-71032266D01*
X227226961Y-71032266D02*
X227131723Y-71032266D01*
X227131723Y-71032266D02*
X227036485Y-70994170D01*
X227036485Y-70994170D02*
X226988866Y-70917980D01*
X226988866Y-70917980D02*
X226988866Y-70727504D01*
X226988866Y-70727504D02*
X226941247Y-70651313D01*
X226465057Y-70308456D02*
X226417438Y-70270360D01*
X226417438Y-70270360D02*
X226369819Y-70194170D01*
X226369819Y-70194170D02*
X226369819Y-70003694D01*
X226369819Y-70003694D02*
X226417438Y-69927503D01*
X226417438Y-69927503D02*
X226465057Y-69889408D01*
X226465057Y-69889408D02*
X226560295Y-69851313D01*
X226560295Y-69851313D02*
X226655533Y-69851313D01*
X226655533Y-69851313D02*
X226798390Y-69889408D01*
X226798390Y-69889408D02*
X227369819Y-70346551D01*
X227369819Y-70346551D02*
X227369819Y-69851313D01*
X227369819Y-69089408D02*
X227369819Y-69546551D01*
X227369819Y-69317979D02*
X226369819Y-69317979D01*
X226369819Y-69317979D02*
X226512676Y-69394170D01*
X226512676Y-69394170D02*
X226607914Y-69470360D01*
X226607914Y-69470360D02*
X226655533Y-69546551D01*
X227369819Y-68327503D02*
X227369819Y-68784646D01*
X227369819Y-68556074D02*
X226369819Y-68556074D01*
X226369819Y-68556074D02*
X226512676Y-68632265D01*
X226512676Y-68632265D02*
X226607914Y-68708455D01*
X226607914Y-68708455D02*
X226655533Y-68784646D01*
X232488095Y-83454819D02*
X233059523Y-83454819D01*
X232773809Y-84454819D02*
X232773809Y-83454819D01*
X233392857Y-84454819D02*
X233392857Y-83454819D01*
X233392857Y-83454819D02*
X233773809Y-83454819D01*
X233773809Y-83454819D02*
X233869047Y-83502438D01*
X233869047Y-83502438D02*
X233916666Y-83550057D01*
X233916666Y-83550057D02*
X233964285Y-83645295D01*
X233964285Y-83645295D02*
X233964285Y-83788152D01*
X233964285Y-83788152D02*
X233916666Y-83883390D01*
X233916666Y-83883390D02*
X233869047Y-83931009D01*
X233869047Y-83931009D02*
X233773809Y-83978628D01*
X233773809Y-83978628D02*
X233392857Y-83978628D01*
X234345238Y-83550057D02*
X234392857Y-83502438D01*
X234392857Y-83502438D02*
X234488095Y-83454819D01*
X234488095Y-83454819D02*
X234726190Y-83454819D01*
X234726190Y-83454819D02*
X234821428Y-83502438D01*
X234821428Y-83502438D02*
X234869047Y-83550057D01*
X234869047Y-83550057D02*
X234916666Y-83645295D01*
X234916666Y-83645295D02*
X234916666Y-83740533D01*
X234916666Y-83740533D02*
X234869047Y-83883390D01*
X234869047Y-83883390D02*
X234297619Y-84454819D01*
X234297619Y-84454819D02*
X234916666Y-84454819D01*
X244333333Y-84609580D02*
X244285714Y-84657200D01*
X244285714Y-84657200D02*
X244142857Y-84704819D01*
X244142857Y-84704819D02*
X244047619Y-84704819D01*
X244047619Y-84704819D02*
X243904762Y-84657200D01*
X243904762Y-84657200D02*
X243809524Y-84561961D01*
X243809524Y-84561961D02*
X243761905Y-84466723D01*
X243761905Y-84466723D02*
X243714286Y-84276247D01*
X243714286Y-84276247D02*
X243714286Y-84133390D01*
X243714286Y-84133390D02*
X243761905Y-83942914D01*
X243761905Y-83942914D02*
X243809524Y-83847676D01*
X243809524Y-83847676D02*
X243904762Y-83752438D01*
X243904762Y-83752438D02*
X244047619Y-83704819D01*
X244047619Y-83704819D02*
X244142857Y-83704819D01*
X244142857Y-83704819D02*
X244285714Y-83752438D01*
X244285714Y-83752438D02*
X244333333Y-83800057D01*
X244714286Y-83800057D02*
X244761905Y-83752438D01*
X244761905Y-83752438D02*
X244857143Y-83704819D01*
X244857143Y-83704819D02*
X245095238Y-83704819D01*
X245095238Y-83704819D02*
X245190476Y-83752438D01*
X245190476Y-83752438D02*
X245238095Y-83800057D01*
X245238095Y-83800057D02*
X245285714Y-83895295D01*
X245285714Y-83895295D02*
X245285714Y-83990533D01*
X245285714Y-83990533D02*
X245238095Y-84133390D01*
X245238095Y-84133390D02*
X244666667Y-84704819D01*
X244666667Y-84704819D02*
X245285714Y-84704819D01*
X254083333Y-68204819D02*
X253750000Y-67728628D01*
X253511905Y-68204819D02*
X253511905Y-67204819D01*
X253511905Y-67204819D02*
X253892857Y-67204819D01*
X253892857Y-67204819D02*
X253988095Y-67252438D01*
X253988095Y-67252438D02*
X254035714Y-67300057D01*
X254035714Y-67300057D02*
X254083333Y-67395295D01*
X254083333Y-67395295D02*
X254083333Y-67538152D01*
X254083333Y-67538152D02*
X254035714Y-67633390D01*
X254035714Y-67633390D02*
X253988095Y-67681009D01*
X253988095Y-67681009D02*
X253892857Y-67728628D01*
X253892857Y-67728628D02*
X253511905Y-67728628D01*
X255035714Y-68204819D02*
X254464286Y-68204819D01*
X254750000Y-68204819D02*
X254750000Y-67204819D01*
X254750000Y-67204819D02*
X254654762Y-67347676D01*
X254654762Y-67347676D02*
X254559524Y-67442914D01*
X254559524Y-67442914D02*
X254464286Y-67490533D01*
X234083333Y-74954819D02*
X233750000Y-74478628D01*
X233511905Y-74954819D02*
X233511905Y-73954819D01*
X233511905Y-73954819D02*
X233892857Y-73954819D01*
X233892857Y-73954819D02*
X233988095Y-74002438D01*
X233988095Y-74002438D02*
X234035714Y-74050057D01*
X234035714Y-74050057D02*
X234083333Y-74145295D01*
X234083333Y-74145295D02*
X234083333Y-74288152D01*
X234083333Y-74288152D02*
X234035714Y-74383390D01*
X234035714Y-74383390D02*
X233988095Y-74431009D01*
X233988095Y-74431009D02*
X233892857Y-74478628D01*
X233892857Y-74478628D02*
X233511905Y-74478628D01*
X234464286Y-74050057D02*
X234511905Y-74002438D01*
X234511905Y-74002438D02*
X234607143Y-73954819D01*
X234607143Y-73954819D02*
X234845238Y-73954819D01*
X234845238Y-73954819D02*
X234940476Y-74002438D01*
X234940476Y-74002438D02*
X234988095Y-74050057D01*
X234988095Y-74050057D02*
X235035714Y-74145295D01*
X235035714Y-74145295D02*
X235035714Y-74240533D01*
X235035714Y-74240533D02*
X234988095Y-74383390D01*
X234988095Y-74383390D02*
X234416667Y-74954819D01*
X234416667Y-74954819D02*
X235035714Y-74954819D01*
X247833333Y-84609580D02*
X247785714Y-84657200D01*
X247785714Y-84657200D02*
X247642857Y-84704819D01*
X247642857Y-84704819D02*
X247547619Y-84704819D01*
X247547619Y-84704819D02*
X247404762Y-84657200D01*
X247404762Y-84657200D02*
X247309524Y-84561961D01*
X247309524Y-84561961D02*
X247261905Y-84466723D01*
X247261905Y-84466723D02*
X247214286Y-84276247D01*
X247214286Y-84276247D02*
X247214286Y-84133390D01*
X247214286Y-84133390D02*
X247261905Y-83942914D01*
X247261905Y-83942914D02*
X247309524Y-83847676D01*
X247309524Y-83847676D02*
X247404762Y-83752438D01*
X247404762Y-83752438D02*
X247547619Y-83704819D01*
X247547619Y-83704819D02*
X247642857Y-83704819D01*
X247642857Y-83704819D02*
X247785714Y-83752438D01*
X247785714Y-83752438D02*
X247833333Y-83800057D01*
X248785714Y-84704819D02*
X248214286Y-84704819D01*
X248500000Y-84704819D02*
X248500000Y-83704819D01*
X248500000Y-83704819D02*
X248404762Y-83847676D01*
X248404762Y-83847676D02*
X248309524Y-83942914D01*
X248309524Y-83942914D02*
X248214286Y-83990533D01*
X240666666Y-73954819D02*
X240666666Y-74669104D01*
X240666666Y-74669104D02*
X240619047Y-74811961D01*
X240619047Y-74811961D02*
X240523809Y-74907200D01*
X240523809Y-74907200D02*
X240380952Y-74954819D01*
X240380952Y-74954819D02*
X240285714Y-74954819D01*
X241666666Y-74954819D02*
X241095238Y-74954819D01*
X241380952Y-74954819D02*
X241380952Y-73954819D01*
X241380952Y-73954819D02*
X241285714Y-74097676D01*
X241285714Y-74097676D02*
X241190476Y-74192914D01*
X241190476Y-74192914D02*
X241095238Y-74240533D01*
X239238095Y-69056819D02*
X239809523Y-69056819D01*
X239523809Y-70056819D02*
X239523809Y-69056819D01*
X240142857Y-70056819D02*
X240142857Y-69056819D01*
X240142857Y-69056819D02*
X240523809Y-69056819D01*
X240523809Y-69056819D02*
X240619047Y-69104438D01*
X240619047Y-69104438D02*
X240666666Y-69152057D01*
X240666666Y-69152057D02*
X240714285Y-69247295D01*
X240714285Y-69247295D02*
X240714285Y-69390152D01*
X240714285Y-69390152D02*
X240666666Y-69485390D01*
X240666666Y-69485390D02*
X240619047Y-69533009D01*
X240619047Y-69533009D02*
X240523809Y-69580628D01*
X240523809Y-69580628D02*
X240142857Y-69580628D01*
X241047619Y-69056819D02*
X241666666Y-69056819D01*
X241666666Y-69056819D02*
X241333333Y-69437771D01*
X241333333Y-69437771D02*
X241476190Y-69437771D01*
X241476190Y-69437771D02*
X241571428Y-69485390D01*
X241571428Y-69485390D02*
X241619047Y-69533009D01*
X241619047Y-69533009D02*
X241666666Y-69628247D01*
X241666666Y-69628247D02*
X241666666Y-69866342D01*
X241666666Y-69866342D02*
X241619047Y-69961580D01*
X241619047Y-69961580D02*
X241571428Y-70009200D01*
X241571428Y-70009200D02*
X241476190Y-70056819D01*
X241476190Y-70056819D02*
X241190476Y-70056819D01*
X241190476Y-70056819D02*
X241095238Y-70009200D01*
X241095238Y-70009200D02*
X241047619Y-69961580D01*
X250988095Y-83204819D02*
X251559523Y-83204819D01*
X251273809Y-84204819D02*
X251273809Y-83204819D01*
X251892857Y-84204819D02*
X251892857Y-83204819D01*
X251892857Y-83204819D02*
X252273809Y-83204819D01*
X252273809Y-83204819D02*
X252369047Y-83252438D01*
X252369047Y-83252438D02*
X252416666Y-83300057D01*
X252416666Y-83300057D02*
X252464285Y-83395295D01*
X252464285Y-83395295D02*
X252464285Y-83538152D01*
X252464285Y-83538152D02*
X252416666Y-83633390D01*
X252416666Y-83633390D02*
X252369047Y-83681009D01*
X252369047Y-83681009D02*
X252273809Y-83728628D01*
X252273809Y-83728628D02*
X251892857Y-83728628D01*
X253416666Y-84204819D02*
X252845238Y-84204819D01*
X253130952Y-84204819D02*
X253130952Y-83204819D01*
X253130952Y-83204819D02*
X253035714Y-83347676D01*
X253035714Y-83347676D02*
X252940476Y-83442914D01*
X252940476Y-83442914D02*
X252845238Y-83490533D01*
X254488095Y-74454819D02*
X254488095Y-75264342D01*
X254488095Y-75264342D02*
X254535714Y-75359580D01*
X254535714Y-75359580D02*
X254583333Y-75407200D01*
X254583333Y-75407200D02*
X254678571Y-75454819D01*
X254678571Y-75454819D02*
X254869047Y-75454819D01*
X254869047Y-75454819D02*
X254964285Y-75407200D01*
X254964285Y-75407200D02*
X255011904Y-75359580D01*
X255011904Y-75359580D02*
X255059523Y-75264342D01*
X255059523Y-75264342D02*
X255059523Y-74454819D01*
X255964285Y-74788152D02*
X255964285Y-75454819D01*
X255726190Y-74407200D02*
X255488095Y-75121485D01*
X255488095Y-75121485D02*
X256107142Y-75121485D01*
D12*
%TO.C,TP2*%
X235300000Y-80300000D02*
X238700000Y-80300000D01*
X235300000Y-83700000D02*
X235300000Y-80300000D01*
X238700000Y-80300000D02*
X238700000Y-83700000D01*
X238700000Y-83700000D02*
X235300000Y-83700000D01*
%TO.C,C2*%
X243080000Y-79230000D02*
X243705000Y-79230000D01*
X243080000Y-83270000D02*
X243080000Y-79230000D01*
X243080000Y-83270000D02*
X243705000Y-83270000D01*
X245295000Y-79230000D02*
X245920000Y-79230000D01*
X245295000Y-83270000D02*
X245920000Y-83270000D01*
X245920000Y-83270000D02*
X245920000Y-79230000D01*
%TO.C,R1*%
X245040000Y-70000000D02*
X245810000Y-70000000D01*
X245810000Y-68630000D02*
X245810000Y-71370000D01*
X245810000Y-71370000D02*
X252350000Y-71370000D01*
X252350000Y-68630000D02*
X245810000Y-68630000D01*
X252350000Y-71370000D02*
X252350000Y-68630000D01*
X253120000Y-70000000D02*
X252350000Y-70000000D01*
%TO.C,R2*%
X235630000Y-69650000D02*
X235630000Y-76190000D01*
X235630000Y-76190000D02*
X238370000Y-76190000D01*
X237000000Y-68880000D02*
X237000000Y-69650000D01*
X237000000Y-76960000D02*
X237000000Y-76190000D01*
X238370000Y-69650000D02*
X235630000Y-69650000D01*
X238370000Y-76190000D02*
X238370000Y-69650000D01*
%TO.C,C1*%
X246580000Y-79230000D02*
X247205000Y-79230000D01*
X246580000Y-83270000D02*
X246580000Y-79230000D01*
X246580000Y-83270000D02*
X247205000Y-83270000D01*
X248795000Y-79230000D02*
X249420000Y-79230000D01*
X248795000Y-83270000D02*
X249420000Y-83270000D01*
X249420000Y-83270000D02*
X249420000Y-79230000D01*
%TO.C,J1*%
X239670000Y-80730000D02*
X239670000Y-75590000D01*
X239670000Y-83330000D02*
X239670000Y-82000000D01*
X241000000Y-83330000D02*
X239670000Y-83330000D01*
X242330000Y-75590000D02*
X239670000Y-75590000D01*
X242330000Y-80730000D02*
X239670000Y-80730000D01*
X242330000Y-80730000D02*
X242330000Y-75590000D01*
%TO.C,TP3*%
X238800000Y-70300000D02*
X242200000Y-70300000D01*
X238800000Y-73700000D02*
X238800000Y-70300000D01*
X242200000Y-70300000D02*
X242200000Y-73700000D01*
X242200000Y-73700000D02*
X238800000Y-73700000D01*
%TO.C,TP1*%
X250300000Y-78800000D02*
X253700000Y-78800000D01*
X250300000Y-82200000D02*
X250300000Y-78800000D01*
X253700000Y-78800000D02*
X253700000Y-82200000D01*
X253700000Y-82200000D02*
X250300000Y-82200000D01*
D10*
%TO.C,U4*%
X243340000Y-72020000D02*
X243340000Y-74020000D01*
X243340000Y-72020000D02*
X245340000Y-72020000D01*
D12*
X243540000Y-72220000D02*
X243540000Y-78240000D01*
X243540000Y-72220000D02*
X247750000Y-72220000D01*
X243540000Y-78240000D02*
X247750000Y-78240000D01*
X249750000Y-72220000D02*
X252245000Y-72220000D01*
X249750000Y-78240000D02*
X252240000Y-78240000D01*
X253960000Y-73934500D02*
X252245000Y-72220000D01*
X253960000Y-76520000D02*
X252240000Y-78240000D01*
X253960000Y-76520000D02*
X253960000Y-73934500D01*
%TD*%
M02*
