%TF.GenerationSoftware,KiCad,Pcbnew,8.0.5*%
%TF.CreationDate,2024-09-27T23:03:38+12:00*%
%TF.ProjectId,LFR Blake Design 1,4c465220-426c-4616-9b65-204465736967,3*%
%TF.SameCoordinates,Original*%
%TF.FileFunction,Legend,Top*%
%TF.FilePolarity,Positive*%
%FSLAX46Y46*%
G04 Gerber Fmt 4.6, Leading zero omitted, Abs format (unit mm)*
G04 Created by KiCad (PCBNEW 8.0.5) date 2024-09-27 23:03:38*
%MOMM*%
%LPD*%
G01*
G04 APERTURE LIST*
%ADD10C,0.100000*%
%ADD11C,0.150000*%
%ADD12C,0.254000*%
%ADD13C,0.120000*%
%ADD14C,0.152400*%
%ADD15C,0.200000*%
%ADD16C,0.508000*%
G04 APERTURE END LIST*
D10*
X193872419Y-110148496D02*
X194062895Y-110243734D01*
X194348609Y-109386592D02*
X194396228Y-109243735D01*
X194396228Y-109243735D02*
X194443847Y-109196116D01*
X194443847Y-109196116D02*
X194539085Y-109148497D01*
X194539085Y-109148497D02*
X194681942Y-109148497D01*
X194681942Y-109148497D02*
X194777180Y-109196116D01*
X194777180Y-109196116D02*
X194824800Y-109243735D01*
X194824800Y-109243735D02*
X194872419Y-109338973D01*
X194872419Y-109338973D02*
X194872419Y-109719925D01*
X194872419Y-109719925D02*
X193872419Y-109719925D01*
X193872419Y-109719925D02*
X193872419Y-109386592D01*
X193872419Y-109386592D02*
X193920038Y-109291354D01*
X193920038Y-109291354D02*
X193967657Y-109243735D01*
X193967657Y-109243735D02*
X194062895Y-109196116D01*
X194062895Y-109196116D02*
X194158133Y-109196116D01*
X194158133Y-109196116D02*
X194253371Y-109243735D01*
X194253371Y-109243735D02*
X194300990Y-109291354D01*
X194300990Y-109291354D02*
X194348609Y-109386592D01*
X194348609Y-109386592D02*
X194348609Y-109719925D01*
X194872419Y-108719925D02*
X194205752Y-108719925D01*
X193872419Y-108719925D02*
X193920038Y-108767544D01*
X193920038Y-108767544D02*
X193967657Y-108719925D01*
X193967657Y-108719925D02*
X193920038Y-108672306D01*
X193920038Y-108672306D02*
X193872419Y-108719925D01*
X193872419Y-108719925D02*
X193967657Y-108719925D01*
X194205752Y-107815164D02*
X195015276Y-107815164D01*
X195015276Y-107815164D02*
X195110514Y-107862783D01*
X195110514Y-107862783D02*
X195158133Y-107910402D01*
X195158133Y-107910402D02*
X195205752Y-108005640D01*
X195205752Y-108005640D02*
X195205752Y-108148497D01*
X195205752Y-108148497D02*
X195158133Y-108243735D01*
X194824800Y-107815164D02*
X194872419Y-107910402D01*
X194872419Y-107910402D02*
X194872419Y-108100878D01*
X194872419Y-108100878D02*
X194824800Y-108196116D01*
X194824800Y-108196116D02*
X194777180Y-108243735D01*
X194777180Y-108243735D02*
X194681942Y-108291354D01*
X194681942Y-108291354D02*
X194396228Y-108291354D01*
X194396228Y-108291354D02*
X194300990Y-108243735D01*
X194300990Y-108243735D02*
X194253371Y-108196116D01*
X194253371Y-108196116D02*
X194205752Y-108100878D01*
X194205752Y-108100878D02*
X194205752Y-107910402D01*
X194205752Y-107910402D02*
X194253371Y-107815164D01*
X194348609Y-106243735D02*
X194396228Y-106100878D01*
X194396228Y-106100878D02*
X194443847Y-106053259D01*
X194443847Y-106053259D02*
X194539085Y-106005640D01*
X194539085Y-106005640D02*
X194681942Y-106005640D01*
X194681942Y-106005640D02*
X194777180Y-106053259D01*
X194777180Y-106053259D02*
X194824800Y-106100878D01*
X194824800Y-106100878D02*
X194872419Y-106196116D01*
X194872419Y-106196116D02*
X194872419Y-106577068D01*
X194872419Y-106577068D02*
X193872419Y-106577068D01*
X193872419Y-106577068D02*
X193872419Y-106243735D01*
X193872419Y-106243735D02*
X193920038Y-106148497D01*
X193920038Y-106148497D02*
X193967657Y-106100878D01*
X193967657Y-106100878D02*
X194062895Y-106053259D01*
X194062895Y-106053259D02*
X194158133Y-106053259D01*
X194158133Y-106053259D02*
X194253371Y-106100878D01*
X194253371Y-106100878D02*
X194300990Y-106148497D01*
X194300990Y-106148497D02*
X194348609Y-106243735D01*
X194348609Y-106243735D02*
X194348609Y-106577068D01*
X194824800Y-105196116D02*
X194872419Y-105291354D01*
X194872419Y-105291354D02*
X194872419Y-105481830D01*
X194872419Y-105481830D02*
X194824800Y-105577068D01*
X194824800Y-105577068D02*
X194729561Y-105624687D01*
X194729561Y-105624687D02*
X194348609Y-105624687D01*
X194348609Y-105624687D02*
X194253371Y-105577068D01*
X194253371Y-105577068D02*
X194205752Y-105481830D01*
X194205752Y-105481830D02*
X194205752Y-105291354D01*
X194205752Y-105291354D02*
X194253371Y-105196116D01*
X194253371Y-105196116D02*
X194348609Y-105148497D01*
X194348609Y-105148497D02*
X194443847Y-105148497D01*
X194443847Y-105148497D02*
X194539085Y-105624687D01*
X194872419Y-104719925D02*
X194205752Y-104719925D01*
X194396228Y-104719925D02*
X194300990Y-104672306D01*
X194300990Y-104672306D02*
X194253371Y-104624687D01*
X194253371Y-104624687D02*
X194205752Y-104529449D01*
X194205752Y-104529449D02*
X194205752Y-104434211D01*
X194205752Y-104243734D02*
X194205752Y-103862782D01*
X193872419Y-104100877D02*
X194729561Y-104100877D01*
X194729561Y-104100877D02*
X194824800Y-104053258D01*
X194824800Y-104053258D02*
X194872419Y-103958020D01*
X194872419Y-103958020D02*
X194872419Y-103862782D01*
X194872419Y-103529448D02*
X193872419Y-103529448D01*
X194872419Y-103100877D02*
X194348609Y-103100877D01*
X194348609Y-103100877D02*
X194253371Y-103148496D01*
X194253371Y-103148496D02*
X194205752Y-103243734D01*
X194205752Y-103243734D02*
X194205752Y-103386591D01*
X194205752Y-103386591D02*
X194253371Y-103481829D01*
X194253371Y-103481829D02*
X194300990Y-103529448D01*
X194872419Y-102196115D02*
X194348609Y-102196115D01*
X194348609Y-102196115D02*
X194253371Y-102243734D01*
X194253371Y-102243734D02*
X194205752Y-102338972D01*
X194205752Y-102338972D02*
X194205752Y-102529448D01*
X194205752Y-102529448D02*
X194253371Y-102624686D01*
X194824800Y-102196115D02*
X194872419Y-102291353D01*
X194872419Y-102291353D02*
X194872419Y-102529448D01*
X194872419Y-102529448D02*
X194824800Y-102624686D01*
X194824800Y-102624686D02*
X194729561Y-102672305D01*
X194729561Y-102672305D02*
X194634323Y-102672305D01*
X194634323Y-102672305D02*
X194539085Y-102624686D01*
X194539085Y-102624686D02*
X194491466Y-102529448D01*
X194491466Y-102529448D02*
X194491466Y-102291353D01*
X194491466Y-102291353D02*
X194443847Y-102196115D01*
X193872419Y-101672305D02*
X194062895Y-101767543D01*
X141458646Y-113072699D02*
X141696741Y-114072699D01*
X141696741Y-114072699D02*
X141887217Y-113358413D01*
X141887217Y-113358413D02*
X142077693Y-114072699D01*
X142077693Y-114072699D02*
X142315789Y-113072699D01*
X143077693Y-114025080D02*
X142982455Y-114072699D01*
X142982455Y-114072699D02*
X142791979Y-114072699D01*
X142791979Y-114072699D02*
X142696741Y-114025080D01*
X142696741Y-114025080D02*
X142649122Y-113929841D01*
X142649122Y-113929841D02*
X142649122Y-113548889D01*
X142649122Y-113548889D02*
X142696741Y-113453651D01*
X142696741Y-113453651D02*
X142791979Y-113406032D01*
X142791979Y-113406032D02*
X142982455Y-113406032D01*
X142982455Y-113406032D02*
X143077693Y-113453651D01*
X143077693Y-113453651D02*
X143125312Y-113548889D01*
X143125312Y-113548889D02*
X143125312Y-113644127D01*
X143125312Y-113644127D02*
X142649122Y-113739365D01*
X143982455Y-114072699D02*
X143982455Y-113072699D01*
X143982455Y-114025080D02*
X143887217Y-114072699D01*
X143887217Y-114072699D02*
X143696741Y-114072699D01*
X143696741Y-114072699D02*
X143601503Y-114025080D01*
X143601503Y-114025080D02*
X143553884Y-113977460D01*
X143553884Y-113977460D02*
X143506265Y-113882222D01*
X143506265Y-113882222D02*
X143506265Y-113596508D01*
X143506265Y-113596508D02*
X143553884Y-113501270D01*
X143553884Y-113501270D02*
X143601503Y-113453651D01*
X143601503Y-113453651D02*
X143696741Y-113406032D01*
X143696741Y-113406032D02*
X143887217Y-113406032D01*
X143887217Y-113406032D02*
X143982455Y-113453651D01*
X144458646Y-113406032D02*
X144458646Y-114072699D01*
X144458646Y-113501270D02*
X144506265Y-113453651D01*
X144506265Y-113453651D02*
X144601503Y-113406032D01*
X144601503Y-113406032D02*
X144744360Y-113406032D01*
X144744360Y-113406032D02*
X144839598Y-113453651D01*
X144839598Y-113453651D02*
X144887217Y-113548889D01*
X144887217Y-113548889D02*
X144887217Y-114072699D01*
X145744360Y-114025080D02*
X145649122Y-114072699D01*
X145649122Y-114072699D02*
X145458646Y-114072699D01*
X145458646Y-114072699D02*
X145363408Y-114025080D01*
X145363408Y-114025080D02*
X145315789Y-113929841D01*
X145315789Y-113929841D02*
X145315789Y-113548889D01*
X145315789Y-113548889D02*
X145363408Y-113453651D01*
X145363408Y-113453651D02*
X145458646Y-113406032D01*
X145458646Y-113406032D02*
X145649122Y-113406032D01*
X145649122Y-113406032D02*
X145744360Y-113453651D01*
X145744360Y-113453651D02*
X145791979Y-113548889D01*
X145791979Y-113548889D02*
X145791979Y-113644127D01*
X145791979Y-113644127D02*
X145315789Y-113739365D01*
X146172932Y-114025080D02*
X146268170Y-114072699D01*
X146268170Y-114072699D02*
X146458646Y-114072699D01*
X146458646Y-114072699D02*
X146553884Y-114025080D01*
X146553884Y-114025080D02*
X146601503Y-113929841D01*
X146601503Y-113929841D02*
X146601503Y-113882222D01*
X146601503Y-113882222D02*
X146553884Y-113786984D01*
X146553884Y-113786984D02*
X146458646Y-113739365D01*
X146458646Y-113739365D02*
X146315789Y-113739365D01*
X146315789Y-113739365D02*
X146220551Y-113691746D01*
X146220551Y-113691746D02*
X146172932Y-113596508D01*
X146172932Y-113596508D02*
X146172932Y-113548889D01*
X146172932Y-113548889D02*
X146220551Y-113453651D01*
X146220551Y-113453651D02*
X146315789Y-113406032D01*
X146315789Y-113406032D02*
X146458646Y-113406032D01*
X146458646Y-113406032D02*
X146553884Y-113453651D01*
X147458646Y-114072699D02*
X147458646Y-113072699D01*
X147458646Y-114025080D02*
X147363408Y-114072699D01*
X147363408Y-114072699D02*
X147172932Y-114072699D01*
X147172932Y-114072699D02*
X147077694Y-114025080D01*
X147077694Y-114025080D02*
X147030075Y-113977460D01*
X147030075Y-113977460D02*
X146982456Y-113882222D01*
X146982456Y-113882222D02*
X146982456Y-113596508D01*
X146982456Y-113596508D02*
X147030075Y-113501270D01*
X147030075Y-113501270D02*
X147077694Y-113453651D01*
X147077694Y-113453651D02*
X147172932Y-113406032D01*
X147172932Y-113406032D02*
X147363408Y-113406032D01*
X147363408Y-113406032D02*
X147458646Y-113453651D01*
X148363408Y-114072699D02*
X148363408Y-113548889D01*
X148363408Y-113548889D02*
X148315789Y-113453651D01*
X148315789Y-113453651D02*
X148220551Y-113406032D01*
X148220551Y-113406032D02*
X148030075Y-113406032D01*
X148030075Y-113406032D02*
X147934837Y-113453651D01*
X148363408Y-114025080D02*
X148268170Y-114072699D01*
X148268170Y-114072699D02*
X148030075Y-114072699D01*
X148030075Y-114072699D02*
X147934837Y-114025080D01*
X147934837Y-114025080D02*
X147887218Y-113929841D01*
X147887218Y-113929841D02*
X147887218Y-113834603D01*
X147887218Y-113834603D02*
X147934837Y-113739365D01*
X147934837Y-113739365D02*
X148030075Y-113691746D01*
X148030075Y-113691746D02*
X148268170Y-113691746D01*
X148268170Y-113691746D02*
X148363408Y-113644127D01*
X148744361Y-113406032D02*
X148982456Y-114072699D01*
X149220551Y-113406032D02*
X148982456Y-114072699D01*
X148982456Y-114072699D02*
X148887218Y-114310794D01*
X148887218Y-114310794D02*
X148839599Y-114358413D01*
X148839599Y-114358413D02*
X148744361Y-114406032D01*
X142077693Y-114730262D02*
X141982455Y-114682643D01*
X141982455Y-114682643D02*
X141839598Y-114682643D01*
X141839598Y-114682643D02*
X141696741Y-114730262D01*
X141696741Y-114730262D02*
X141601503Y-114825500D01*
X141601503Y-114825500D02*
X141553884Y-114920738D01*
X141553884Y-114920738D02*
X141506265Y-115111214D01*
X141506265Y-115111214D02*
X141506265Y-115254071D01*
X141506265Y-115254071D02*
X141553884Y-115444547D01*
X141553884Y-115444547D02*
X141601503Y-115539785D01*
X141601503Y-115539785D02*
X141696741Y-115635024D01*
X141696741Y-115635024D02*
X141839598Y-115682643D01*
X141839598Y-115682643D02*
X141934836Y-115682643D01*
X141934836Y-115682643D02*
X142077693Y-115635024D01*
X142077693Y-115635024D02*
X142125312Y-115587404D01*
X142125312Y-115587404D02*
X142125312Y-115254071D01*
X142125312Y-115254071D02*
X141934836Y-115254071D01*
X142553884Y-115682643D02*
X142553884Y-115015976D01*
X142553884Y-115206452D02*
X142601503Y-115111214D01*
X142601503Y-115111214D02*
X142649122Y-115063595D01*
X142649122Y-115063595D02*
X142744360Y-115015976D01*
X142744360Y-115015976D02*
X142839598Y-115015976D01*
X143315789Y-115682643D02*
X143220551Y-115635024D01*
X143220551Y-115635024D02*
X143172932Y-115587404D01*
X143172932Y-115587404D02*
X143125313Y-115492166D01*
X143125313Y-115492166D02*
X143125313Y-115206452D01*
X143125313Y-115206452D02*
X143172932Y-115111214D01*
X143172932Y-115111214D02*
X143220551Y-115063595D01*
X143220551Y-115063595D02*
X143315789Y-115015976D01*
X143315789Y-115015976D02*
X143458646Y-115015976D01*
X143458646Y-115015976D02*
X143553884Y-115063595D01*
X143553884Y-115063595D02*
X143601503Y-115111214D01*
X143601503Y-115111214D02*
X143649122Y-115206452D01*
X143649122Y-115206452D02*
X143649122Y-115492166D01*
X143649122Y-115492166D02*
X143601503Y-115587404D01*
X143601503Y-115587404D02*
X143553884Y-115635024D01*
X143553884Y-115635024D02*
X143458646Y-115682643D01*
X143458646Y-115682643D02*
X143315789Y-115682643D01*
X144506265Y-115015976D02*
X144506265Y-115682643D01*
X144077694Y-115015976D02*
X144077694Y-115539785D01*
X144077694Y-115539785D02*
X144125313Y-115635024D01*
X144125313Y-115635024D02*
X144220551Y-115682643D01*
X144220551Y-115682643D02*
X144363408Y-115682643D01*
X144363408Y-115682643D02*
X144458646Y-115635024D01*
X144458646Y-115635024D02*
X144506265Y-115587404D01*
X144982456Y-115015976D02*
X144982456Y-116015976D01*
X144982456Y-115063595D02*
X145077694Y-115015976D01*
X145077694Y-115015976D02*
X145268170Y-115015976D01*
X145268170Y-115015976D02*
X145363408Y-115063595D01*
X145363408Y-115063595D02*
X145411027Y-115111214D01*
X145411027Y-115111214D02*
X145458646Y-115206452D01*
X145458646Y-115206452D02*
X145458646Y-115492166D01*
X145458646Y-115492166D02*
X145411027Y-115587404D01*
X145411027Y-115587404D02*
X145363408Y-115635024D01*
X145363408Y-115635024D02*
X145268170Y-115682643D01*
X145268170Y-115682643D02*
X145077694Y-115682643D01*
X145077694Y-115682643D02*
X144982456Y-115635024D01*
X146601504Y-115396928D02*
X147077694Y-115396928D01*
X146506266Y-115682643D02*
X146839599Y-114682643D01*
X146839599Y-114682643D02*
X147172932Y-115682643D01*
X141506265Y-117006872D02*
X141982455Y-117006872D01*
X141411027Y-117292587D02*
X141744360Y-116292587D01*
X141744360Y-116292587D02*
X142077693Y-117292587D01*
X142839598Y-117292587D02*
X142839598Y-116292587D01*
X142839598Y-117244968D02*
X142744360Y-117292587D01*
X142744360Y-117292587D02*
X142553884Y-117292587D01*
X142553884Y-117292587D02*
X142458646Y-117244968D01*
X142458646Y-117244968D02*
X142411027Y-117197348D01*
X142411027Y-117197348D02*
X142363408Y-117102110D01*
X142363408Y-117102110D02*
X142363408Y-116816396D01*
X142363408Y-116816396D02*
X142411027Y-116721158D01*
X142411027Y-116721158D02*
X142458646Y-116673539D01*
X142458646Y-116673539D02*
X142553884Y-116625920D01*
X142553884Y-116625920D02*
X142744360Y-116625920D01*
X142744360Y-116625920D02*
X142839598Y-116673539D01*
X143744360Y-117292587D02*
X143744360Y-116768777D01*
X143744360Y-116768777D02*
X143696741Y-116673539D01*
X143696741Y-116673539D02*
X143601503Y-116625920D01*
X143601503Y-116625920D02*
X143411027Y-116625920D01*
X143411027Y-116625920D02*
X143315789Y-116673539D01*
X143744360Y-117244968D02*
X143649122Y-117292587D01*
X143649122Y-117292587D02*
X143411027Y-117292587D01*
X143411027Y-117292587D02*
X143315789Y-117244968D01*
X143315789Y-117244968D02*
X143268170Y-117149729D01*
X143268170Y-117149729D02*
X143268170Y-117054491D01*
X143268170Y-117054491D02*
X143315789Y-116959253D01*
X143315789Y-116959253D02*
X143411027Y-116911634D01*
X143411027Y-116911634D02*
X143649122Y-116911634D01*
X143649122Y-116911634D02*
X143744360Y-116864015D01*
X144220551Y-117292587D02*
X144220551Y-116625920D01*
X144220551Y-116721158D02*
X144268170Y-116673539D01*
X144268170Y-116673539D02*
X144363408Y-116625920D01*
X144363408Y-116625920D02*
X144506265Y-116625920D01*
X144506265Y-116625920D02*
X144601503Y-116673539D01*
X144601503Y-116673539D02*
X144649122Y-116768777D01*
X144649122Y-116768777D02*
X144649122Y-117292587D01*
X144649122Y-116768777D02*
X144696741Y-116673539D01*
X144696741Y-116673539D02*
X144791979Y-116625920D01*
X144791979Y-116625920D02*
X144934836Y-116625920D01*
X144934836Y-116625920D02*
X145030075Y-116673539D01*
X145030075Y-116673539D02*
X145077694Y-116768777D01*
X145077694Y-116768777D02*
X145077694Y-117292587D01*
X145506265Y-117244968D02*
X145601503Y-117292587D01*
X145601503Y-117292587D02*
X145791979Y-117292587D01*
X145791979Y-117292587D02*
X145887217Y-117244968D01*
X145887217Y-117244968D02*
X145934836Y-117149729D01*
X145934836Y-117149729D02*
X145934836Y-117102110D01*
X145934836Y-117102110D02*
X145887217Y-117006872D01*
X145887217Y-117006872D02*
X145791979Y-116959253D01*
X145791979Y-116959253D02*
X145649122Y-116959253D01*
X145649122Y-116959253D02*
X145553884Y-116911634D01*
X145553884Y-116911634D02*
X145506265Y-116816396D01*
X145506265Y-116816396D02*
X145506265Y-116768777D01*
X145506265Y-116768777D02*
X145553884Y-116673539D01*
X145553884Y-116673539D02*
X145649122Y-116625920D01*
X145649122Y-116625920D02*
X145791979Y-116625920D01*
X145791979Y-116625920D02*
X145887217Y-116673539D01*
X146363408Y-117197348D02*
X146411027Y-117244968D01*
X146411027Y-117244968D02*
X146363408Y-117292587D01*
X146363408Y-117292587D02*
X146315789Y-117244968D01*
X146315789Y-117244968D02*
X146363408Y-117197348D01*
X146363408Y-117197348D02*
X146363408Y-117292587D01*
X148125312Y-116340206D02*
X148030074Y-116292587D01*
X148030074Y-116292587D02*
X147887217Y-116292587D01*
X147887217Y-116292587D02*
X147744360Y-116340206D01*
X147744360Y-116340206D02*
X147649122Y-116435444D01*
X147649122Y-116435444D02*
X147601503Y-116530682D01*
X147601503Y-116530682D02*
X147553884Y-116721158D01*
X147553884Y-116721158D02*
X147553884Y-116864015D01*
X147553884Y-116864015D02*
X147601503Y-117054491D01*
X147601503Y-117054491D02*
X147649122Y-117149729D01*
X147649122Y-117149729D02*
X147744360Y-117244968D01*
X147744360Y-117244968D02*
X147887217Y-117292587D01*
X147887217Y-117292587D02*
X147982455Y-117292587D01*
X147982455Y-117292587D02*
X148125312Y-117244968D01*
X148125312Y-117244968D02*
X148172931Y-117197348D01*
X148172931Y-117197348D02*
X148172931Y-116864015D01*
X148172931Y-116864015D02*
X147982455Y-116864015D01*
X141458646Y-117902531D02*
X141696741Y-118902531D01*
X141696741Y-118902531D02*
X141887217Y-118188245D01*
X141887217Y-118188245D02*
X142077693Y-118902531D01*
X142077693Y-118902531D02*
X142315789Y-117902531D01*
X143125312Y-118902531D02*
X143125312Y-118378721D01*
X143125312Y-118378721D02*
X143077693Y-118283483D01*
X143077693Y-118283483D02*
X142982455Y-118235864D01*
X142982455Y-118235864D02*
X142791979Y-118235864D01*
X142791979Y-118235864D02*
X142696741Y-118283483D01*
X143125312Y-118854912D02*
X143030074Y-118902531D01*
X143030074Y-118902531D02*
X142791979Y-118902531D01*
X142791979Y-118902531D02*
X142696741Y-118854912D01*
X142696741Y-118854912D02*
X142649122Y-118759673D01*
X142649122Y-118759673D02*
X142649122Y-118664435D01*
X142649122Y-118664435D02*
X142696741Y-118569197D01*
X142696741Y-118569197D02*
X142791979Y-118521578D01*
X142791979Y-118521578D02*
X143030074Y-118521578D01*
X143030074Y-118521578D02*
X143125312Y-118473959D01*
X143601503Y-118235864D02*
X143601503Y-118902531D01*
X143601503Y-118331102D02*
X143649122Y-118283483D01*
X143649122Y-118283483D02*
X143744360Y-118235864D01*
X143744360Y-118235864D02*
X143887217Y-118235864D01*
X143887217Y-118235864D02*
X143982455Y-118283483D01*
X143982455Y-118283483D02*
X144030074Y-118378721D01*
X144030074Y-118378721D02*
X144030074Y-118902531D01*
X144934836Y-118235864D02*
X144934836Y-119045388D01*
X144934836Y-119045388D02*
X144887217Y-119140626D01*
X144887217Y-119140626D02*
X144839598Y-119188245D01*
X144839598Y-119188245D02*
X144744360Y-119235864D01*
X144744360Y-119235864D02*
X144601503Y-119235864D01*
X144601503Y-119235864D02*
X144506265Y-119188245D01*
X144934836Y-118854912D02*
X144839598Y-118902531D01*
X144839598Y-118902531D02*
X144649122Y-118902531D01*
X144649122Y-118902531D02*
X144553884Y-118854912D01*
X144553884Y-118854912D02*
X144506265Y-118807292D01*
X144506265Y-118807292D02*
X144458646Y-118712054D01*
X144458646Y-118712054D02*
X144458646Y-118426340D01*
X144458646Y-118426340D02*
X144506265Y-118331102D01*
X144506265Y-118331102D02*
X144553884Y-118283483D01*
X144553884Y-118283483D02*
X144649122Y-118235864D01*
X144649122Y-118235864D02*
X144839598Y-118235864D01*
X144839598Y-118235864D02*
X144934836Y-118283483D01*
X145411027Y-118807292D02*
X145458646Y-118854912D01*
X145458646Y-118854912D02*
X145411027Y-118902531D01*
X145411027Y-118902531D02*
X145363408Y-118854912D01*
X145363408Y-118854912D02*
X145411027Y-118807292D01*
X145411027Y-118807292D02*
X145411027Y-118902531D01*
X146649122Y-118902531D02*
X146649122Y-117902531D01*
X146649122Y-117902531D02*
X146982455Y-118616816D01*
X146982455Y-118616816D02*
X147315788Y-117902531D01*
X147315788Y-117902531D02*
X147315788Y-118902531D01*
X141411027Y-119512475D02*
X141982455Y-119512475D01*
X141696741Y-120512475D02*
X141696741Y-119512475D01*
X142315789Y-120512475D02*
X142315789Y-119845808D01*
X142315789Y-120036284D02*
X142363408Y-119941046D01*
X142363408Y-119941046D02*
X142411027Y-119893427D01*
X142411027Y-119893427D02*
X142506265Y-119845808D01*
X142506265Y-119845808D02*
X142601503Y-119845808D01*
X143363408Y-120512475D02*
X143363408Y-119988665D01*
X143363408Y-119988665D02*
X143315789Y-119893427D01*
X143315789Y-119893427D02*
X143220551Y-119845808D01*
X143220551Y-119845808D02*
X143030075Y-119845808D01*
X143030075Y-119845808D02*
X142934837Y-119893427D01*
X143363408Y-120464856D02*
X143268170Y-120512475D01*
X143268170Y-120512475D02*
X143030075Y-120512475D01*
X143030075Y-120512475D02*
X142934837Y-120464856D01*
X142934837Y-120464856D02*
X142887218Y-120369617D01*
X142887218Y-120369617D02*
X142887218Y-120274379D01*
X142887218Y-120274379D02*
X142934837Y-120179141D01*
X142934837Y-120179141D02*
X143030075Y-120131522D01*
X143030075Y-120131522D02*
X143268170Y-120131522D01*
X143268170Y-120131522D02*
X143363408Y-120083903D01*
X143839599Y-119845808D02*
X143839599Y-120512475D01*
X143839599Y-119941046D02*
X143887218Y-119893427D01*
X143887218Y-119893427D02*
X143982456Y-119845808D01*
X143982456Y-119845808D02*
X144125313Y-119845808D01*
X144125313Y-119845808D02*
X144220551Y-119893427D01*
X144220551Y-119893427D02*
X144268170Y-119988665D01*
X144268170Y-119988665D02*
X144268170Y-120512475D01*
X144744361Y-120417236D02*
X144791980Y-120464856D01*
X144791980Y-120464856D02*
X144744361Y-120512475D01*
X144744361Y-120512475D02*
X144696742Y-120464856D01*
X144696742Y-120464856D02*
X144744361Y-120417236D01*
X144744361Y-120417236D02*
X144744361Y-120512475D01*
X145934837Y-120464856D02*
X146077694Y-120512475D01*
X146077694Y-120512475D02*
X146315789Y-120512475D01*
X146315789Y-120512475D02*
X146411027Y-120464856D01*
X146411027Y-120464856D02*
X146458646Y-120417236D01*
X146458646Y-120417236D02*
X146506265Y-120321998D01*
X146506265Y-120321998D02*
X146506265Y-120226760D01*
X146506265Y-120226760D02*
X146458646Y-120131522D01*
X146458646Y-120131522D02*
X146411027Y-120083903D01*
X146411027Y-120083903D02*
X146315789Y-120036284D01*
X146315789Y-120036284D02*
X146125313Y-119988665D01*
X146125313Y-119988665D02*
X146030075Y-119941046D01*
X146030075Y-119941046D02*
X145982456Y-119893427D01*
X145982456Y-119893427D02*
X145934837Y-119798189D01*
X145934837Y-119798189D02*
X145934837Y-119702951D01*
X145934837Y-119702951D02*
X145982456Y-119607713D01*
X145982456Y-119607713D02*
X146030075Y-119560094D01*
X146030075Y-119560094D02*
X146125313Y-119512475D01*
X146125313Y-119512475D02*
X146363408Y-119512475D01*
X146363408Y-119512475D02*
X146506265Y-119560094D01*
X141411027Y-121122419D02*
X141982455Y-121122419D01*
X141696741Y-122122419D02*
X141696741Y-121122419D01*
X142458646Y-122122419D02*
X142363408Y-122074800D01*
X142363408Y-122074800D02*
X142315789Y-122027180D01*
X142315789Y-122027180D02*
X142268170Y-121931942D01*
X142268170Y-121931942D02*
X142268170Y-121646228D01*
X142268170Y-121646228D02*
X142315789Y-121550990D01*
X142315789Y-121550990D02*
X142363408Y-121503371D01*
X142363408Y-121503371D02*
X142458646Y-121455752D01*
X142458646Y-121455752D02*
X142601503Y-121455752D01*
X142601503Y-121455752D02*
X142696741Y-121503371D01*
X142696741Y-121503371D02*
X142744360Y-121550990D01*
X142744360Y-121550990D02*
X142791979Y-121646228D01*
X142791979Y-121646228D02*
X142791979Y-121931942D01*
X142791979Y-121931942D02*
X142744360Y-122027180D01*
X142744360Y-122027180D02*
X142696741Y-122074800D01*
X142696741Y-122074800D02*
X142601503Y-122122419D01*
X142601503Y-122122419D02*
X142458646Y-122122419D01*
X143363408Y-122122419D02*
X143268170Y-122074800D01*
X143268170Y-122074800D02*
X143220551Y-121979561D01*
X143220551Y-121979561D02*
X143220551Y-121122419D01*
X143744361Y-122122419D02*
X143744361Y-121455752D01*
X143744361Y-121550990D02*
X143791980Y-121503371D01*
X143791980Y-121503371D02*
X143887218Y-121455752D01*
X143887218Y-121455752D02*
X144030075Y-121455752D01*
X144030075Y-121455752D02*
X144125313Y-121503371D01*
X144125313Y-121503371D02*
X144172932Y-121598609D01*
X144172932Y-121598609D02*
X144172932Y-122122419D01*
X144172932Y-121598609D02*
X144220551Y-121503371D01*
X144220551Y-121503371D02*
X144315789Y-121455752D01*
X144315789Y-121455752D02*
X144458646Y-121455752D01*
X144458646Y-121455752D02*
X144553885Y-121503371D01*
X144553885Y-121503371D02*
X144601504Y-121598609D01*
X144601504Y-121598609D02*
X144601504Y-122122419D01*
X145077694Y-122122419D02*
X145077694Y-121455752D01*
X145077694Y-121122419D02*
X145030075Y-121170038D01*
X145030075Y-121170038D02*
X145077694Y-121217657D01*
X145077694Y-121217657D02*
X145125313Y-121170038D01*
X145125313Y-121170038D02*
X145077694Y-121122419D01*
X145077694Y-121122419D02*
X145077694Y-121217657D01*
X145934836Y-122074800D02*
X145839598Y-122122419D01*
X145839598Y-122122419D02*
X145649122Y-122122419D01*
X145649122Y-122122419D02*
X145553884Y-122074800D01*
X145553884Y-122074800D02*
X145506265Y-121979561D01*
X145506265Y-121979561D02*
X145506265Y-121598609D01*
X145506265Y-121598609D02*
X145553884Y-121503371D01*
X145553884Y-121503371D02*
X145649122Y-121455752D01*
X145649122Y-121455752D02*
X145839598Y-121455752D01*
X145839598Y-121455752D02*
X145934836Y-121503371D01*
X145934836Y-121503371D02*
X145982455Y-121598609D01*
X145982455Y-121598609D02*
X145982455Y-121693847D01*
X145982455Y-121693847D02*
X145506265Y-121789085D01*
X146411027Y-122027180D02*
X146458646Y-122074800D01*
X146458646Y-122074800D02*
X146411027Y-122122419D01*
X146411027Y-122122419D02*
X146363408Y-122074800D01*
X146363408Y-122074800D02*
X146411027Y-122027180D01*
X146411027Y-122027180D02*
X146411027Y-122122419D01*
X147982455Y-121598609D02*
X148125312Y-121646228D01*
X148125312Y-121646228D02*
X148172931Y-121693847D01*
X148172931Y-121693847D02*
X148220550Y-121789085D01*
X148220550Y-121789085D02*
X148220550Y-121931942D01*
X148220550Y-121931942D02*
X148172931Y-122027180D01*
X148172931Y-122027180D02*
X148125312Y-122074800D01*
X148125312Y-122074800D02*
X148030074Y-122122419D01*
X148030074Y-122122419D02*
X147649122Y-122122419D01*
X147649122Y-122122419D02*
X147649122Y-121122419D01*
X147649122Y-121122419D02*
X147982455Y-121122419D01*
X147982455Y-121122419D02*
X148077693Y-121170038D01*
X148077693Y-121170038D02*
X148125312Y-121217657D01*
X148125312Y-121217657D02*
X148172931Y-121312895D01*
X148172931Y-121312895D02*
X148172931Y-121408133D01*
X148172931Y-121408133D02*
X148125312Y-121503371D01*
X148125312Y-121503371D02*
X148077693Y-121550990D01*
X148077693Y-121550990D02*
X147982455Y-121598609D01*
X147982455Y-121598609D02*
X147649122Y-121598609D01*
D11*
X152857142Y-117109580D02*
X152809523Y-117157200D01*
X152809523Y-117157200D02*
X152666666Y-117204819D01*
X152666666Y-117204819D02*
X152571428Y-117204819D01*
X152571428Y-117204819D02*
X152428571Y-117157200D01*
X152428571Y-117157200D02*
X152333333Y-117061961D01*
X152333333Y-117061961D02*
X152285714Y-116966723D01*
X152285714Y-116966723D02*
X152238095Y-116776247D01*
X152238095Y-116776247D02*
X152238095Y-116633390D01*
X152238095Y-116633390D02*
X152285714Y-116442914D01*
X152285714Y-116442914D02*
X152333333Y-116347676D01*
X152333333Y-116347676D02*
X152428571Y-116252438D01*
X152428571Y-116252438D02*
X152571428Y-116204819D01*
X152571428Y-116204819D02*
X152666666Y-116204819D01*
X152666666Y-116204819D02*
X152809523Y-116252438D01*
X152809523Y-116252438D02*
X152857142Y-116300057D01*
X153809523Y-117204819D02*
X153238095Y-117204819D01*
X153523809Y-117204819D02*
X153523809Y-116204819D01*
X153523809Y-116204819D02*
X153428571Y-116347676D01*
X153428571Y-116347676D02*
X153333333Y-116442914D01*
X153333333Y-116442914D02*
X153238095Y-116490533D01*
X154285714Y-117204819D02*
X154476190Y-117204819D01*
X154476190Y-117204819D02*
X154571428Y-117157200D01*
X154571428Y-117157200D02*
X154619047Y-117109580D01*
X154619047Y-117109580D02*
X154714285Y-116966723D01*
X154714285Y-116966723D02*
X154761904Y-116776247D01*
X154761904Y-116776247D02*
X154761904Y-116395295D01*
X154761904Y-116395295D02*
X154714285Y-116300057D01*
X154714285Y-116300057D02*
X154666666Y-116252438D01*
X154666666Y-116252438D02*
X154571428Y-116204819D01*
X154571428Y-116204819D02*
X154380952Y-116204819D01*
X154380952Y-116204819D02*
X154285714Y-116252438D01*
X154285714Y-116252438D02*
X154238095Y-116300057D01*
X154238095Y-116300057D02*
X154190476Y-116395295D01*
X154190476Y-116395295D02*
X154190476Y-116633390D01*
X154190476Y-116633390D02*
X154238095Y-116728628D01*
X154238095Y-116728628D02*
X154285714Y-116776247D01*
X154285714Y-116776247D02*
X154380952Y-116823866D01*
X154380952Y-116823866D02*
X154571428Y-116823866D01*
X154571428Y-116823866D02*
X154666666Y-116776247D01*
X154666666Y-116776247D02*
X154714285Y-116728628D01*
X154714285Y-116728628D02*
X154761904Y-116633390D01*
X190249819Y-78583333D02*
X190964104Y-78583333D01*
X190964104Y-78583333D02*
X191106961Y-78630952D01*
X191106961Y-78630952D02*
X191202200Y-78726190D01*
X191202200Y-78726190D02*
X191249819Y-78869047D01*
X191249819Y-78869047D02*
X191249819Y-78964285D01*
X190249819Y-78202380D02*
X190249819Y-77535714D01*
X190249819Y-77535714D02*
X191249819Y-77964285D01*
D12*
X146824318Y-99707381D02*
X145554318Y-99707381D01*
X145554318Y-99707381D02*
X145554318Y-99405000D01*
X145554318Y-99405000D02*
X145614794Y-99223571D01*
X145614794Y-99223571D02*
X145735746Y-99102619D01*
X145735746Y-99102619D02*
X145856699Y-99042142D01*
X145856699Y-99042142D02*
X146098603Y-98981666D01*
X146098603Y-98981666D02*
X146280032Y-98981666D01*
X146280032Y-98981666D02*
X146521937Y-99042142D01*
X146521937Y-99042142D02*
X146642889Y-99102619D01*
X146642889Y-99102619D02*
X146763842Y-99223571D01*
X146763842Y-99223571D02*
X146824318Y-99405000D01*
X146824318Y-99405000D02*
X146824318Y-99707381D01*
X145675270Y-98497857D02*
X145614794Y-98437381D01*
X145614794Y-98437381D02*
X145554318Y-98316428D01*
X145554318Y-98316428D02*
X145554318Y-98014047D01*
X145554318Y-98014047D02*
X145614794Y-97893095D01*
X145614794Y-97893095D02*
X145675270Y-97832619D01*
X145675270Y-97832619D02*
X145796222Y-97772142D01*
X145796222Y-97772142D02*
X145917175Y-97772142D01*
X145917175Y-97772142D02*
X146098603Y-97832619D01*
X146098603Y-97832619D02*
X146824318Y-98558333D01*
X146824318Y-98558333D02*
X146824318Y-97772142D01*
D11*
X158710405Y-120954819D02*
X158710405Y-119954819D01*
X158710405Y-119954819D02*
X158948500Y-119954819D01*
X158948500Y-119954819D02*
X159091357Y-120002438D01*
X159091357Y-120002438D02*
X159186595Y-120097676D01*
X159186595Y-120097676D02*
X159234214Y-120192914D01*
X159234214Y-120192914D02*
X159281833Y-120383390D01*
X159281833Y-120383390D02*
X159281833Y-120526247D01*
X159281833Y-120526247D02*
X159234214Y-120716723D01*
X159234214Y-120716723D02*
X159186595Y-120811961D01*
X159186595Y-120811961D02*
X159091357Y-120907200D01*
X159091357Y-120907200D02*
X158948500Y-120954819D01*
X158948500Y-120954819D02*
X158710405Y-120954819D01*
X159758024Y-120954819D02*
X159948500Y-120954819D01*
X159948500Y-120954819D02*
X160043738Y-120907200D01*
X160043738Y-120907200D02*
X160091357Y-120859580D01*
X160091357Y-120859580D02*
X160186595Y-120716723D01*
X160186595Y-120716723D02*
X160234214Y-120526247D01*
X160234214Y-120526247D02*
X160234214Y-120145295D01*
X160234214Y-120145295D02*
X160186595Y-120050057D01*
X160186595Y-120050057D02*
X160138976Y-120002438D01*
X160138976Y-120002438D02*
X160043738Y-119954819D01*
X160043738Y-119954819D02*
X159853262Y-119954819D01*
X159853262Y-119954819D02*
X159758024Y-120002438D01*
X159758024Y-120002438D02*
X159710405Y-120050057D01*
X159710405Y-120050057D02*
X159662786Y-120145295D01*
X159662786Y-120145295D02*
X159662786Y-120383390D01*
X159662786Y-120383390D02*
X159710405Y-120478628D01*
X159710405Y-120478628D02*
X159758024Y-120526247D01*
X159758024Y-120526247D02*
X159853262Y-120573866D01*
X159853262Y-120573866D02*
X160043738Y-120573866D01*
X160043738Y-120573866D02*
X160138976Y-120526247D01*
X160138976Y-120526247D02*
X160186595Y-120478628D01*
X160186595Y-120478628D02*
X160234214Y-120383390D01*
X172954819Y-119511904D02*
X173764342Y-119511904D01*
X173764342Y-119511904D02*
X173859580Y-119464285D01*
X173859580Y-119464285D02*
X173907200Y-119416666D01*
X173907200Y-119416666D02*
X173954819Y-119321428D01*
X173954819Y-119321428D02*
X173954819Y-119130952D01*
X173954819Y-119130952D02*
X173907200Y-119035714D01*
X173907200Y-119035714D02*
X173859580Y-118988095D01*
X173859580Y-118988095D02*
X173764342Y-118940476D01*
X173764342Y-118940476D02*
X172954819Y-118940476D01*
X172954819Y-118559523D02*
X172954819Y-117940476D01*
X172954819Y-117940476D02*
X173335771Y-118273809D01*
X173335771Y-118273809D02*
X173335771Y-118130952D01*
X173335771Y-118130952D02*
X173383390Y-118035714D01*
X173383390Y-118035714D02*
X173431009Y-117988095D01*
X173431009Y-117988095D02*
X173526247Y-117940476D01*
X173526247Y-117940476D02*
X173764342Y-117940476D01*
X173764342Y-117940476D02*
X173859580Y-117988095D01*
X173859580Y-117988095D02*
X173907200Y-118035714D01*
X173907200Y-118035714D02*
X173954819Y-118130952D01*
X173954819Y-118130952D02*
X173954819Y-118416666D01*
X173954819Y-118416666D02*
X173907200Y-118511904D01*
X173907200Y-118511904D02*
X173859580Y-118559523D01*
X194238095Y-69704819D02*
X194238095Y-68704819D01*
X194238095Y-69181009D02*
X194809523Y-69181009D01*
X194809523Y-69704819D02*
X194809523Y-68704819D01*
X195238095Y-68800057D02*
X195285714Y-68752438D01*
X195285714Y-68752438D02*
X195380952Y-68704819D01*
X195380952Y-68704819D02*
X195619047Y-68704819D01*
X195619047Y-68704819D02*
X195714285Y-68752438D01*
X195714285Y-68752438D02*
X195761904Y-68800057D01*
X195761904Y-68800057D02*
X195809523Y-68895295D01*
X195809523Y-68895295D02*
X195809523Y-68990533D01*
X195809523Y-68990533D02*
X195761904Y-69133390D01*
X195761904Y-69133390D02*
X195190476Y-69704819D01*
X195190476Y-69704819D02*
X195809523Y-69704819D01*
X171454819Y-107166666D02*
X170978628Y-107499999D01*
X171454819Y-107738094D02*
X170454819Y-107738094D01*
X170454819Y-107738094D02*
X170454819Y-107357142D01*
X170454819Y-107357142D02*
X170502438Y-107261904D01*
X170502438Y-107261904D02*
X170550057Y-107214285D01*
X170550057Y-107214285D02*
X170645295Y-107166666D01*
X170645295Y-107166666D02*
X170788152Y-107166666D01*
X170788152Y-107166666D02*
X170883390Y-107214285D01*
X170883390Y-107214285D02*
X170931009Y-107261904D01*
X170931009Y-107261904D02*
X170978628Y-107357142D01*
X170978628Y-107357142D02*
X170978628Y-107738094D01*
X170788152Y-106309523D02*
X171454819Y-106309523D01*
X170407200Y-106547618D02*
X171121485Y-106785713D01*
X171121485Y-106785713D02*
X171121485Y-106166666D01*
X158710405Y-117704819D02*
X158710405Y-116704819D01*
X158710405Y-116704819D02*
X158948500Y-116704819D01*
X158948500Y-116704819D02*
X159091357Y-116752438D01*
X159091357Y-116752438D02*
X159186595Y-116847676D01*
X159186595Y-116847676D02*
X159234214Y-116942914D01*
X159234214Y-116942914D02*
X159281833Y-117133390D01*
X159281833Y-117133390D02*
X159281833Y-117276247D01*
X159281833Y-117276247D02*
X159234214Y-117466723D01*
X159234214Y-117466723D02*
X159186595Y-117561961D01*
X159186595Y-117561961D02*
X159091357Y-117657200D01*
X159091357Y-117657200D02*
X158948500Y-117704819D01*
X158948500Y-117704819D02*
X158710405Y-117704819D01*
X159853262Y-117133390D02*
X159758024Y-117085771D01*
X159758024Y-117085771D02*
X159710405Y-117038152D01*
X159710405Y-117038152D02*
X159662786Y-116942914D01*
X159662786Y-116942914D02*
X159662786Y-116895295D01*
X159662786Y-116895295D02*
X159710405Y-116800057D01*
X159710405Y-116800057D02*
X159758024Y-116752438D01*
X159758024Y-116752438D02*
X159853262Y-116704819D01*
X159853262Y-116704819D02*
X160043738Y-116704819D01*
X160043738Y-116704819D02*
X160138976Y-116752438D01*
X160138976Y-116752438D02*
X160186595Y-116800057D01*
X160186595Y-116800057D02*
X160234214Y-116895295D01*
X160234214Y-116895295D02*
X160234214Y-116942914D01*
X160234214Y-116942914D02*
X160186595Y-117038152D01*
X160186595Y-117038152D02*
X160138976Y-117085771D01*
X160138976Y-117085771D02*
X160043738Y-117133390D01*
X160043738Y-117133390D02*
X159853262Y-117133390D01*
X159853262Y-117133390D02*
X159758024Y-117181009D01*
X159758024Y-117181009D02*
X159710405Y-117228628D01*
X159710405Y-117228628D02*
X159662786Y-117323866D01*
X159662786Y-117323866D02*
X159662786Y-117514342D01*
X159662786Y-117514342D02*
X159710405Y-117609580D01*
X159710405Y-117609580D02*
X159758024Y-117657200D01*
X159758024Y-117657200D02*
X159853262Y-117704819D01*
X159853262Y-117704819D02*
X160043738Y-117704819D01*
X160043738Y-117704819D02*
X160138976Y-117657200D01*
X160138976Y-117657200D02*
X160186595Y-117609580D01*
X160186595Y-117609580D02*
X160234214Y-117514342D01*
X160234214Y-117514342D02*
X160234214Y-117323866D01*
X160234214Y-117323866D02*
X160186595Y-117228628D01*
X160186595Y-117228628D02*
X160138976Y-117181009D01*
X160138976Y-117181009D02*
X160043738Y-117133390D01*
X195238095Y-115004819D02*
X195238095Y-114004819D01*
X195238095Y-114481009D02*
X195809523Y-114481009D01*
X195809523Y-115004819D02*
X195809523Y-114004819D01*
X196714285Y-114338152D02*
X196714285Y-115004819D01*
X196476190Y-113957200D02*
X196238095Y-114671485D01*
X196238095Y-114671485D02*
X196857142Y-114671485D01*
X153583333Y-103181009D02*
X153916666Y-103181009D01*
X154059523Y-103704819D02*
X153583333Y-103704819D01*
X153583333Y-103704819D02*
X153583333Y-102704819D01*
X153583333Y-102704819D02*
X154059523Y-102704819D01*
X155059523Y-103609580D02*
X155011904Y-103657200D01*
X155011904Y-103657200D02*
X154869047Y-103704819D01*
X154869047Y-103704819D02*
X154773809Y-103704819D01*
X154773809Y-103704819D02*
X154630952Y-103657200D01*
X154630952Y-103657200D02*
X154535714Y-103561961D01*
X154535714Y-103561961D02*
X154488095Y-103466723D01*
X154488095Y-103466723D02*
X154440476Y-103276247D01*
X154440476Y-103276247D02*
X154440476Y-103133390D01*
X154440476Y-103133390D02*
X154488095Y-102942914D01*
X154488095Y-102942914D02*
X154535714Y-102847676D01*
X154535714Y-102847676D02*
X154630952Y-102752438D01*
X154630952Y-102752438D02*
X154773809Y-102704819D01*
X154773809Y-102704819D02*
X154869047Y-102704819D01*
X154869047Y-102704819D02*
X155011904Y-102752438D01*
X155011904Y-102752438D02*
X155059523Y-102800057D01*
X155440476Y-102800057D02*
X155488095Y-102752438D01*
X155488095Y-102752438D02*
X155583333Y-102704819D01*
X155583333Y-102704819D02*
X155821428Y-102704819D01*
X155821428Y-102704819D02*
X155916666Y-102752438D01*
X155916666Y-102752438D02*
X155964285Y-102800057D01*
X155964285Y-102800057D02*
X156011904Y-102895295D01*
X156011904Y-102895295D02*
X156011904Y-102990533D01*
X156011904Y-102990533D02*
X155964285Y-103133390D01*
X155964285Y-103133390D02*
X155392857Y-103704819D01*
X155392857Y-103704819D02*
X156011904Y-103704819D01*
X156630952Y-102704819D02*
X156726190Y-102704819D01*
X156726190Y-102704819D02*
X156821428Y-102752438D01*
X156821428Y-102752438D02*
X156869047Y-102800057D01*
X156869047Y-102800057D02*
X156916666Y-102895295D01*
X156916666Y-102895295D02*
X156964285Y-103085771D01*
X156964285Y-103085771D02*
X156964285Y-103323866D01*
X156964285Y-103323866D02*
X156916666Y-103514342D01*
X156916666Y-103514342D02*
X156869047Y-103609580D01*
X156869047Y-103609580D02*
X156821428Y-103657200D01*
X156821428Y-103657200D02*
X156726190Y-103704819D01*
X156726190Y-103704819D02*
X156630952Y-103704819D01*
X156630952Y-103704819D02*
X156535714Y-103657200D01*
X156535714Y-103657200D02*
X156488095Y-103609580D01*
X156488095Y-103609580D02*
X156440476Y-103514342D01*
X156440476Y-103514342D02*
X156392857Y-103323866D01*
X156392857Y-103323866D02*
X156392857Y-103085771D01*
X156392857Y-103085771D02*
X156440476Y-102895295D01*
X156440476Y-102895295D02*
X156488095Y-102800057D01*
X156488095Y-102800057D02*
X156535714Y-102752438D01*
X156535714Y-102752438D02*
X156630952Y-102704819D01*
X177454819Y-104166666D02*
X176978628Y-104499999D01*
X177454819Y-104738094D02*
X176454819Y-104738094D01*
X176454819Y-104738094D02*
X176454819Y-104357142D01*
X176454819Y-104357142D02*
X176502438Y-104261904D01*
X176502438Y-104261904D02*
X176550057Y-104214285D01*
X176550057Y-104214285D02*
X176645295Y-104166666D01*
X176645295Y-104166666D02*
X176788152Y-104166666D01*
X176788152Y-104166666D02*
X176883390Y-104214285D01*
X176883390Y-104214285D02*
X176931009Y-104261904D01*
X176931009Y-104261904D02*
X176978628Y-104357142D01*
X176978628Y-104357142D02*
X176978628Y-104738094D01*
X176454819Y-103261904D02*
X176454819Y-103738094D01*
X176454819Y-103738094D02*
X176931009Y-103785713D01*
X176931009Y-103785713D02*
X176883390Y-103738094D01*
X176883390Y-103738094D02*
X176835771Y-103642856D01*
X176835771Y-103642856D02*
X176835771Y-103404761D01*
X176835771Y-103404761D02*
X176883390Y-103309523D01*
X176883390Y-103309523D02*
X176931009Y-103261904D01*
X176931009Y-103261904D02*
X177026247Y-103214285D01*
X177026247Y-103214285D02*
X177264342Y-103214285D01*
X177264342Y-103214285D02*
X177359580Y-103261904D01*
X177359580Y-103261904D02*
X177407200Y-103309523D01*
X177407200Y-103309523D02*
X177454819Y-103404761D01*
X177454819Y-103404761D02*
X177454819Y-103642856D01*
X177454819Y-103642856D02*
X177407200Y-103738094D01*
X177407200Y-103738094D02*
X177359580Y-103785713D01*
X168074819Y-66746666D02*
X167598628Y-67079999D01*
X168074819Y-67318094D02*
X167074819Y-67318094D01*
X167074819Y-67318094D02*
X167074819Y-66937142D01*
X167074819Y-66937142D02*
X167122438Y-66841904D01*
X167122438Y-66841904D02*
X167170057Y-66794285D01*
X167170057Y-66794285D02*
X167265295Y-66746666D01*
X167265295Y-66746666D02*
X167408152Y-66746666D01*
X167408152Y-66746666D02*
X167503390Y-66794285D01*
X167503390Y-66794285D02*
X167551009Y-66841904D01*
X167551009Y-66841904D02*
X167598628Y-66937142D01*
X167598628Y-66937142D02*
X167598628Y-67318094D01*
X168074819Y-66270475D02*
X168074819Y-66079999D01*
X168074819Y-66079999D02*
X168027200Y-65984761D01*
X168027200Y-65984761D02*
X167979580Y-65937142D01*
X167979580Y-65937142D02*
X167836723Y-65841904D01*
X167836723Y-65841904D02*
X167646247Y-65794285D01*
X167646247Y-65794285D02*
X167265295Y-65794285D01*
X167265295Y-65794285D02*
X167170057Y-65841904D01*
X167170057Y-65841904D02*
X167122438Y-65889523D01*
X167122438Y-65889523D02*
X167074819Y-65984761D01*
X167074819Y-65984761D02*
X167074819Y-66175237D01*
X167074819Y-66175237D02*
X167122438Y-66270475D01*
X167122438Y-66270475D02*
X167170057Y-66318094D01*
X167170057Y-66318094D02*
X167265295Y-66365713D01*
X167265295Y-66365713D02*
X167503390Y-66365713D01*
X167503390Y-66365713D02*
X167598628Y-66318094D01*
X167598628Y-66318094D02*
X167646247Y-66270475D01*
X167646247Y-66270475D02*
X167693866Y-66175237D01*
X167693866Y-66175237D02*
X167693866Y-65984761D01*
X167693866Y-65984761D02*
X167646247Y-65889523D01*
X167646247Y-65889523D02*
X167598628Y-65841904D01*
X167598628Y-65841904D02*
X167503390Y-65794285D01*
X176824819Y-105722857D02*
X176348628Y-106056190D01*
X176824819Y-106294285D02*
X175824819Y-106294285D01*
X175824819Y-106294285D02*
X175824819Y-105913333D01*
X175824819Y-105913333D02*
X175872438Y-105818095D01*
X175872438Y-105818095D02*
X175920057Y-105770476D01*
X175920057Y-105770476D02*
X176015295Y-105722857D01*
X176015295Y-105722857D02*
X176158152Y-105722857D01*
X176158152Y-105722857D02*
X176253390Y-105770476D01*
X176253390Y-105770476D02*
X176301009Y-105818095D01*
X176301009Y-105818095D02*
X176348628Y-105913333D01*
X176348628Y-105913333D02*
X176348628Y-106294285D01*
X176824819Y-104770476D02*
X176824819Y-105341904D01*
X176824819Y-105056190D02*
X175824819Y-105056190D01*
X175824819Y-105056190D02*
X175967676Y-105151428D01*
X175967676Y-105151428D02*
X176062914Y-105246666D01*
X176062914Y-105246666D02*
X176110533Y-105341904D01*
X175920057Y-104389523D02*
X175872438Y-104341904D01*
X175872438Y-104341904D02*
X175824819Y-104246666D01*
X175824819Y-104246666D02*
X175824819Y-104008571D01*
X175824819Y-104008571D02*
X175872438Y-103913333D01*
X175872438Y-103913333D02*
X175920057Y-103865714D01*
X175920057Y-103865714D02*
X176015295Y-103818095D01*
X176015295Y-103818095D02*
X176110533Y-103818095D01*
X176110533Y-103818095D02*
X176253390Y-103865714D01*
X176253390Y-103865714D02*
X176824819Y-104437142D01*
X176824819Y-104437142D02*
X176824819Y-103818095D01*
X133738095Y-70204819D02*
X133738095Y-69204819D01*
X133738095Y-69681009D02*
X134309523Y-69681009D01*
X134309523Y-70204819D02*
X134309523Y-69204819D01*
X135309523Y-70204819D02*
X134738095Y-70204819D01*
X135023809Y-70204819D02*
X135023809Y-69204819D01*
X135023809Y-69204819D02*
X134928571Y-69347676D01*
X134928571Y-69347676D02*
X134833333Y-69442914D01*
X134833333Y-69442914D02*
X134738095Y-69490533D01*
X190454819Y-105472857D02*
X189978628Y-105806190D01*
X190454819Y-106044285D02*
X189454819Y-106044285D01*
X189454819Y-106044285D02*
X189454819Y-105663333D01*
X189454819Y-105663333D02*
X189502438Y-105568095D01*
X189502438Y-105568095D02*
X189550057Y-105520476D01*
X189550057Y-105520476D02*
X189645295Y-105472857D01*
X189645295Y-105472857D02*
X189788152Y-105472857D01*
X189788152Y-105472857D02*
X189883390Y-105520476D01*
X189883390Y-105520476D02*
X189931009Y-105568095D01*
X189931009Y-105568095D02*
X189978628Y-105663333D01*
X189978628Y-105663333D02*
X189978628Y-106044285D01*
X190454819Y-104520476D02*
X190454819Y-105091904D01*
X190454819Y-104806190D02*
X189454819Y-104806190D01*
X189454819Y-104806190D02*
X189597676Y-104901428D01*
X189597676Y-104901428D02*
X189692914Y-104996666D01*
X189692914Y-104996666D02*
X189740533Y-105091904D01*
X190454819Y-103568095D02*
X190454819Y-104139523D01*
X190454819Y-103853809D02*
X189454819Y-103853809D01*
X189454819Y-103853809D02*
X189597676Y-103949047D01*
X189597676Y-103949047D02*
X189692914Y-104044285D01*
X189692914Y-104044285D02*
X189740533Y-104139523D01*
D12*
X162876380Y-107013842D02*
X163057809Y-107074318D01*
X163057809Y-107074318D02*
X163360190Y-107074318D01*
X163360190Y-107074318D02*
X163481142Y-107013842D01*
X163481142Y-107013842D02*
X163541618Y-106953365D01*
X163541618Y-106953365D02*
X163602095Y-106832413D01*
X163602095Y-106832413D02*
X163602095Y-106711461D01*
X163602095Y-106711461D02*
X163541618Y-106590508D01*
X163541618Y-106590508D02*
X163481142Y-106530032D01*
X163481142Y-106530032D02*
X163360190Y-106469556D01*
X163360190Y-106469556D02*
X163118285Y-106409080D01*
X163118285Y-106409080D02*
X162997333Y-106348603D01*
X162997333Y-106348603D02*
X162936856Y-106288127D01*
X162936856Y-106288127D02*
X162876380Y-106167175D01*
X162876380Y-106167175D02*
X162876380Y-106046222D01*
X162876380Y-106046222D02*
X162936856Y-105925270D01*
X162936856Y-105925270D02*
X162997333Y-105864794D01*
X162997333Y-105864794D02*
X163118285Y-105804318D01*
X163118285Y-105804318D02*
X163420666Y-105804318D01*
X163420666Y-105804318D02*
X163602095Y-105864794D01*
X164811619Y-107074318D02*
X164085904Y-107074318D01*
X164448761Y-107074318D02*
X164448761Y-105804318D01*
X164448761Y-105804318D02*
X164327809Y-105985746D01*
X164327809Y-105985746D02*
X164206857Y-106106699D01*
X164206857Y-106106699D02*
X164085904Y-106167175D01*
D11*
X183954819Y-105722857D02*
X183478628Y-106056190D01*
X183954819Y-106294285D02*
X182954819Y-106294285D01*
X182954819Y-106294285D02*
X182954819Y-105913333D01*
X182954819Y-105913333D02*
X183002438Y-105818095D01*
X183002438Y-105818095D02*
X183050057Y-105770476D01*
X183050057Y-105770476D02*
X183145295Y-105722857D01*
X183145295Y-105722857D02*
X183288152Y-105722857D01*
X183288152Y-105722857D02*
X183383390Y-105770476D01*
X183383390Y-105770476D02*
X183431009Y-105818095D01*
X183431009Y-105818095D02*
X183478628Y-105913333D01*
X183478628Y-105913333D02*
X183478628Y-106294285D01*
X183954819Y-104770476D02*
X183954819Y-105341904D01*
X183954819Y-105056190D02*
X182954819Y-105056190D01*
X182954819Y-105056190D02*
X183097676Y-105151428D01*
X183097676Y-105151428D02*
X183192914Y-105246666D01*
X183192914Y-105246666D02*
X183240533Y-105341904D01*
X182954819Y-104151428D02*
X182954819Y-104056190D01*
X182954819Y-104056190D02*
X183002438Y-103960952D01*
X183002438Y-103960952D02*
X183050057Y-103913333D01*
X183050057Y-103913333D02*
X183145295Y-103865714D01*
X183145295Y-103865714D02*
X183335771Y-103818095D01*
X183335771Y-103818095D02*
X183573866Y-103818095D01*
X183573866Y-103818095D02*
X183764342Y-103865714D01*
X183764342Y-103865714D02*
X183859580Y-103913333D01*
X183859580Y-103913333D02*
X183907200Y-103960952D01*
X183907200Y-103960952D02*
X183954819Y-104056190D01*
X183954819Y-104056190D02*
X183954819Y-104151428D01*
X183954819Y-104151428D02*
X183907200Y-104246666D01*
X183907200Y-104246666D02*
X183859580Y-104294285D01*
X183859580Y-104294285D02*
X183764342Y-104341904D01*
X183764342Y-104341904D02*
X183573866Y-104389523D01*
X183573866Y-104389523D02*
X183335771Y-104389523D01*
X183335771Y-104389523D02*
X183145295Y-104341904D01*
X183145295Y-104341904D02*
X183050057Y-104294285D01*
X183050057Y-104294285D02*
X183002438Y-104246666D01*
X183002438Y-104246666D02*
X182954819Y-104151428D01*
X183003333Y-117074819D02*
X182670000Y-116598628D01*
X182431905Y-117074819D02*
X182431905Y-116074819D01*
X182431905Y-116074819D02*
X182812857Y-116074819D01*
X182812857Y-116074819D02*
X182908095Y-116122438D01*
X182908095Y-116122438D02*
X182955714Y-116170057D01*
X182955714Y-116170057D02*
X183003333Y-116265295D01*
X183003333Y-116265295D02*
X183003333Y-116408152D01*
X183003333Y-116408152D02*
X182955714Y-116503390D01*
X182955714Y-116503390D02*
X182908095Y-116551009D01*
X182908095Y-116551009D02*
X182812857Y-116598628D01*
X182812857Y-116598628D02*
X182431905Y-116598628D01*
X183574762Y-116503390D02*
X183479524Y-116455771D01*
X183479524Y-116455771D02*
X183431905Y-116408152D01*
X183431905Y-116408152D02*
X183384286Y-116312914D01*
X183384286Y-116312914D02*
X183384286Y-116265295D01*
X183384286Y-116265295D02*
X183431905Y-116170057D01*
X183431905Y-116170057D02*
X183479524Y-116122438D01*
X183479524Y-116122438D02*
X183574762Y-116074819D01*
X183574762Y-116074819D02*
X183765238Y-116074819D01*
X183765238Y-116074819D02*
X183860476Y-116122438D01*
X183860476Y-116122438D02*
X183908095Y-116170057D01*
X183908095Y-116170057D02*
X183955714Y-116265295D01*
X183955714Y-116265295D02*
X183955714Y-116312914D01*
X183955714Y-116312914D02*
X183908095Y-116408152D01*
X183908095Y-116408152D02*
X183860476Y-116455771D01*
X183860476Y-116455771D02*
X183765238Y-116503390D01*
X183765238Y-116503390D02*
X183574762Y-116503390D01*
X183574762Y-116503390D02*
X183479524Y-116551009D01*
X183479524Y-116551009D02*
X183431905Y-116598628D01*
X183431905Y-116598628D02*
X183384286Y-116693866D01*
X183384286Y-116693866D02*
X183384286Y-116884342D01*
X183384286Y-116884342D02*
X183431905Y-116979580D01*
X183431905Y-116979580D02*
X183479524Y-117027200D01*
X183479524Y-117027200D02*
X183574762Y-117074819D01*
X183574762Y-117074819D02*
X183765238Y-117074819D01*
X183765238Y-117074819D02*
X183860476Y-117027200D01*
X183860476Y-117027200D02*
X183908095Y-116979580D01*
X183908095Y-116979580D02*
X183955714Y-116884342D01*
X183955714Y-116884342D02*
X183955714Y-116693866D01*
X183955714Y-116693866D02*
X183908095Y-116598628D01*
X183908095Y-116598628D02*
X183860476Y-116551009D01*
X183860476Y-116551009D02*
X183765238Y-116503390D01*
X180704819Y-106062857D02*
X180228628Y-106396190D01*
X180704819Y-106634285D02*
X179704819Y-106634285D01*
X179704819Y-106634285D02*
X179704819Y-106253333D01*
X179704819Y-106253333D02*
X179752438Y-106158095D01*
X179752438Y-106158095D02*
X179800057Y-106110476D01*
X179800057Y-106110476D02*
X179895295Y-106062857D01*
X179895295Y-106062857D02*
X180038152Y-106062857D01*
X180038152Y-106062857D02*
X180133390Y-106110476D01*
X180133390Y-106110476D02*
X180181009Y-106158095D01*
X180181009Y-106158095D02*
X180228628Y-106253333D01*
X180228628Y-106253333D02*
X180228628Y-106634285D01*
X179800057Y-105681904D02*
X179752438Y-105634285D01*
X179752438Y-105634285D02*
X179704819Y-105539047D01*
X179704819Y-105539047D02*
X179704819Y-105300952D01*
X179704819Y-105300952D02*
X179752438Y-105205714D01*
X179752438Y-105205714D02*
X179800057Y-105158095D01*
X179800057Y-105158095D02*
X179895295Y-105110476D01*
X179895295Y-105110476D02*
X179990533Y-105110476D01*
X179990533Y-105110476D02*
X180133390Y-105158095D01*
X180133390Y-105158095D02*
X180704819Y-105729523D01*
X180704819Y-105729523D02*
X180704819Y-105110476D01*
X180704819Y-104158095D02*
X180704819Y-104729523D01*
X180704819Y-104443809D02*
X179704819Y-104443809D01*
X179704819Y-104443809D02*
X179847676Y-104539047D01*
X179847676Y-104539047D02*
X179942914Y-104634285D01*
X179942914Y-104634285D02*
X179990533Y-104729523D01*
X163909580Y-86916666D02*
X163957200Y-86964285D01*
X163957200Y-86964285D02*
X164004819Y-87107142D01*
X164004819Y-87107142D02*
X164004819Y-87202380D01*
X164004819Y-87202380D02*
X163957200Y-87345237D01*
X163957200Y-87345237D02*
X163861961Y-87440475D01*
X163861961Y-87440475D02*
X163766723Y-87488094D01*
X163766723Y-87488094D02*
X163576247Y-87535713D01*
X163576247Y-87535713D02*
X163433390Y-87535713D01*
X163433390Y-87535713D02*
X163242914Y-87488094D01*
X163242914Y-87488094D02*
X163147676Y-87440475D01*
X163147676Y-87440475D02*
X163052438Y-87345237D01*
X163052438Y-87345237D02*
X163004819Y-87202380D01*
X163004819Y-87202380D02*
X163004819Y-87107142D01*
X163004819Y-87107142D02*
X163052438Y-86964285D01*
X163052438Y-86964285D02*
X163100057Y-86916666D01*
X163004819Y-86583332D02*
X163004819Y-85916666D01*
X163004819Y-85916666D02*
X164004819Y-86345237D01*
X172954819Y-115011904D02*
X173764342Y-115011904D01*
X173764342Y-115011904D02*
X173859580Y-114964285D01*
X173859580Y-114964285D02*
X173907200Y-114916666D01*
X173907200Y-114916666D02*
X173954819Y-114821428D01*
X173954819Y-114821428D02*
X173954819Y-114630952D01*
X173954819Y-114630952D02*
X173907200Y-114535714D01*
X173907200Y-114535714D02*
X173859580Y-114488095D01*
X173859580Y-114488095D02*
X173764342Y-114440476D01*
X173764342Y-114440476D02*
X172954819Y-114440476D01*
X173954819Y-113440476D02*
X173954819Y-114011904D01*
X173954819Y-113726190D02*
X172954819Y-113726190D01*
X172954819Y-113726190D02*
X173097676Y-113821428D01*
X173097676Y-113821428D02*
X173192914Y-113916666D01*
X173192914Y-113916666D02*
X173240533Y-114011904D01*
X185659580Y-83916666D02*
X185707200Y-83964285D01*
X185707200Y-83964285D02*
X185754819Y-84107142D01*
X185754819Y-84107142D02*
X185754819Y-84202380D01*
X185754819Y-84202380D02*
X185707200Y-84345237D01*
X185707200Y-84345237D02*
X185611961Y-84440475D01*
X185611961Y-84440475D02*
X185516723Y-84488094D01*
X185516723Y-84488094D02*
X185326247Y-84535713D01*
X185326247Y-84535713D02*
X185183390Y-84535713D01*
X185183390Y-84535713D02*
X184992914Y-84488094D01*
X184992914Y-84488094D02*
X184897676Y-84440475D01*
X184897676Y-84440475D02*
X184802438Y-84345237D01*
X184802438Y-84345237D02*
X184754819Y-84202380D01*
X184754819Y-84202380D02*
X184754819Y-84107142D01*
X184754819Y-84107142D02*
X184802438Y-83964285D01*
X184802438Y-83964285D02*
X184850057Y-83916666D01*
X185754819Y-83440475D02*
X185754819Y-83249999D01*
X185754819Y-83249999D02*
X185707200Y-83154761D01*
X185707200Y-83154761D02*
X185659580Y-83107142D01*
X185659580Y-83107142D02*
X185516723Y-83011904D01*
X185516723Y-83011904D02*
X185326247Y-82964285D01*
X185326247Y-82964285D02*
X184945295Y-82964285D01*
X184945295Y-82964285D02*
X184850057Y-83011904D01*
X184850057Y-83011904D02*
X184802438Y-83059523D01*
X184802438Y-83059523D02*
X184754819Y-83154761D01*
X184754819Y-83154761D02*
X184754819Y-83345237D01*
X184754819Y-83345237D02*
X184802438Y-83440475D01*
X184802438Y-83440475D02*
X184850057Y-83488094D01*
X184850057Y-83488094D02*
X184945295Y-83535713D01*
X184945295Y-83535713D02*
X185183390Y-83535713D01*
X185183390Y-83535713D02*
X185278628Y-83488094D01*
X185278628Y-83488094D02*
X185326247Y-83440475D01*
X185326247Y-83440475D02*
X185373866Y-83345237D01*
X185373866Y-83345237D02*
X185373866Y-83154761D01*
X185373866Y-83154761D02*
X185326247Y-83059523D01*
X185326247Y-83059523D02*
X185278628Y-83011904D01*
X185278628Y-83011904D02*
X185183390Y-82964285D01*
X190304819Y-74808333D02*
X191019104Y-74808333D01*
X191019104Y-74808333D02*
X191161961Y-74855952D01*
X191161961Y-74855952D02*
X191257200Y-74951190D01*
X191257200Y-74951190D02*
X191304819Y-75094047D01*
X191304819Y-75094047D02*
X191304819Y-75189285D01*
X190304819Y-73855952D02*
X190304819Y-74332142D01*
X190304819Y-74332142D02*
X190781009Y-74379761D01*
X190781009Y-74379761D02*
X190733390Y-74332142D01*
X190733390Y-74332142D02*
X190685771Y-74236904D01*
X190685771Y-74236904D02*
X190685771Y-73998809D01*
X190685771Y-73998809D02*
X190733390Y-73903571D01*
X190733390Y-73903571D02*
X190781009Y-73855952D01*
X190781009Y-73855952D02*
X190876247Y-73808333D01*
X190876247Y-73808333D02*
X191114342Y-73808333D01*
X191114342Y-73808333D02*
X191209580Y-73855952D01*
X191209580Y-73855952D02*
X191257200Y-73903571D01*
X191257200Y-73903571D02*
X191304819Y-73998809D01*
X191304819Y-73998809D02*
X191304819Y-74236904D01*
X191304819Y-74236904D02*
X191257200Y-74332142D01*
X191257200Y-74332142D02*
X191209580Y-74379761D01*
X171273766Y-111244819D02*
X171273766Y-111959104D01*
X171273766Y-111959104D02*
X171226147Y-112101961D01*
X171226147Y-112101961D02*
X171130909Y-112197200D01*
X171130909Y-112197200D02*
X170988052Y-112244819D01*
X170988052Y-112244819D02*
X170892814Y-112244819D01*
X172273766Y-112244819D02*
X171702338Y-112244819D01*
X171988052Y-112244819D02*
X171988052Y-111244819D01*
X171988052Y-111244819D02*
X171892814Y-111387676D01*
X171892814Y-111387676D02*
X171797576Y-111482914D01*
X171797576Y-111482914D02*
X171702338Y-111530533D01*
X158857142Y-116409580D02*
X158809523Y-116457200D01*
X158809523Y-116457200D02*
X158666666Y-116504819D01*
X158666666Y-116504819D02*
X158571428Y-116504819D01*
X158571428Y-116504819D02*
X158428571Y-116457200D01*
X158428571Y-116457200D02*
X158333333Y-116361961D01*
X158333333Y-116361961D02*
X158285714Y-116266723D01*
X158285714Y-116266723D02*
X158238095Y-116076247D01*
X158238095Y-116076247D02*
X158238095Y-115933390D01*
X158238095Y-115933390D02*
X158285714Y-115742914D01*
X158285714Y-115742914D02*
X158333333Y-115647676D01*
X158333333Y-115647676D02*
X158428571Y-115552438D01*
X158428571Y-115552438D02*
X158571428Y-115504819D01*
X158571428Y-115504819D02*
X158666666Y-115504819D01*
X158666666Y-115504819D02*
X158809523Y-115552438D01*
X158809523Y-115552438D02*
X158857142Y-115600057D01*
X159809523Y-116504819D02*
X159238095Y-116504819D01*
X159523809Y-116504819D02*
X159523809Y-115504819D01*
X159523809Y-115504819D02*
X159428571Y-115647676D01*
X159428571Y-115647676D02*
X159333333Y-115742914D01*
X159333333Y-115742914D02*
X159238095Y-115790533D01*
X160428571Y-115504819D02*
X160523809Y-115504819D01*
X160523809Y-115504819D02*
X160619047Y-115552438D01*
X160619047Y-115552438D02*
X160666666Y-115600057D01*
X160666666Y-115600057D02*
X160714285Y-115695295D01*
X160714285Y-115695295D02*
X160761904Y-115885771D01*
X160761904Y-115885771D02*
X160761904Y-116123866D01*
X160761904Y-116123866D02*
X160714285Y-116314342D01*
X160714285Y-116314342D02*
X160666666Y-116409580D01*
X160666666Y-116409580D02*
X160619047Y-116457200D01*
X160619047Y-116457200D02*
X160523809Y-116504819D01*
X160523809Y-116504819D02*
X160428571Y-116504819D01*
X160428571Y-116504819D02*
X160333333Y-116457200D01*
X160333333Y-116457200D02*
X160285714Y-116409580D01*
X160285714Y-116409580D02*
X160238095Y-116314342D01*
X160238095Y-116314342D02*
X160190476Y-116123866D01*
X160190476Y-116123866D02*
X160190476Y-115885771D01*
X160190476Y-115885771D02*
X160238095Y-115695295D01*
X160238095Y-115695295D02*
X160285714Y-115600057D01*
X160285714Y-115600057D02*
X160333333Y-115552438D01*
X160333333Y-115552438D02*
X160428571Y-115504819D01*
X170956666Y-73954819D02*
X170956666Y-74669104D01*
X170956666Y-74669104D02*
X170909047Y-74811961D01*
X170909047Y-74811961D02*
X170813809Y-74907200D01*
X170813809Y-74907200D02*
X170670952Y-74954819D01*
X170670952Y-74954819D02*
X170575714Y-74954819D01*
X171337619Y-73954819D02*
X171956666Y-73954819D01*
X171956666Y-73954819D02*
X171623333Y-74335771D01*
X171623333Y-74335771D02*
X171766190Y-74335771D01*
X171766190Y-74335771D02*
X171861428Y-74383390D01*
X171861428Y-74383390D02*
X171909047Y-74431009D01*
X171909047Y-74431009D02*
X171956666Y-74526247D01*
X171956666Y-74526247D02*
X171956666Y-74764342D01*
X171956666Y-74764342D02*
X171909047Y-74859580D01*
X171909047Y-74859580D02*
X171861428Y-74907200D01*
X171861428Y-74907200D02*
X171766190Y-74954819D01*
X171766190Y-74954819D02*
X171480476Y-74954819D01*
X171480476Y-74954819D02*
X171385238Y-74907200D01*
X171385238Y-74907200D02*
X171337619Y-74859580D01*
D12*
X154824318Y-98977381D02*
X153554318Y-98977381D01*
X153554318Y-98977381D02*
X153554318Y-98675000D01*
X153554318Y-98675000D02*
X153614794Y-98493571D01*
X153614794Y-98493571D02*
X153735746Y-98372619D01*
X153735746Y-98372619D02*
X153856699Y-98312142D01*
X153856699Y-98312142D02*
X154098603Y-98251666D01*
X154098603Y-98251666D02*
X154280032Y-98251666D01*
X154280032Y-98251666D02*
X154521937Y-98312142D01*
X154521937Y-98312142D02*
X154642889Y-98372619D01*
X154642889Y-98372619D02*
X154763842Y-98493571D01*
X154763842Y-98493571D02*
X154824318Y-98675000D01*
X154824318Y-98675000D02*
X154824318Y-98977381D01*
X153554318Y-97828333D02*
X153554318Y-97042142D01*
X153554318Y-97042142D02*
X154038127Y-97465476D01*
X154038127Y-97465476D02*
X154038127Y-97284047D01*
X154038127Y-97284047D02*
X154098603Y-97163095D01*
X154098603Y-97163095D02*
X154159080Y-97102619D01*
X154159080Y-97102619D02*
X154280032Y-97042142D01*
X154280032Y-97042142D02*
X154582413Y-97042142D01*
X154582413Y-97042142D02*
X154703365Y-97102619D01*
X154703365Y-97102619D02*
X154763842Y-97163095D01*
X154763842Y-97163095D02*
X154824318Y-97284047D01*
X154824318Y-97284047D02*
X154824318Y-97646904D01*
X154824318Y-97646904D02*
X154763842Y-97767857D01*
X154763842Y-97767857D02*
X154703365Y-97828333D01*
D11*
X171409580Y-63392857D02*
X171457200Y-63440476D01*
X171457200Y-63440476D02*
X171504819Y-63583333D01*
X171504819Y-63583333D02*
X171504819Y-63678571D01*
X171504819Y-63678571D02*
X171457200Y-63821428D01*
X171457200Y-63821428D02*
X171361961Y-63916666D01*
X171361961Y-63916666D02*
X171266723Y-63964285D01*
X171266723Y-63964285D02*
X171076247Y-64011904D01*
X171076247Y-64011904D02*
X170933390Y-64011904D01*
X170933390Y-64011904D02*
X170742914Y-63964285D01*
X170742914Y-63964285D02*
X170647676Y-63916666D01*
X170647676Y-63916666D02*
X170552438Y-63821428D01*
X170552438Y-63821428D02*
X170504819Y-63678571D01*
X170504819Y-63678571D02*
X170504819Y-63583333D01*
X170504819Y-63583333D02*
X170552438Y-63440476D01*
X170552438Y-63440476D02*
X170600057Y-63392857D01*
X170600057Y-63011904D02*
X170552438Y-62964285D01*
X170552438Y-62964285D02*
X170504819Y-62869047D01*
X170504819Y-62869047D02*
X170504819Y-62630952D01*
X170504819Y-62630952D02*
X170552438Y-62535714D01*
X170552438Y-62535714D02*
X170600057Y-62488095D01*
X170600057Y-62488095D02*
X170695295Y-62440476D01*
X170695295Y-62440476D02*
X170790533Y-62440476D01*
X170790533Y-62440476D02*
X170933390Y-62488095D01*
X170933390Y-62488095D02*
X171504819Y-63059523D01*
X171504819Y-63059523D02*
X171504819Y-62440476D01*
X170838152Y-61583333D02*
X171504819Y-61583333D01*
X170457200Y-61821428D02*
X171171485Y-62059523D01*
X171171485Y-62059523D02*
X171171485Y-61440476D01*
D12*
X165969556Y-87604761D02*
X166574318Y-87604761D01*
X165304318Y-88028094D02*
X165969556Y-87604761D01*
X165969556Y-87604761D02*
X165304318Y-87181427D01*
X166574318Y-86092856D02*
X166574318Y-86818571D01*
X166574318Y-86455714D02*
X165304318Y-86455714D01*
X165304318Y-86455714D02*
X165485746Y-86576666D01*
X165485746Y-86576666D02*
X165606699Y-86697618D01*
X165606699Y-86697618D02*
X165667175Y-86818571D01*
D11*
X190249819Y-64059523D02*
X190964104Y-64059523D01*
X190964104Y-64059523D02*
X191106961Y-64107142D01*
X191106961Y-64107142D02*
X191202200Y-64202380D01*
X191202200Y-64202380D02*
X191249819Y-64345237D01*
X191249819Y-64345237D02*
X191249819Y-64440475D01*
X191249819Y-63059523D02*
X191249819Y-63630951D01*
X191249819Y-63345237D02*
X190249819Y-63345237D01*
X190249819Y-63345237D02*
X190392676Y-63440475D01*
X190392676Y-63440475D02*
X190487914Y-63535713D01*
X190487914Y-63535713D02*
X190535533Y-63630951D01*
X191249819Y-62107142D02*
X191249819Y-62678570D01*
X191249819Y-62392856D02*
X190249819Y-62392856D01*
X190249819Y-62392856D02*
X190392676Y-62488094D01*
X190392676Y-62488094D02*
X190487914Y-62583332D01*
X190487914Y-62583332D02*
X190535533Y-62678570D01*
X174867496Y-80353722D02*
X174867496Y-79353722D01*
X175915114Y-80258483D02*
X175867495Y-80306103D01*
X175867495Y-80306103D02*
X175724638Y-80353722D01*
X175724638Y-80353722D02*
X175629400Y-80353722D01*
X175629400Y-80353722D02*
X175486543Y-80306103D01*
X175486543Y-80306103D02*
X175391305Y-80210864D01*
X175391305Y-80210864D02*
X175343686Y-80115626D01*
X175343686Y-80115626D02*
X175296067Y-79925150D01*
X175296067Y-79925150D02*
X175296067Y-79782293D01*
X175296067Y-79782293D02*
X175343686Y-79591817D01*
X175343686Y-79591817D02*
X175391305Y-79496579D01*
X175391305Y-79496579D02*
X175486543Y-79401341D01*
X175486543Y-79401341D02*
X175629400Y-79353722D01*
X175629400Y-79353722D02*
X175724638Y-79353722D01*
X175724638Y-79353722D02*
X175867495Y-79401341D01*
X175867495Y-79401341D02*
X175915114Y-79448960D01*
X176867495Y-80353722D02*
X176296067Y-80353722D01*
X176581781Y-80353722D02*
X176581781Y-79353722D01*
X176581781Y-79353722D02*
X176486543Y-79496579D01*
X176486543Y-79496579D02*
X176391305Y-79591817D01*
X176391305Y-79591817D02*
X176296067Y-79639436D01*
X172033686Y-61421322D02*
X172033686Y-61659417D01*
X171795591Y-61564179D02*
X172033686Y-61659417D01*
X172033686Y-61659417D02*
X172271781Y-61564179D01*
X171890829Y-61849893D02*
X172033686Y-61659417D01*
X172033686Y-61659417D02*
X172176543Y-61849893D01*
X172033686Y-61421322D02*
X172033686Y-61659417D01*
X171795591Y-61564179D02*
X172033686Y-61659417D01*
X172033686Y-61659417D02*
X172271781Y-61564179D01*
X171890829Y-61849893D02*
X172033686Y-61659417D01*
X172033686Y-61659417D02*
X172176543Y-61849893D01*
D12*
X158220237Y-74574318D02*
X158220237Y-73304318D01*
X159550714Y-74453365D02*
X159490238Y-74513842D01*
X159490238Y-74513842D02*
X159308809Y-74574318D01*
X159308809Y-74574318D02*
X159187857Y-74574318D01*
X159187857Y-74574318D02*
X159006428Y-74513842D01*
X159006428Y-74513842D02*
X158885476Y-74392889D01*
X158885476Y-74392889D02*
X158824999Y-74271937D01*
X158824999Y-74271937D02*
X158764523Y-74030032D01*
X158764523Y-74030032D02*
X158764523Y-73848603D01*
X158764523Y-73848603D02*
X158824999Y-73606699D01*
X158824999Y-73606699D02*
X158885476Y-73485746D01*
X158885476Y-73485746D02*
X159006428Y-73364794D01*
X159006428Y-73364794D02*
X159187857Y-73304318D01*
X159187857Y-73304318D02*
X159308809Y-73304318D01*
X159308809Y-73304318D02*
X159490238Y-73364794D01*
X159490238Y-73364794D02*
X159550714Y-73425270D01*
X160034523Y-73425270D02*
X160094999Y-73364794D01*
X160094999Y-73364794D02*
X160215952Y-73304318D01*
X160215952Y-73304318D02*
X160518333Y-73304318D01*
X160518333Y-73304318D02*
X160639285Y-73364794D01*
X160639285Y-73364794D02*
X160699761Y-73425270D01*
X160699761Y-73425270D02*
X160760238Y-73546222D01*
X160760238Y-73546222D02*
X160760238Y-73667175D01*
X160760238Y-73667175D02*
X160699761Y-73848603D01*
X160699761Y-73848603D02*
X159974047Y-74574318D01*
X159974047Y-74574318D02*
X160760238Y-74574318D01*
X163574318Y-98957381D02*
X162304318Y-98957381D01*
X162304318Y-98957381D02*
X162304318Y-98655000D01*
X162304318Y-98655000D02*
X162364794Y-98473571D01*
X162364794Y-98473571D02*
X162485746Y-98352619D01*
X162485746Y-98352619D02*
X162606699Y-98292142D01*
X162606699Y-98292142D02*
X162848603Y-98231666D01*
X162848603Y-98231666D02*
X163030032Y-98231666D01*
X163030032Y-98231666D02*
X163271937Y-98292142D01*
X163271937Y-98292142D02*
X163392889Y-98352619D01*
X163392889Y-98352619D02*
X163513842Y-98473571D01*
X163513842Y-98473571D02*
X163574318Y-98655000D01*
X163574318Y-98655000D02*
X163574318Y-98957381D01*
X162727651Y-97143095D02*
X163574318Y-97143095D01*
X162243842Y-97445476D02*
X163150984Y-97747857D01*
X163150984Y-97747857D02*
X163150984Y-96961666D01*
D11*
X184083333Y-79681009D02*
X184416666Y-79681009D01*
X184559523Y-80204819D02*
X184083333Y-80204819D01*
X184083333Y-80204819D02*
X184083333Y-79204819D01*
X184083333Y-79204819D02*
X184559523Y-79204819D01*
X185559523Y-80109580D02*
X185511904Y-80157200D01*
X185511904Y-80157200D02*
X185369047Y-80204819D01*
X185369047Y-80204819D02*
X185273809Y-80204819D01*
X185273809Y-80204819D02*
X185130952Y-80157200D01*
X185130952Y-80157200D02*
X185035714Y-80061961D01*
X185035714Y-80061961D02*
X184988095Y-79966723D01*
X184988095Y-79966723D02*
X184940476Y-79776247D01*
X184940476Y-79776247D02*
X184940476Y-79633390D01*
X184940476Y-79633390D02*
X184988095Y-79442914D01*
X184988095Y-79442914D02*
X185035714Y-79347676D01*
X185035714Y-79347676D02*
X185130952Y-79252438D01*
X185130952Y-79252438D02*
X185273809Y-79204819D01*
X185273809Y-79204819D02*
X185369047Y-79204819D01*
X185369047Y-79204819D02*
X185511904Y-79252438D01*
X185511904Y-79252438D02*
X185559523Y-79300057D01*
X186511904Y-80204819D02*
X185940476Y-80204819D01*
X186226190Y-80204819D02*
X186226190Y-79204819D01*
X186226190Y-79204819D02*
X186130952Y-79347676D01*
X186130952Y-79347676D02*
X186035714Y-79442914D01*
X186035714Y-79442914D02*
X185940476Y-79490533D01*
X187464285Y-80204819D02*
X186892857Y-80204819D01*
X187178571Y-80204819D02*
X187178571Y-79204819D01*
X187178571Y-79204819D02*
X187083333Y-79347676D01*
X187083333Y-79347676D02*
X186988095Y-79442914D01*
X186988095Y-79442914D02*
X186892857Y-79490533D01*
X164859580Y-89166666D02*
X164907200Y-89214285D01*
X164907200Y-89214285D02*
X164954819Y-89357142D01*
X164954819Y-89357142D02*
X164954819Y-89452380D01*
X164954819Y-89452380D02*
X164907200Y-89595237D01*
X164907200Y-89595237D02*
X164811961Y-89690475D01*
X164811961Y-89690475D02*
X164716723Y-89738094D01*
X164716723Y-89738094D02*
X164526247Y-89785713D01*
X164526247Y-89785713D02*
X164383390Y-89785713D01*
X164383390Y-89785713D02*
X164192914Y-89738094D01*
X164192914Y-89738094D02*
X164097676Y-89690475D01*
X164097676Y-89690475D02*
X164002438Y-89595237D01*
X164002438Y-89595237D02*
X163954819Y-89452380D01*
X163954819Y-89452380D02*
X163954819Y-89357142D01*
X163954819Y-89357142D02*
X164002438Y-89214285D01*
X164002438Y-89214285D02*
X164050057Y-89166666D01*
X164383390Y-88595237D02*
X164335771Y-88690475D01*
X164335771Y-88690475D02*
X164288152Y-88738094D01*
X164288152Y-88738094D02*
X164192914Y-88785713D01*
X164192914Y-88785713D02*
X164145295Y-88785713D01*
X164145295Y-88785713D02*
X164050057Y-88738094D01*
X164050057Y-88738094D02*
X164002438Y-88690475D01*
X164002438Y-88690475D02*
X163954819Y-88595237D01*
X163954819Y-88595237D02*
X163954819Y-88404761D01*
X163954819Y-88404761D02*
X164002438Y-88309523D01*
X164002438Y-88309523D02*
X164050057Y-88261904D01*
X164050057Y-88261904D02*
X164145295Y-88214285D01*
X164145295Y-88214285D02*
X164192914Y-88214285D01*
X164192914Y-88214285D02*
X164288152Y-88261904D01*
X164288152Y-88261904D02*
X164335771Y-88309523D01*
X164335771Y-88309523D02*
X164383390Y-88404761D01*
X164383390Y-88404761D02*
X164383390Y-88595237D01*
X164383390Y-88595237D02*
X164431009Y-88690475D01*
X164431009Y-88690475D02*
X164478628Y-88738094D01*
X164478628Y-88738094D02*
X164573866Y-88785713D01*
X164573866Y-88785713D02*
X164764342Y-88785713D01*
X164764342Y-88785713D02*
X164859580Y-88738094D01*
X164859580Y-88738094D02*
X164907200Y-88690475D01*
X164907200Y-88690475D02*
X164954819Y-88595237D01*
X164954819Y-88595237D02*
X164954819Y-88404761D01*
X164954819Y-88404761D02*
X164907200Y-88309523D01*
X164907200Y-88309523D02*
X164859580Y-88261904D01*
X164859580Y-88261904D02*
X164764342Y-88214285D01*
X164764342Y-88214285D02*
X164573866Y-88214285D01*
X164573866Y-88214285D02*
X164478628Y-88261904D01*
X164478628Y-88261904D02*
X164431009Y-88309523D01*
X164431009Y-88309523D02*
X164383390Y-88404761D01*
X190264819Y-67784523D02*
X190979104Y-67784523D01*
X190979104Y-67784523D02*
X191121961Y-67832142D01*
X191121961Y-67832142D02*
X191217200Y-67927380D01*
X191217200Y-67927380D02*
X191264819Y-68070237D01*
X191264819Y-68070237D02*
X191264819Y-68165475D01*
X191264819Y-66784523D02*
X191264819Y-67355951D01*
X191264819Y-67070237D02*
X190264819Y-67070237D01*
X190264819Y-67070237D02*
X190407676Y-67165475D01*
X190407676Y-67165475D02*
X190502914Y-67260713D01*
X190502914Y-67260713D02*
X190550533Y-67355951D01*
X190264819Y-66165475D02*
X190264819Y-66070237D01*
X190264819Y-66070237D02*
X190312438Y-65974999D01*
X190312438Y-65974999D02*
X190360057Y-65927380D01*
X190360057Y-65927380D02*
X190455295Y-65879761D01*
X190455295Y-65879761D02*
X190645771Y-65832142D01*
X190645771Y-65832142D02*
X190883866Y-65832142D01*
X190883866Y-65832142D02*
X191074342Y-65879761D01*
X191074342Y-65879761D02*
X191169580Y-65927380D01*
X191169580Y-65927380D02*
X191217200Y-65974999D01*
X191217200Y-65974999D02*
X191264819Y-66070237D01*
X191264819Y-66070237D02*
X191264819Y-66165475D01*
X191264819Y-66165475D02*
X191217200Y-66260713D01*
X191217200Y-66260713D02*
X191169580Y-66308332D01*
X191169580Y-66308332D02*
X191074342Y-66355951D01*
X191074342Y-66355951D02*
X190883866Y-66403570D01*
X190883866Y-66403570D02*
X190645771Y-66403570D01*
X190645771Y-66403570D02*
X190455295Y-66355951D01*
X190455295Y-66355951D02*
X190360057Y-66308332D01*
X190360057Y-66308332D02*
X190312438Y-66260713D01*
X190312438Y-66260713D02*
X190264819Y-66165475D01*
X143704819Y-73506666D02*
X143228628Y-73839999D01*
X143704819Y-74078094D02*
X142704819Y-74078094D01*
X142704819Y-74078094D02*
X142704819Y-73697142D01*
X142704819Y-73697142D02*
X142752438Y-73601904D01*
X142752438Y-73601904D02*
X142800057Y-73554285D01*
X142800057Y-73554285D02*
X142895295Y-73506666D01*
X142895295Y-73506666D02*
X143038152Y-73506666D01*
X143038152Y-73506666D02*
X143133390Y-73554285D01*
X143133390Y-73554285D02*
X143181009Y-73601904D01*
X143181009Y-73601904D02*
X143228628Y-73697142D01*
X143228628Y-73697142D02*
X143228628Y-74078094D01*
X143704819Y-72554285D02*
X143704819Y-73125713D01*
X143704819Y-72839999D02*
X142704819Y-72839999D01*
X142704819Y-72839999D02*
X142847676Y-72935237D01*
X142847676Y-72935237D02*
X142942914Y-73030475D01*
X142942914Y-73030475D02*
X142990533Y-73125713D01*
X187204819Y-105812857D02*
X186728628Y-106146190D01*
X187204819Y-106384285D02*
X186204819Y-106384285D01*
X186204819Y-106384285D02*
X186204819Y-106003333D01*
X186204819Y-106003333D02*
X186252438Y-105908095D01*
X186252438Y-105908095D02*
X186300057Y-105860476D01*
X186300057Y-105860476D02*
X186395295Y-105812857D01*
X186395295Y-105812857D02*
X186538152Y-105812857D01*
X186538152Y-105812857D02*
X186633390Y-105860476D01*
X186633390Y-105860476D02*
X186681009Y-105908095D01*
X186681009Y-105908095D02*
X186728628Y-106003333D01*
X186728628Y-106003333D02*
X186728628Y-106384285D01*
X186300057Y-105431904D02*
X186252438Y-105384285D01*
X186252438Y-105384285D02*
X186204819Y-105289047D01*
X186204819Y-105289047D02*
X186204819Y-105050952D01*
X186204819Y-105050952D02*
X186252438Y-104955714D01*
X186252438Y-104955714D02*
X186300057Y-104908095D01*
X186300057Y-104908095D02*
X186395295Y-104860476D01*
X186395295Y-104860476D02*
X186490533Y-104860476D01*
X186490533Y-104860476D02*
X186633390Y-104908095D01*
X186633390Y-104908095D02*
X187204819Y-105479523D01*
X187204819Y-105479523D02*
X187204819Y-104860476D01*
X186300057Y-104479523D02*
X186252438Y-104431904D01*
X186252438Y-104431904D02*
X186204819Y-104336666D01*
X186204819Y-104336666D02*
X186204819Y-104098571D01*
X186204819Y-104098571D02*
X186252438Y-104003333D01*
X186252438Y-104003333D02*
X186300057Y-103955714D01*
X186300057Y-103955714D02*
X186395295Y-103908095D01*
X186395295Y-103908095D02*
X186490533Y-103908095D01*
X186490533Y-103908095D02*
X186633390Y-103955714D01*
X186633390Y-103955714D02*
X187204819Y-104527142D01*
X187204819Y-104527142D02*
X187204819Y-103908095D01*
X135488095Y-115004819D02*
X135488095Y-114004819D01*
X135488095Y-114481009D02*
X136059523Y-114481009D01*
X136059523Y-115004819D02*
X136059523Y-114004819D01*
X136440476Y-114004819D02*
X137059523Y-114004819D01*
X137059523Y-114004819D02*
X136726190Y-114385771D01*
X136726190Y-114385771D02*
X136869047Y-114385771D01*
X136869047Y-114385771D02*
X136964285Y-114433390D01*
X136964285Y-114433390D02*
X137011904Y-114481009D01*
X137011904Y-114481009D02*
X137059523Y-114576247D01*
X137059523Y-114576247D02*
X137059523Y-114814342D01*
X137059523Y-114814342D02*
X137011904Y-114909580D01*
X137011904Y-114909580D02*
X136964285Y-114957200D01*
X136964285Y-114957200D02*
X136869047Y-115004819D01*
X136869047Y-115004819D02*
X136583333Y-115004819D01*
X136583333Y-115004819D02*
X136488095Y-114957200D01*
X136488095Y-114957200D02*
X136440476Y-114909580D01*
X183163333Y-121574819D02*
X182830000Y-121098628D01*
X182591905Y-121574819D02*
X182591905Y-120574819D01*
X182591905Y-120574819D02*
X182972857Y-120574819D01*
X182972857Y-120574819D02*
X183068095Y-120622438D01*
X183068095Y-120622438D02*
X183115714Y-120670057D01*
X183115714Y-120670057D02*
X183163333Y-120765295D01*
X183163333Y-120765295D02*
X183163333Y-120908152D01*
X183163333Y-120908152D02*
X183115714Y-121003390D01*
X183115714Y-121003390D02*
X183068095Y-121051009D01*
X183068095Y-121051009D02*
X182972857Y-121098628D01*
X182972857Y-121098628D02*
X182591905Y-121098628D01*
X184020476Y-120574819D02*
X183830000Y-120574819D01*
X183830000Y-120574819D02*
X183734762Y-120622438D01*
X183734762Y-120622438D02*
X183687143Y-120670057D01*
X183687143Y-120670057D02*
X183591905Y-120812914D01*
X183591905Y-120812914D02*
X183544286Y-121003390D01*
X183544286Y-121003390D02*
X183544286Y-121384342D01*
X183544286Y-121384342D02*
X183591905Y-121479580D01*
X183591905Y-121479580D02*
X183639524Y-121527200D01*
X183639524Y-121527200D02*
X183734762Y-121574819D01*
X183734762Y-121574819D02*
X183925238Y-121574819D01*
X183925238Y-121574819D02*
X184020476Y-121527200D01*
X184020476Y-121527200D02*
X184068095Y-121479580D01*
X184068095Y-121479580D02*
X184115714Y-121384342D01*
X184115714Y-121384342D02*
X184115714Y-121146247D01*
X184115714Y-121146247D02*
X184068095Y-121051009D01*
X184068095Y-121051009D02*
X184020476Y-121003390D01*
X184020476Y-121003390D02*
X183925238Y-120955771D01*
X183925238Y-120955771D02*
X183734762Y-120955771D01*
X183734762Y-120955771D02*
X183639524Y-121003390D01*
X183639524Y-121003390D02*
X183591905Y-121051009D01*
X183591905Y-121051009D02*
X183544286Y-121146247D01*
X190264819Y-71058333D02*
X190979104Y-71058333D01*
X190979104Y-71058333D02*
X191121961Y-71105952D01*
X191121961Y-71105952D02*
X191217200Y-71201190D01*
X191217200Y-71201190D02*
X191264819Y-71344047D01*
X191264819Y-71344047D02*
X191264819Y-71439285D01*
X191264819Y-70534523D02*
X191264819Y-70344047D01*
X191264819Y-70344047D02*
X191217200Y-70248809D01*
X191217200Y-70248809D02*
X191169580Y-70201190D01*
X191169580Y-70201190D02*
X191026723Y-70105952D01*
X191026723Y-70105952D02*
X190836247Y-70058333D01*
X190836247Y-70058333D02*
X190455295Y-70058333D01*
X190455295Y-70058333D02*
X190360057Y-70105952D01*
X190360057Y-70105952D02*
X190312438Y-70153571D01*
X190312438Y-70153571D02*
X190264819Y-70248809D01*
X190264819Y-70248809D02*
X190264819Y-70439285D01*
X190264819Y-70439285D02*
X190312438Y-70534523D01*
X190312438Y-70534523D02*
X190360057Y-70582142D01*
X190360057Y-70582142D02*
X190455295Y-70629761D01*
X190455295Y-70629761D02*
X190693390Y-70629761D01*
X190693390Y-70629761D02*
X190788628Y-70582142D01*
X190788628Y-70582142D02*
X190836247Y-70534523D01*
X190836247Y-70534523D02*
X190883866Y-70439285D01*
X190883866Y-70439285D02*
X190883866Y-70248809D01*
X190883866Y-70248809D02*
X190836247Y-70153571D01*
X190836247Y-70153571D02*
X190788628Y-70105952D01*
X190788628Y-70105952D02*
X190693390Y-70058333D01*
X194246666Y-95704819D02*
X194246666Y-96419104D01*
X194246666Y-96419104D02*
X194199047Y-96561961D01*
X194199047Y-96561961D02*
X194103809Y-96657200D01*
X194103809Y-96657200D02*
X193960952Y-96704819D01*
X193960952Y-96704819D02*
X193865714Y-96704819D01*
X194675238Y-95800057D02*
X194722857Y-95752438D01*
X194722857Y-95752438D02*
X194818095Y-95704819D01*
X194818095Y-95704819D02*
X195056190Y-95704819D01*
X195056190Y-95704819D02*
X195151428Y-95752438D01*
X195151428Y-95752438D02*
X195199047Y-95800057D01*
X195199047Y-95800057D02*
X195246666Y-95895295D01*
X195246666Y-95895295D02*
X195246666Y-95990533D01*
X195246666Y-95990533D02*
X195199047Y-96133390D01*
X195199047Y-96133390D02*
X194627619Y-96704819D01*
X194627619Y-96704819D02*
X195246666Y-96704819D01*
D13*
%TO.C,C19*%
X151980000Y-113455000D02*
X151980000Y-112830000D01*
X151980000Y-115670000D02*
X151980000Y-115045000D01*
X156020000Y-112830000D02*
X151980000Y-112830000D01*
X156020000Y-113455000D02*
X156020000Y-112830000D01*
X156020000Y-115670000D02*
X151980000Y-115670000D01*
X156020000Y-115670000D02*
X156020000Y-115045000D01*
%TO.C,EC17*%
X148669000Y-90033000D02*
X148669000Y-88967000D01*
X148709000Y-90268000D02*
X148709000Y-88732000D01*
X148749000Y-90448000D02*
X148749000Y-88552000D01*
X148789000Y-90598000D02*
X148789000Y-88402000D01*
X148829000Y-90729000D02*
X148829000Y-88271000D01*
X148869000Y-90846000D02*
X148869000Y-88154000D01*
X148909000Y-90953000D02*
X148909000Y-88047000D01*
X148949000Y-91052000D02*
X148949000Y-87948000D01*
X148989000Y-91145000D02*
X148989000Y-87855000D01*
X149029000Y-91231000D02*
X149029000Y-87769000D01*
X149069000Y-91313000D02*
X149069000Y-87687000D01*
X149109000Y-91390000D02*
X149109000Y-87610000D01*
X149149000Y-91464000D02*
X149149000Y-87536000D01*
X149189000Y-91534000D02*
X149189000Y-87466000D01*
X149229000Y-91602000D02*
X149229000Y-87398000D01*
X149269000Y-91666000D02*
X149269000Y-87334000D01*
X149309000Y-91728000D02*
X149309000Y-87272000D01*
X149349000Y-91787000D02*
X149349000Y-87213000D01*
X149389000Y-91845000D02*
X149389000Y-87155000D01*
X149429000Y-91900000D02*
X149429000Y-87100000D01*
X149469000Y-91954000D02*
X149469000Y-87046000D01*
X149509000Y-92005000D02*
X149509000Y-86995000D01*
X149549000Y-92056000D02*
X149549000Y-86944000D01*
X149589000Y-92104000D02*
X149589000Y-86896000D01*
X149629000Y-92151000D02*
X149629000Y-86849000D01*
X149669000Y-92197000D02*
X149669000Y-86803000D01*
X149709000Y-92241000D02*
X149709000Y-86759000D01*
X149749000Y-92284000D02*
X149749000Y-86716000D01*
X149789000Y-92326000D02*
X149789000Y-86674000D01*
X149829000Y-92367000D02*
X149829000Y-86633000D01*
X149869000Y-92407000D02*
X149869000Y-86593000D01*
X149909000Y-92445000D02*
X149909000Y-86555000D01*
X149949000Y-92483000D02*
X149949000Y-86517000D01*
X149989000Y-88460000D02*
X149989000Y-86481000D01*
X149989000Y-92519000D02*
X149989000Y-90540000D01*
X150029000Y-88460000D02*
X150029000Y-86445000D01*
X150029000Y-92555000D02*
X150029000Y-90540000D01*
X150069000Y-88460000D02*
X150069000Y-86410000D01*
X150069000Y-92590000D02*
X150069000Y-90540000D01*
X150109000Y-88460000D02*
X150109000Y-86376000D01*
X150109000Y-92624000D02*
X150109000Y-90540000D01*
X150149000Y-88460000D02*
X150149000Y-86344000D01*
X150149000Y-92656000D02*
X150149000Y-90540000D01*
X150189000Y-88460000D02*
X150189000Y-86311000D01*
X150189000Y-92689000D02*
X150189000Y-90540000D01*
X150229000Y-88460000D02*
X150229000Y-86280000D01*
X150229000Y-92720000D02*
X150229000Y-90540000D01*
X150269000Y-88460000D02*
X150269000Y-86250000D01*
X150269000Y-92750000D02*
X150269000Y-90540000D01*
X150309000Y-88460000D02*
X150309000Y-86220000D01*
X150309000Y-92780000D02*
X150309000Y-90540000D01*
X150349000Y-88460000D02*
X150349000Y-86191000D01*
X150349000Y-92809000D02*
X150349000Y-90540000D01*
X150389000Y-88460000D02*
X150389000Y-86162000D01*
X150389000Y-92838000D02*
X150389000Y-90540000D01*
X150429000Y-88460000D02*
X150429000Y-86135000D01*
X150429000Y-92865000D02*
X150429000Y-90540000D01*
X150469000Y-88460000D02*
X150469000Y-86108000D01*
X150469000Y-92892000D02*
X150469000Y-90540000D01*
X150509000Y-88460000D02*
X150509000Y-86082000D01*
X150509000Y-92918000D02*
X150509000Y-90540000D01*
X150549000Y-88460000D02*
X150549000Y-86056000D01*
X150549000Y-92944000D02*
X150549000Y-90540000D01*
X150589000Y-88460000D02*
X150589000Y-86031000D01*
X150589000Y-92969000D02*
X150589000Y-90540000D01*
X150629000Y-88460000D02*
X150629000Y-86007000D01*
X150629000Y-92993000D02*
X150629000Y-90540000D01*
X150669000Y-88460000D02*
X150669000Y-85983000D01*
X150669000Y-93017000D02*
X150669000Y-90540000D01*
X150709000Y-88460000D02*
X150709000Y-85960000D01*
X150709000Y-93040000D02*
X150709000Y-90540000D01*
X150749000Y-88460000D02*
X150749000Y-85938000D01*
X150749000Y-93062000D02*
X150749000Y-90540000D01*
X150789000Y-88460000D02*
X150789000Y-85916000D01*
X150789000Y-93084000D02*
X150789000Y-90540000D01*
X150829000Y-88460000D02*
X150829000Y-85894000D01*
X150829000Y-93106000D02*
X150829000Y-90540000D01*
X150869000Y-88460000D02*
X150869000Y-85873000D01*
X150869000Y-93127000D02*
X150869000Y-90540000D01*
X150909000Y-88460000D02*
X150909000Y-85853000D01*
X150909000Y-93147000D02*
X150909000Y-90540000D01*
X150949000Y-88460000D02*
X150949000Y-85834000D01*
X150949000Y-93166000D02*
X150949000Y-90540000D01*
X150989000Y-88460000D02*
X150989000Y-85814000D01*
X150989000Y-93186000D02*
X150989000Y-90540000D01*
X151029000Y-88460000D02*
X151029000Y-85796000D01*
X151029000Y-93204000D02*
X151029000Y-90540000D01*
X151069000Y-88460000D02*
X151069000Y-85778000D01*
X151069000Y-93222000D02*
X151069000Y-90540000D01*
X151109000Y-88460000D02*
X151109000Y-85760000D01*
X151109000Y-93240000D02*
X151109000Y-90540000D01*
X151149000Y-88460000D02*
X151149000Y-85743000D01*
X151149000Y-93257000D02*
X151149000Y-90540000D01*
X151189000Y-88460000D02*
X151189000Y-85726000D01*
X151189000Y-93274000D02*
X151189000Y-90540000D01*
X151229000Y-88460000D02*
X151229000Y-85710000D01*
X151229000Y-93290000D02*
X151229000Y-90540000D01*
X151269000Y-88460000D02*
X151269000Y-85695000D01*
X151269000Y-93305000D02*
X151269000Y-90540000D01*
X151309000Y-88460000D02*
X151309000Y-85679000D01*
X151309000Y-93321000D02*
X151309000Y-90540000D01*
X151349000Y-88460000D02*
X151349000Y-85665000D01*
X151349000Y-93335000D02*
X151349000Y-90540000D01*
X151389000Y-88460000D02*
X151389000Y-85650000D01*
X151389000Y-93350000D02*
X151389000Y-90540000D01*
X151429000Y-88460000D02*
X151429000Y-85637000D01*
X151429000Y-93363000D02*
X151429000Y-90540000D01*
X151469000Y-88460000D02*
X151469000Y-85623000D01*
X151469000Y-93377000D02*
X151469000Y-90540000D01*
X151509000Y-88460000D02*
X151509000Y-85611000D01*
X151509000Y-93389000D02*
X151509000Y-90540000D01*
X151549000Y-88460000D02*
X151549000Y-85598000D01*
X151549000Y-93402000D02*
X151549000Y-90540000D01*
X151589000Y-88460000D02*
X151589000Y-85586000D01*
X151589000Y-93414000D02*
X151589000Y-90540000D01*
X151629000Y-88460000D02*
X151629000Y-85575000D01*
X151629000Y-93425000D02*
X151629000Y-90540000D01*
X151669000Y-88460000D02*
X151669000Y-85564000D01*
X151669000Y-93436000D02*
X151669000Y-90540000D01*
X151709000Y-88460000D02*
X151709000Y-85553000D01*
X151709000Y-93447000D02*
X151709000Y-90540000D01*
X151749000Y-88460000D02*
X151749000Y-85543000D01*
X151749000Y-93457000D02*
X151749000Y-90540000D01*
X151789000Y-88460000D02*
X151789000Y-85533000D01*
X151789000Y-93467000D02*
X151789000Y-90540000D01*
X151829000Y-88460000D02*
X151829000Y-85524000D01*
X151829000Y-93476000D02*
X151829000Y-90540000D01*
X151869000Y-88460000D02*
X151869000Y-85515000D01*
X151869000Y-93485000D02*
X151869000Y-90540000D01*
X151909000Y-88460000D02*
X151909000Y-85506000D01*
X151909000Y-93494000D02*
X151909000Y-90540000D01*
X151949000Y-88460000D02*
X151949000Y-85498000D01*
X151949000Y-93502000D02*
X151949000Y-90540000D01*
X151989000Y-88460000D02*
X151989000Y-85490000D01*
X151989000Y-93510000D02*
X151989000Y-90540000D01*
X152029000Y-88460000D02*
X152029000Y-85483000D01*
X152029000Y-93517000D02*
X152029000Y-90540000D01*
X152070000Y-93524000D02*
X152070000Y-85476000D01*
X152110000Y-93530000D02*
X152110000Y-85470000D01*
X152150000Y-93537000D02*
X152150000Y-85463000D01*
X152190000Y-93542000D02*
X152190000Y-85458000D01*
X152230000Y-93548000D02*
X152230000Y-85452000D01*
X152270000Y-93552000D02*
X152270000Y-85448000D01*
X152310000Y-93557000D02*
X152310000Y-85443000D01*
X152350000Y-93561000D02*
X152350000Y-85439000D01*
X152390000Y-93565000D02*
X152390000Y-85435000D01*
X152430000Y-93568000D02*
X152430000Y-85432000D01*
X152470000Y-93571000D02*
X152470000Y-85429000D01*
X152510000Y-93574000D02*
X152510000Y-85426000D01*
X152550000Y-93576000D02*
X152550000Y-85424000D01*
X152590000Y-93577000D02*
X152590000Y-85423000D01*
X152630000Y-93579000D02*
X152630000Y-85421000D01*
X152670000Y-93580000D02*
X152670000Y-85420000D01*
X152710000Y-93580000D02*
X152710000Y-85420000D01*
X152750000Y-93580000D02*
X152750000Y-85420000D01*
X156759698Y-92215000D02*
X156759698Y-91415000D01*
X157159698Y-91815000D02*
X156359698Y-91815000D01*
X156870000Y-89500000D02*
G75*
G02*
X148630000Y-89500000I-4120000J0D01*
G01*
X148630000Y-89500000D02*
G75*
G02*
X156870000Y-89500000I4120000J0D01*
G01*
%TO.C,J7*%
X181615000Y-76920000D02*
X181615000Y-79580000D01*
X186755000Y-76920000D02*
X181615000Y-76920000D01*
X186755000Y-76920000D02*
X186755000Y-79580000D01*
X186755000Y-79580000D02*
X181615000Y-79580000D01*
X189355000Y-78250000D02*
X189355000Y-79580000D01*
X189355000Y-79580000D02*
X188025000Y-79580000D01*
D10*
%TO.C,D2*%
X145050000Y-98770000D02*
X145050000Y-98770000D01*
X149500000Y-101270000D02*
X146500000Y-101270000D01*
X150950000Y-98770000D02*
X150950000Y-98770000D01*
X145050000Y-98770000D02*
G75*
G02*
X150950000Y-98770000I2950000J0D01*
G01*
X150950000Y-98770000D02*
G75*
G02*
X145050000Y-98770000I-2950000J0D01*
G01*
D14*
%TO.C,D9*%
X151180800Y-119865000D02*
X151180800Y-121135000D01*
X151180800Y-120500000D02*
X151942800Y-119865000D01*
X151180800Y-120500000D02*
X151942800Y-119992000D01*
X151180800Y-120500000D02*
X151942800Y-120119000D01*
X151180800Y-120500000D02*
X151942800Y-120246000D01*
X151180800Y-120500000D02*
X151942800Y-120373000D01*
X151180800Y-120500000D02*
X151942800Y-120627000D01*
X151180800Y-120500000D02*
X151942800Y-120754000D01*
X151180800Y-120500000D02*
X151942800Y-120881000D01*
X151180800Y-120500000D02*
X151942800Y-121008000D01*
X151180800Y-120500000D02*
X151942800Y-121135000D01*
X151942800Y-119865000D02*
X151942800Y-121135000D01*
X152196800Y-120500000D02*
X150926800Y-120500000D01*
X156718000Y-119014100D02*
X156718000Y-121985900D01*
X156718000Y-121985900D02*
X162179000Y-121985900D01*
X162179000Y-119014100D02*
X156718000Y-119014100D01*
X162179000Y-121985900D02*
X162179000Y-119014100D01*
D13*
%TO.C,R2*%
X135880000Y-86400000D02*
X135880000Y-92940000D01*
X135880000Y-92940000D02*
X138620000Y-92940000D01*
X137250000Y-85630000D02*
X137250000Y-86400000D01*
X137250000Y-93710000D02*
X137250000Y-92940000D01*
X138620000Y-86400000D02*
X135880000Y-86400000D01*
X138620000Y-92940000D02*
X138620000Y-86400000D01*
D14*
%TO.C,U3*%
X172496700Y-117073600D02*
X172496700Y-118163260D01*
X172496700Y-119336740D02*
X172496700Y-120426400D01*
X172496700Y-120426400D02*
X174503300Y-120426400D01*
X174503300Y-117073600D02*
X172496700Y-117073600D01*
X174503300Y-119113261D02*
X174503300Y-118386739D01*
D13*
%TO.C,R4*%
X169630000Y-101810000D02*
X169630000Y-108350000D01*
X169630000Y-108350000D02*
X172370000Y-108350000D01*
X171000000Y-101040000D02*
X171000000Y-101810000D01*
X171000000Y-109120000D02*
X171000000Y-108350000D01*
X172370000Y-101810000D02*
X169630000Y-101810000D01*
X172370000Y-108350000D02*
X172370000Y-101810000D01*
D14*
%TO.C,D8*%
X151180800Y-116615000D02*
X151180800Y-117885000D01*
X151180800Y-117250000D02*
X151942800Y-116615000D01*
X151180800Y-117250000D02*
X151942800Y-116742000D01*
X151180800Y-117250000D02*
X151942800Y-116869000D01*
X151180800Y-117250000D02*
X151942800Y-116996000D01*
X151180800Y-117250000D02*
X151942800Y-117123000D01*
X151180800Y-117250000D02*
X151942800Y-117377000D01*
X151180800Y-117250000D02*
X151942800Y-117504000D01*
X151180800Y-117250000D02*
X151942800Y-117631000D01*
X151180800Y-117250000D02*
X151942800Y-117758000D01*
X151180800Y-117250000D02*
X151942800Y-117885000D01*
X151942800Y-116615000D02*
X151942800Y-117885000D01*
X152196800Y-117250000D02*
X150926800Y-117250000D01*
X156718000Y-115764100D02*
X156718000Y-118735900D01*
X156718000Y-118735900D02*
X162179000Y-118735900D01*
X162179000Y-115764100D02*
X156718000Y-115764100D01*
X162179000Y-118735900D02*
X162179000Y-115764100D01*
D13*
%TO.C,TP6*%
X149550000Y-82300000D02*
X150950000Y-82300000D01*
X149550000Y-83700000D02*
X149550000Y-82300000D01*
X150950000Y-82300000D02*
X150950000Y-83700000D01*
X150950000Y-83700000D02*
X149550000Y-83700000D01*
%TO.C,C2*%
X155080000Y-73730000D02*
X155705000Y-73730000D01*
X155080000Y-77770000D02*
X155080000Y-73730000D01*
X155080000Y-77770000D02*
X155705000Y-77770000D01*
X157295000Y-73730000D02*
X157920000Y-73730000D01*
X157295000Y-77770000D02*
X157920000Y-77770000D01*
X157920000Y-77770000D02*
X157920000Y-73730000D01*
%TO.C,EC20*%
X152210000Y-108721000D02*
X149233000Y-108721000D01*
X152210000Y-108761000D02*
X149240000Y-108761000D01*
X152210000Y-108801000D02*
X149248000Y-108801000D01*
X152210000Y-108841000D02*
X149256000Y-108841000D01*
X152210000Y-108881000D02*
X149265000Y-108881000D01*
X152210000Y-108921000D02*
X149274000Y-108921000D01*
X152210000Y-108961000D02*
X149283000Y-108961000D01*
X152210000Y-109001000D02*
X149293000Y-109001000D01*
X152210000Y-109041000D02*
X149303000Y-109041000D01*
X152210000Y-109081000D02*
X149314000Y-109081000D01*
X152210000Y-109121000D02*
X149325000Y-109121000D01*
X152210000Y-109161000D02*
X149336000Y-109161000D01*
X152210000Y-109201000D02*
X149348000Y-109201000D01*
X152210000Y-109241000D02*
X149361000Y-109241000D01*
X152210000Y-109281000D02*
X149373000Y-109281000D01*
X152210000Y-109321000D02*
X149387000Y-109321000D01*
X152210000Y-109361000D02*
X149400000Y-109361000D01*
X152210000Y-109401000D02*
X149415000Y-109401000D01*
X152210000Y-109441000D02*
X149429000Y-109441000D01*
X152210000Y-109481000D02*
X149445000Y-109481000D01*
X152210000Y-109521000D02*
X149460000Y-109521000D01*
X152210000Y-109561000D02*
X149476000Y-109561000D01*
X152210000Y-109601000D02*
X149493000Y-109601000D01*
X152210000Y-109641000D02*
X149510000Y-109641000D01*
X152210000Y-109681000D02*
X149528000Y-109681000D01*
X152210000Y-109721000D02*
X149546000Y-109721000D01*
X152210000Y-109761000D02*
X149564000Y-109761000D01*
X152210000Y-109801000D02*
X149584000Y-109801000D01*
X152210000Y-109841000D02*
X149603000Y-109841000D01*
X152210000Y-109881000D02*
X149623000Y-109881000D01*
X152210000Y-109921000D02*
X149644000Y-109921000D01*
X152210000Y-109961000D02*
X149666000Y-109961000D01*
X152210000Y-110001000D02*
X149688000Y-110001000D01*
X152210000Y-110041000D02*
X149710000Y-110041000D01*
X152210000Y-110081000D02*
X149733000Y-110081000D01*
X152210000Y-110121000D02*
X149757000Y-110121000D01*
X152210000Y-110161000D02*
X149781000Y-110161000D01*
X152210000Y-110201000D02*
X149806000Y-110201000D01*
X152210000Y-110241000D02*
X149832000Y-110241000D01*
X152210000Y-110281000D02*
X149858000Y-110281000D01*
X152210000Y-110321000D02*
X149885000Y-110321000D01*
X152210000Y-110361000D02*
X149912000Y-110361000D01*
X152210000Y-110401000D02*
X149941000Y-110401000D01*
X152210000Y-110441000D02*
X149970000Y-110441000D01*
X152210000Y-110481000D02*
X150000000Y-110481000D01*
X152210000Y-110521000D02*
X150030000Y-110521000D01*
X152210000Y-110561000D02*
X150061000Y-110561000D01*
X152210000Y-110601000D02*
X150094000Y-110601000D01*
X152210000Y-110641000D02*
X150126000Y-110641000D01*
X152210000Y-110681000D02*
X150160000Y-110681000D01*
X152210000Y-110721000D02*
X150195000Y-110721000D01*
X152210000Y-110761000D02*
X150231000Y-110761000D01*
X153783000Y-112081000D02*
X152717000Y-112081000D01*
X154018000Y-112041000D02*
X152482000Y-112041000D01*
X154198000Y-112001000D02*
X152302000Y-112001000D01*
X154348000Y-111961000D02*
X152152000Y-111961000D01*
X154479000Y-111921000D02*
X152021000Y-111921000D01*
X154596000Y-111881000D02*
X151904000Y-111881000D01*
X154703000Y-111841000D02*
X151797000Y-111841000D01*
X154802000Y-111801000D02*
X151698000Y-111801000D01*
X154895000Y-111761000D02*
X151605000Y-111761000D01*
X154981000Y-111721000D02*
X151519000Y-111721000D01*
X155063000Y-111681000D02*
X151437000Y-111681000D01*
X155140000Y-111641000D02*
X151360000Y-111641000D01*
X155214000Y-111601000D02*
X151286000Y-111601000D01*
X155284000Y-111561000D02*
X151216000Y-111561000D01*
X155352000Y-111521000D02*
X151148000Y-111521000D01*
X155416000Y-111481000D02*
X151084000Y-111481000D01*
X155478000Y-111441000D02*
X151022000Y-111441000D01*
X155537000Y-111401000D02*
X150963000Y-111401000D01*
X155565000Y-103590302D02*
X155565000Y-104390302D01*
X155595000Y-111361000D02*
X150905000Y-111361000D01*
X155650000Y-111321000D02*
X150850000Y-111321000D01*
X155704000Y-111281000D02*
X150796000Y-111281000D01*
X155755000Y-111241000D02*
X150745000Y-111241000D01*
X155806000Y-111201000D02*
X150694000Y-111201000D01*
X155854000Y-111161000D02*
X150646000Y-111161000D01*
X155901000Y-111121000D02*
X150599000Y-111121000D01*
X155947000Y-111081000D02*
X150553000Y-111081000D01*
X155965000Y-103990302D02*
X155165000Y-103990302D01*
X155991000Y-111041000D02*
X150509000Y-111041000D01*
X156034000Y-111001000D02*
X150466000Y-111001000D01*
X156076000Y-110961000D02*
X150424000Y-110961000D01*
X156117000Y-110921000D02*
X150383000Y-110921000D01*
X156157000Y-110881000D02*
X150343000Y-110881000D01*
X156195000Y-110841000D02*
X150305000Y-110841000D01*
X156233000Y-110801000D02*
X150267000Y-110801000D01*
X156269000Y-110761000D02*
X154290000Y-110761000D01*
X156305000Y-110721000D02*
X154290000Y-110721000D01*
X156340000Y-110681000D02*
X154290000Y-110681000D01*
X156374000Y-110641000D02*
X154290000Y-110641000D01*
X156406000Y-110601000D02*
X154290000Y-110601000D01*
X156439000Y-110561000D02*
X154290000Y-110561000D01*
X156470000Y-110521000D02*
X154290000Y-110521000D01*
X156500000Y-110481000D02*
X154290000Y-110481000D01*
X156530000Y-110441000D02*
X154290000Y-110441000D01*
X156559000Y-110401000D02*
X154290000Y-110401000D01*
X156588000Y-110361000D02*
X154290000Y-110361000D01*
X156615000Y-110321000D02*
X154290000Y-110321000D01*
X156642000Y-110281000D02*
X154290000Y-110281000D01*
X156668000Y-110241000D02*
X154290000Y-110241000D01*
X156694000Y-110201000D02*
X154290000Y-110201000D01*
X156719000Y-110161000D02*
X154290000Y-110161000D01*
X156743000Y-110121000D02*
X154290000Y-110121000D01*
X156767000Y-110081000D02*
X154290000Y-110081000D01*
X156790000Y-110041000D02*
X154290000Y-110041000D01*
X156812000Y-110001000D02*
X154290000Y-110001000D01*
X156834000Y-109961000D02*
X154290000Y-109961000D01*
X156856000Y-109921000D02*
X154290000Y-109921000D01*
X156877000Y-109881000D02*
X154290000Y-109881000D01*
X156897000Y-109841000D02*
X154290000Y-109841000D01*
X156916000Y-109801000D02*
X154290000Y-109801000D01*
X156936000Y-109761000D02*
X154290000Y-109761000D01*
X156954000Y-109721000D02*
X154290000Y-109721000D01*
X156972000Y-109681000D02*
X154290000Y-109681000D01*
X156990000Y-109641000D02*
X154290000Y-109641000D01*
X157007000Y-109601000D02*
X154290000Y-109601000D01*
X157024000Y-109561000D02*
X154290000Y-109561000D01*
X157040000Y-109521000D02*
X154290000Y-109521000D01*
X157055000Y-109481000D02*
X154290000Y-109481000D01*
X157071000Y-109441000D02*
X154290000Y-109441000D01*
X157085000Y-109401000D02*
X154290000Y-109401000D01*
X157100000Y-109361000D02*
X154290000Y-109361000D01*
X157113000Y-109321000D02*
X154290000Y-109321000D01*
X157127000Y-109281000D02*
X154290000Y-109281000D01*
X157139000Y-109241000D02*
X154290000Y-109241000D01*
X157152000Y-109201000D02*
X154290000Y-109201000D01*
X157164000Y-109161000D02*
X154290000Y-109161000D01*
X157175000Y-109121000D02*
X154290000Y-109121000D01*
X157186000Y-109081000D02*
X154290000Y-109081000D01*
X157197000Y-109041000D02*
X154290000Y-109041000D01*
X157207000Y-109001000D02*
X154290000Y-109001000D01*
X157217000Y-108961000D02*
X154290000Y-108961000D01*
X157226000Y-108921000D02*
X154290000Y-108921000D01*
X157235000Y-108881000D02*
X154290000Y-108881000D01*
X157244000Y-108841000D02*
X154290000Y-108841000D01*
X157252000Y-108801000D02*
X154290000Y-108801000D01*
X157260000Y-108761000D02*
X154290000Y-108761000D01*
X157267000Y-108721000D02*
X154290000Y-108721000D01*
X157274000Y-108680000D02*
X149226000Y-108680000D01*
X157280000Y-108640000D02*
X149220000Y-108640000D01*
X157287000Y-108600000D02*
X149213000Y-108600000D01*
X157292000Y-108560000D02*
X149208000Y-108560000D01*
X157298000Y-108520000D02*
X149202000Y-108520000D01*
X157302000Y-108480000D02*
X149198000Y-108480000D01*
X157307000Y-108440000D02*
X149193000Y-108440000D01*
X157311000Y-108400000D02*
X149189000Y-108400000D01*
X157315000Y-108360000D02*
X149185000Y-108360000D01*
X157318000Y-108320000D02*
X149182000Y-108320000D01*
X157321000Y-108280000D02*
X149179000Y-108280000D01*
X157324000Y-108240000D02*
X149176000Y-108240000D01*
X157326000Y-108200000D02*
X149174000Y-108200000D01*
X157327000Y-108160000D02*
X149173000Y-108160000D01*
X157329000Y-108120000D02*
X149171000Y-108120000D01*
X157330000Y-108000000D02*
X149170000Y-108000000D01*
X157330000Y-108040000D02*
X149170000Y-108040000D01*
X157330000Y-108080000D02*
X149170000Y-108080000D01*
X157370000Y-108000000D02*
G75*
G02*
X149130000Y-108000000I-4120000J0D01*
G01*
X149130000Y-108000000D02*
G75*
G02*
X157370000Y-108000000I4120000J0D01*
G01*
%TO.C,EC16*%
X142460000Y-73818349D02*
X139483000Y-73818349D01*
X142460000Y-73858349D02*
X139490000Y-73858349D01*
X142460000Y-73898349D02*
X139498000Y-73898349D01*
X142460000Y-73938349D02*
X139506000Y-73938349D01*
X142460000Y-73978349D02*
X139515000Y-73978349D01*
X142460000Y-74018349D02*
X139524000Y-74018349D01*
X142460000Y-74058349D02*
X139533000Y-74058349D01*
X142460000Y-74098349D02*
X139543000Y-74098349D01*
X142460000Y-74138349D02*
X139553000Y-74138349D01*
X142460000Y-74178349D02*
X139564000Y-74178349D01*
X142460000Y-74218349D02*
X139575000Y-74218349D01*
X142460000Y-74258349D02*
X139586000Y-74258349D01*
X142460000Y-74298349D02*
X139598000Y-74298349D01*
X142460000Y-74338349D02*
X139611000Y-74338349D01*
X142460000Y-74378349D02*
X139623000Y-74378349D01*
X142460000Y-74418349D02*
X139637000Y-74418349D01*
X142460000Y-74458349D02*
X139650000Y-74458349D01*
X142460000Y-74498349D02*
X139665000Y-74498349D01*
X142460000Y-74538349D02*
X139679000Y-74538349D01*
X142460000Y-74578349D02*
X139695000Y-74578349D01*
X142460000Y-74618349D02*
X139710000Y-74618349D01*
X142460000Y-74658349D02*
X139726000Y-74658349D01*
X142460000Y-74698349D02*
X139743000Y-74698349D01*
X142460000Y-74738349D02*
X139760000Y-74738349D01*
X142460000Y-74778349D02*
X139778000Y-74778349D01*
X142460000Y-74818349D02*
X139796000Y-74818349D01*
X142460000Y-74858349D02*
X139814000Y-74858349D01*
X142460000Y-74898349D02*
X139834000Y-74898349D01*
X142460000Y-74938349D02*
X139853000Y-74938349D01*
X142460000Y-74978349D02*
X139873000Y-74978349D01*
X142460000Y-75018349D02*
X139894000Y-75018349D01*
X142460000Y-75058349D02*
X139916000Y-75058349D01*
X142460000Y-75098349D02*
X139938000Y-75098349D01*
X142460000Y-75138349D02*
X139960000Y-75138349D01*
X142460000Y-75178349D02*
X139983000Y-75178349D01*
X142460000Y-75218349D02*
X140007000Y-75218349D01*
X142460000Y-75258349D02*
X140031000Y-75258349D01*
X142460000Y-75298349D02*
X140056000Y-75298349D01*
X142460000Y-75338349D02*
X140082000Y-75338349D01*
X142460000Y-75378349D02*
X140108000Y-75378349D01*
X142460000Y-75418349D02*
X140135000Y-75418349D01*
X142460000Y-75458349D02*
X140162000Y-75458349D01*
X142460000Y-75498349D02*
X140191000Y-75498349D01*
X142460000Y-75538349D02*
X140220000Y-75538349D01*
X142460000Y-75578349D02*
X140250000Y-75578349D01*
X142460000Y-75618349D02*
X140280000Y-75618349D01*
X142460000Y-75658349D02*
X140311000Y-75658349D01*
X142460000Y-75698349D02*
X140344000Y-75698349D01*
X142460000Y-75738349D02*
X140376000Y-75738349D01*
X142460000Y-75778349D02*
X140410000Y-75778349D01*
X142460000Y-75818349D02*
X140445000Y-75818349D01*
X142460000Y-75858349D02*
X140481000Y-75858349D01*
X144033000Y-77178349D02*
X142967000Y-77178349D01*
X144268000Y-77138349D02*
X142732000Y-77138349D01*
X144448000Y-77098349D02*
X142552000Y-77098349D01*
X144598000Y-77058349D02*
X142402000Y-77058349D01*
X144729000Y-77018349D02*
X142271000Y-77018349D01*
X144846000Y-76978349D02*
X142154000Y-76978349D01*
X144953000Y-76938349D02*
X142047000Y-76938349D01*
X145052000Y-76898349D02*
X141948000Y-76898349D01*
X145145000Y-76858349D02*
X141855000Y-76858349D01*
X145231000Y-76818349D02*
X141769000Y-76818349D01*
X145313000Y-76778349D02*
X141687000Y-76778349D01*
X145390000Y-76738349D02*
X141610000Y-76738349D01*
X145464000Y-76698349D02*
X141536000Y-76698349D01*
X145534000Y-76658349D02*
X141466000Y-76658349D01*
X145602000Y-76618349D02*
X141398000Y-76618349D01*
X145666000Y-76578349D02*
X141334000Y-76578349D01*
X145728000Y-76538349D02*
X141272000Y-76538349D01*
X145787000Y-76498349D02*
X141213000Y-76498349D01*
X145815000Y-68687651D02*
X145815000Y-69487651D01*
X145845000Y-76458349D02*
X141155000Y-76458349D01*
X145900000Y-76418349D02*
X141100000Y-76418349D01*
X145954000Y-76378349D02*
X141046000Y-76378349D01*
X146005000Y-76338349D02*
X140995000Y-76338349D01*
X146056000Y-76298349D02*
X140944000Y-76298349D01*
X146104000Y-76258349D02*
X140896000Y-76258349D01*
X146151000Y-76218349D02*
X140849000Y-76218349D01*
X146197000Y-76178349D02*
X140803000Y-76178349D01*
X146215000Y-69087651D02*
X145415000Y-69087651D01*
X146241000Y-76138349D02*
X140759000Y-76138349D01*
X146284000Y-76098349D02*
X140716000Y-76098349D01*
X146326000Y-76058349D02*
X140674000Y-76058349D01*
X146367000Y-76018349D02*
X140633000Y-76018349D01*
X146407000Y-75978349D02*
X140593000Y-75978349D01*
X146445000Y-75938349D02*
X140555000Y-75938349D01*
X146483000Y-75898349D02*
X140517000Y-75898349D01*
X146519000Y-75858349D02*
X144540000Y-75858349D01*
X146555000Y-75818349D02*
X144540000Y-75818349D01*
X146590000Y-75778349D02*
X144540000Y-75778349D01*
X146624000Y-75738349D02*
X144540000Y-75738349D01*
X146656000Y-75698349D02*
X144540000Y-75698349D01*
X146689000Y-75658349D02*
X144540000Y-75658349D01*
X146720000Y-75618349D02*
X144540000Y-75618349D01*
X146750000Y-75578349D02*
X144540000Y-75578349D01*
X146780000Y-75538349D02*
X144540000Y-75538349D01*
X146809000Y-75498349D02*
X144540000Y-75498349D01*
X146838000Y-75458349D02*
X144540000Y-75458349D01*
X146865000Y-75418349D02*
X144540000Y-75418349D01*
X146892000Y-75378349D02*
X144540000Y-75378349D01*
X146918000Y-75338349D02*
X144540000Y-75338349D01*
X146944000Y-75298349D02*
X144540000Y-75298349D01*
X146969000Y-75258349D02*
X144540000Y-75258349D01*
X146993000Y-75218349D02*
X144540000Y-75218349D01*
X147017000Y-75178349D02*
X144540000Y-75178349D01*
X147040000Y-75138349D02*
X144540000Y-75138349D01*
X147062000Y-75098349D02*
X144540000Y-75098349D01*
X147084000Y-75058349D02*
X144540000Y-75058349D01*
X147106000Y-75018349D02*
X144540000Y-75018349D01*
X147127000Y-74978349D02*
X144540000Y-74978349D01*
X147147000Y-74938349D02*
X144540000Y-74938349D01*
X147166000Y-74898349D02*
X144540000Y-74898349D01*
X147186000Y-74858349D02*
X144540000Y-74858349D01*
X147204000Y-74818349D02*
X144540000Y-74818349D01*
X147222000Y-74778349D02*
X144540000Y-74778349D01*
X147240000Y-74738349D02*
X144540000Y-74738349D01*
X147257000Y-74698349D02*
X144540000Y-74698349D01*
X147274000Y-74658349D02*
X144540000Y-74658349D01*
X147290000Y-74618349D02*
X144540000Y-74618349D01*
X147305000Y-74578349D02*
X144540000Y-74578349D01*
X147321000Y-74538349D02*
X144540000Y-74538349D01*
X147335000Y-74498349D02*
X144540000Y-74498349D01*
X147350000Y-74458349D02*
X144540000Y-74458349D01*
X147363000Y-74418349D02*
X144540000Y-74418349D01*
X147377000Y-74378349D02*
X144540000Y-74378349D01*
X147389000Y-74338349D02*
X144540000Y-74338349D01*
X147402000Y-74298349D02*
X144540000Y-74298349D01*
X147414000Y-74258349D02*
X144540000Y-74258349D01*
X147425000Y-74218349D02*
X144540000Y-74218349D01*
X147436000Y-74178349D02*
X144540000Y-74178349D01*
X147447000Y-74138349D02*
X144540000Y-74138349D01*
X147457000Y-74098349D02*
X144540000Y-74098349D01*
X147467000Y-74058349D02*
X144540000Y-74058349D01*
X147476000Y-74018349D02*
X144540000Y-74018349D01*
X147485000Y-73978349D02*
X144540000Y-73978349D01*
X147494000Y-73938349D02*
X144540000Y-73938349D01*
X147502000Y-73898349D02*
X144540000Y-73898349D01*
X147510000Y-73858349D02*
X144540000Y-73858349D01*
X147517000Y-73818349D02*
X144540000Y-73818349D01*
X147524000Y-73777349D02*
X139476000Y-73777349D01*
X147530000Y-73737349D02*
X139470000Y-73737349D01*
X147537000Y-73697349D02*
X139463000Y-73697349D01*
X147542000Y-73657349D02*
X139458000Y-73657349D01*
X147548000Y-73617349D02*
X139452000Y-73617349D01*
X147552000Y-73577349D02*
X139448000Y-73577349D01*
X147557000Y-73537349D02*
X139443000Y-73537349D01*
X147561000Y-73497349D02*
X139439000Y-73497349D01*
X147565000Y-73457349D02*
X139435000Y-73457349D01*
X147568000Y-73417349D02*
X139432000Y-73417349D01*
X147571000Y-73377349D02*
X139429000Y-73377349D01*
X147574000Y-73337349D02*
X139426000Y-73337349D01*
X147576000Y-73297349D02*
X139424000Y-73297349D01*
X147577000Y-73257349D02*
X139423000Y-73257349D01*
X147579000Y-73217349D02*
X139421000Y-73217349D01*
X147580000Y-73097349D02*
X139420000Y-73097349D01*
X147580000Y-73137349D02*
X139420000Y-73137349D01*
X147580000Y-73177349D02*
X139420000Y-73177349D01*
X147620000Y-73097349D02*
G75*
G02*
X139380000Y-73097349I-4120000J0D01*
G01*
X139380000Y-73097349D02*
G75*
G02*
X147620000Y-73097349I4120000J0D01*
G01*
%TO.C,C5*%
X151580000Y-69480000D02*
X152205000Y-69480000D01*
X151580000Y-73520000D02*
X151580000Y-69480000D01*
X151580000Y-73520000D02*
X152205000Y-73520000D01*
X153795000Y-69480000D02*
X154420000Y-69480000D01*
X153795000Y-73520000D02*
X154420000Y-73520000D01*
X154420000Y-73520000D02*
X154420000Y-69480000D01*
%TO.C,R5*%
X175630000Y-101810000D02*
X175630000Y-108350000D01*
X175630000Y-108350000D02*
X178370000Y-108350000D01*
X177000000Y-101040000D02*
X177000000Y-101810000D01*
X177000000Y-109120000D02*
X177000000Y-108350000D01*
X178370000Y-101810000D02*
X175630000Y-101810000D01*
X178370000Y-108350000D02*
X178370000Y-101810000D01*
%TO.C,R9*%
X163880000Y-63310000D02*
X163880000Y-69850000D01*
X163880000Y-69850000D02*
X166620000Y-69850000D01*
X165250000Y-62540000D02*
X165250000Y-63310000D01*
X165250000Y-70620000D02*
X165250000Y-69850000D01*
X166620000Y-63310000D02*
X163880000Y-63310000D01*
X166620000Y-69850000D02*
X166620000Y-63310000D01*
%TO.C,TP3*%
X168050000Y-77800000D02*
X169450000Y-77800000D01*
X168050000Y-79200000D02*
X168050000Y-77800000D01*
X169450000Y-77800000D02*
X169450000Y-79200000D01*
X169450000Y-79200000D02*
X168050000Y-79200000D01*
%TO.C,R12*%
X172630000Y-101810000D02*
X172630000Y-108350000D01*
X172630000Y-108350000D02*
X175370000Y-108350000D01*
X174000000Y-101040000D02*
X174000000Y-101810000D01*
X174000000Y-109120000D02*
X174000000Y-108350000D01*
X175370000Y-101810000D02*
X172630000Y-101810000D01*
X175370000Y-108350000D02*
X175370000Y-101810000D01*
%TO.C,R11*%
X188630000Y-101810000D02*
X188630000Y-108350000D01*
X188630000Y-108350000D02*
X191370000Y-108350000D01*
X190000000Y-101040000D02*
X190000000Y-101810000D01*
X190000000Y-109120000D02*
X190000000Y-108350000D01*
X191370000Y-101810000D02*
X188630000Y-101810000D01*
X191370000Y-108350000D02*
X191370000Y-101810000D01*
D15*
%TO.C,S1*%
X159400000Y-108750000D02*
X159400000Y-108750000D01*
X159400000Y-108750000D02*
X159400000Y-108750000D01*
X159500000Y-108750000D02*
X159500000Y-108750000D01*
D10*
X161250000Y-105750000D02*
X161250000Y-105750000D01*
X161250000Y-105750000D02*
X161250000Y-107250000D01*
X161250000Y-107250000D02*
X161250000Y-105750000D01*
X161250000Y-107250000D02*
X161250000Y-107250000D01*
X162250000Y-103250000D02*
X162250000Y-103250000D01*
X162250000Y-103250000D02*
X166250000Y-103250000D01*
X162250000Y-109750000D02*
X162250000Y-109750000D01*
X162250000Y-109750000D02*
X166250000Y-109750000D01*
X166250000Y-103250000D02*
X162250000Y-103250000D01*
X166250000Y-103250000D02*
X166250000Y-103250000D01*
X166250000Y-109750000D02*
X162250000Y-109750000D01*
X166250000Y-109750000D02*
X166250000Y-109750000D01*
X167250000Y-105750000D02*
X167250000Y-105750000D01*
X167250000Y-105750000D02*
X167250000Y-107250000D01*
X167250000Y-107250000D02*
X167250000Y-105750000D01*
X167250000Y-107250000D02*
X167250000Y-107250000D01*
D15*
X159400000Y-108750000D02*
G75*
G02*
X159500000Y-108750000I50000J0D01*
G01*
X159500000Y-108750000D02*
G75*
G02*
X159400000Y-108750000I-50000J0D01*
G01*
X159500000Y-108750000D02*
G75*
G02*
X159400000Y-108750000I-50000J0D01*
G01*
D13*
%TO.C,R10*%
X182130000Y-101810000D02*
X182130000Y-108350000D01*
X182130000Y-108350000D02*
X184870000Y-108350000D01*
X183500000Y-101040000D02*
X183500000Y-101810000D01*
X183500000Y-109120000D02*
X183500000Y-108350000D01*
X184870000Y-101810000D02*
X182130000Y-101810000D01*
X184870000Y-108350000D02*
X184870000Y-101810000D01*
%TO.C,R8*%
X179130000Y-114250000D02*
X179900000Y-114250000D01*
X179900000Y-112880000D02*
X179900000Y-115620000D01*
X179900000Y-115620000D02*
X186440000Y-115620000D01*
X186440000Y-112880000D02*
X179900000Y-112880000D01*
X186440000Y-115620000D02*
X186440000Y-112880000D01*
X187210000Y-114250000D02*
X186440000Y-114250000D01*
%TO.C,R21*%
X178880000Y-101900000D02*
X178880000Y-108440000D01*
X178880000Y-108440000D02*
X181620000Y-108440000D01*
X180250000Y-101130000D02*
X180250000Y-101900000D01*
X180250000Y-109210000D02*
X180250000Y-108440000D01*
X181620000Y-101900000D02*
X178880000Y-101900000D01*
X181620000Y-108440000D02*
X181620000Y-101900000D01*
%TO.C,C7*%
X159580000Y-84730000D02*
X159580000Y-88770000D01*
X160205000Y-84730000D02*
X159580000Y-84730000D01*
X160205000Y-88770000D02*
X159580000Y-88770000D01*
X162420000Y-84730000D02*
X161795000Y-84730000D01*
X162420000Y-84730000D02*
X162420000Y-88770000D01*
X162420000Y-88770000D02*
X161795000Y-88770000D01*
D14*
%TO.C,U1*%
X172496700Y-112573600D02*
X172496700Y-113663260D01*
X172496700Y-114836740D02*
X172496700Y-115926400D01*
X172496700Y-115926400D02*
X174503300Y-115926400D01*
X174503300Y-112573600D02*
X172496700Y-112573600D01*
X174503300Y-114613261D02*
X174503300Y-113886739D01*
D13*
%TO.C,Cm2*%
X148080000Y-69480000D02*
X148705000Y-69480000D01*
X148080000Y-73520000D02*
X148080000Y-69480000D01*
X148080000Y-73520000D02*
X148705000Y-73520000D01*
X150295000Y-69480000D02*
X150920000Y-69480000D01*
X150295000Y-73520000D02*
X150920000Y-73520000D01*
X150920000Y-73520000D02*
X150920000Y-69480000D01*
%TO.C,C9*%
X181330000Y-81730000D02*
X181330000Y-85770000D01*
X181955000Y-81730000D02*
X181330000Y-81730000D01*
X181955000Y-85770000D02*
X181330000Y-85770000D01*
X184170000Y-81730000D02*
X183545000Y-81730000D01*
X184170000Y-81730000D02*
X184170000Y-85770000D01*
X184170000Y-85770000D02*
X183545000Y-85770000D01*
%TO.C,TP5*%
X140300000Y-100800000D02*
X141700000Y-100800000D01*
X140300000Y-102200000D02*
X140300000Y-100800000D01*
X141700000Y-100800000D02*
X141700000Y-102200000D01*
X141700000Y-102200000D02*
X140300000Y-102200000D01*
%TO.C,J5*%
X181670000Y-73145000D02*
X181670000Y-75805000D01*
X186810000Y-73145000D02*
X181670000Y-73145000D01*
X186810000Y-73145000D02*
X186810000Y-75805000D01*
X186810000Y-75805000D02*
X181670000Y-75805000D01*
X189410000Y-74475000D02*
X189410000Y-75805000D01*
X189410000Y-75805000D02*
X188080000Y-75805000D01*
%TO.C,J6*%
X155145000Y-81230000D02*
X155145000Y-78630000D01*
X155145000Y-83830000D02*
X155145000Y-82500000D01*
X156475000Y-83830000D02*
X155145000Y-83830000D01*
X157805000Y-78630000D02*
X155145000Y-78630000D01*
X157805000Y-81230000D02*
X155145000Y-81230000D01*
X157805000Y-81230000D02*
X157805000Y-78630000D01*
%TO.C,J8*%
X163420000Y-114960000D02*
X163420000Y-115080000D01*
X163420000Y-115080000D02*
X166080000Y-115080000D01*
X164750000Y-112420000D02*
X166080000Y-112420000D01*
X166080000Y-112420000D02*
X166080000Y-113750000D01*
X166080000Y-114960000D02*
X166080000Y-115080000D01*
%TO.C,C3*%
X155230000Y-69955000D02*
X155230000Y-69330000D01*
X155230000Y-72170000D02*
X155230000Y-71545000D01*
X159270000Y-69330000D02*
X155230000Y-69330000D01*
X159270000Y-69955000D02*
X159270000Y-69330000D01*
X159270000Y-72170000D02*
X155230000Y-72170000D01*
X159270000Y-72170000D02*
X159270000Y-71545000D01*
%TO.C,J1*%
X167920000Y-114770000D02*
X167920000Y-122450000D01*
X167920000Y-114770000D02*
X170580000Y-114770000D01*
X167920000Y-122450000D02*
X170580000Y-122450000D01*
X169250000Y-112170000D02*
X170580000Y-112170000D01*
X170580000Y-112170000D02*
X170580000Y-113500000D01*
X170580000Y-114770000D02*
X170580000Y-122450000D01*
%TO.C,R7*%
X160630000Y-63310000D02*
X160630000Y-69850000D01*
X160630000Y-69850000D02*
X163370000Y-69850000D01*
X162000000Y-62540000D02*
X162000000Y-63310000D01*
X162000000Y-70620000D02*
X162000000Y-69850000D01*
X163370000Y-63310000D02*
X160630000Y-63310000D01*
X163370000Y-69850000D02*
X163370000Y-63310000D01*
%TO.C,EC4*%
X139090302Y-88185000D02*
X139890302Y-88185000D01*
X139490302Y-87785000D02*
X139490302Y-88585000D01*
X143500000Y-86420000D02*
X143500000Y-94580000D01*
X143540000Y-86420000D02*
X143540000Y-94580000D01*
X143580000Y-86420000D02*
X143580000Y-94580000D01*
X143620000Y-86421000D02*
X143620000Y-94579000D01*
X143660000Y-86423000D02*
X143660000Y-94577000D01*
X143700000Y-86424000D02*
X143700000Y-94576000D01*
X143740000Y-86426000D02*
X143740000Y-94574000D01*
X143780000Y-86429000D02*
X143780000Y-94571000D01*
X143820000Y-86432000D02*
X143820000Y-94568000D01*
X143860000Y-86435000D02*
X143860000Y-94565000D01*
X143900000Y-86439000D02*
X143900000Y-94561000D01*
X143940000Y-86443000D02*
X143940000Y-94557000D01*
X143980000Y-86448000D02*
X143980000Y-94552000D01*
X144020000Y-86452000D02*
X144020000Y-94548000D01*
X144060000Y-86458000D02*
X144060000Y-94542000D01*
X144100000Y-86463000D02*
X144100000Y-94537000D01*
X144140000Y-86470000D02*
X144140000Y-94530000D01*
X144180000Y-86476000D02*
X144180000Y-94524000D01*
X144221000Y-86483000D02*
X144221000Y-89460000D01*
X144221000Y-91540000D02*
X144221000Y-94517000D01*
X144261000Y-86490000D02*
X144261000Y-89460000D01*
X144261000Y-91540000D02*
X144261000Y-94510000D01*
X144301000Y-86498000D02*
X144301000Y-89460000D01*
X144301000Y-91540000D02*
X144301000Y-94502000D01*
X144341000Y-86506000D02*
X144341000Y-89460000D01*
X144341000Y-91540000D02*
X144341000Y-94494000D01*
X144381000Y-86515000D02*
X144381000Y-89460000D01*
X144381000Y-91540000D02*
X144381000Y-94485000D01*
X144421000Y-86524000D02*
X144421000Y-89460000D01*
X144421000Y-91540000D02*
X144421000Y-94476000D01*
X144461000Y-86533000D02*
X144461000Y-89460000D01*
X144461000Y-91540000D02*
X144461000Y-94467000D01*
X144501000Y-86543000D02*
X144501000Y-89460000D01*
X144501000Y-91540000D02*
X144501000Y-94457000D01*
X144541000Y-86553000D02*
X144541000Y-89460000D01*
X144541000Y-91540000D02*
X144541000Y-94447000D01*
X144581000Y-86564000D02*
X144581000Y-89460000D01*
X144581000Y-91540000D02*
X144581000Y-94436000D01*
X144621000Y-86575000D02*
X144621000Y-89460000D01*
X144621000Y-91540000D02*
X144621000Y-94425000D01*
X144661000Y-86586000D02*
X144661000Y-89460000D01*
X144661000Y-91540000D02*
X144661000Y-94414000D01*
X144701000Y-86598000D02*
X144701000Y-89460000D01*
X144701000Y-91540000D02*
X144701000Y-94402000D01*
X144741000Y-86611000D02*
X144741000Y-89460000D01*
X144741000Y-91540000D02*
X144741000Y-94389000D01*
X144781000Y-86623000D02*
X144781000Y-89460000D01*
X144781000Y-91540000D02*
X144781000Y-94377000D01*
X144821000Y-86637000D02*
X144821000Y-89460000D01*
X144821000Y-91540000D02*
X144821000Y-94363000D01*
X144861000Y-86650000D02*
X144861000Y-89460000D01*
X144861000Y-91540000D02*
X144861000Y-94350000D01*
X144901000Y-86665000D02*
X144901000Y-89460000D01*
X144901000Y-91540000D02*
X144901000Y-94335000D01*
X144941000Y-86679000D02*
X144941000Y-89460000D01*
X144941000Y-91540000D02*
X144941000Y-94321000D01*
X144981000Y-86695000D02*
X144981000Y-89460000D01*
X144981000Y-91540000D02*
X144981000Y-94305000D01*
X145021000Y-86710000D02*
X145021000Y-89460000D01*
X145021000Y-91540000D02*
X145021000Y-94290000D01*
X145061000Y-86726000D02*
X145061000Y-89460000D01*
X145061000Y-91540000D02*
X145061000Y-94274000D01*
X145101000Y-86743000D02*
X145101000Y-89460000D01*
X145101000Y-91540000D02*
X145101000Y-94257000D01*
X145141000Y-86760000D02*
X145141000Y-89460000D01*
X145141000Y-91540000D02*
X145141000Y-94240000D01*
X145181000Y-86778000D02*
X145181000Y-89460000D01*
X145181000Y-91540000D02*
X145181000Y-94222000D01*
X145221000Y-86796000D02*
X145221000Y-89460000D01*
X145221000Y-91540000D02*
X145221000Y-94204000D01*
X145261000Y-86814000D02*
X145261000Y-89460000D01*
X145261000Y-91540000D02*
X145261000Y-94186000D01*
X145301000Y-86834000D02*
X145301000Y-89460000D01*
X145301000Y-91540000D02*
X145301000Y-94166000D01*
X145341000Y-86853000D02*
X145341000Y-89460000D01*
X145341000Y-91540000D02*
X145341000Y-94147000D01*
X145381000Y-86873000D02*
X145381000Y-89460000D01*
X145381000Y-91540000D02*
X145381000Y-94127000D01*
X145421000Y-86894000D02*
X145421000Y-89460000D01*
X145421000Y-91540000D02*
X145421000Y-94106000D01*
X145461000Y-86916000D02*
X145461000Y-89460000D01*
X145461000Y-91540000D02*
X145461000Y-94084000D01*
X145501000Y-86938000D02*
X145501000Y-89460000D01*
X145501000Y-91540000D02*
X145501000Y-94062000D01*
X145541000Y-86960000D02*
X145541000Y-89460000D01*
X145541000Y-91540000D02*
X145541000Y-94040000D01*
X145581000Y-86983000D02*
X145581000Y-89460000D01*
X145581000Y-91540000D02*
X145581000Y-94017000D01*
X145621000Y-87007000D02*
X145621000Y-89460000D01*
X145621000Y-91540000D02*
X145621000Y-93993000D01*
X145661000Y-87031000D02*
X145661000Y-89460000D01*
X145661000Y-91540000D02*
X145661000Y-93969000D01*
X145701000Y-87056000D02*
X145701000Y-89460000D01*
X145701000Y-91540000D02*
X145701000Y-93944000D01*
X145741000Y-87082000D02*
X145741000Y-89460000D01*
X145741000Y-91540000D02*
X145741000Y-93918000D01*
X145781000Y-87108000D02*
X145781000Y-89460000D01*
X145781000Y-91540000D02*
X145781000Y-93892000D01*
X145821000Y-87135000D02*
X145821000Y-89460000D01*
X145821000Y-91540000D02*
X145821000Y-93865000D01*
X145861000Y-87162000D02*
X145861000Y-89460000D01*
X145861000Y-91540000D02*
X145861000Y-93838000D01*
X145901000Y-87191000D02*
X145901000Y-89460000D01*
X145901000Y-91540000D02*
X145901000Y-93809000D01*
X145941000Y-87220000D02*
X145941000Y-89460000D01*
X145941000Y-91540000D02*
X145941000Y-93780000D01*
X145981000Y-87250000D02*
X145981000Y-89460000D01*
X145981000Y-91540000D02*
X145981000Y-93750000D01*
X146021000Y-87280000D02*
X146021000Y-89460000D01*
X146021000Y-91540000D02*
X146021000Y-93720000D01*
X146061000Y-87311000D02*
X146061000Y-89460000D01*
X146061000Y-91540000D02*
X146061000Y-93689000D01*
X146101000Y-87344000D02*
X146101000Y-89460000D01*
X146101000Y-91540000D02*
X146101000Y-93656000D01*
X146141000Y-87376000D02*
X146141000Y-89460000D01*
X146141000Y-91540000D02*
X146141000Y-93624000D01*
X146181000Y-87410000D02*
X146181000Y-89460000D01*
X146181000Y-91540000D02*
X146181000Y-93590000D01*
X146221000Y-87445000D02*
X146221000Y-89460000D01*
X146221000Y-91540000D02*
X146221000Y-93555000D01*
X146261000Y-87481000D02*
X146261000Y-89460000D01*
X146261000Y-91540000D02*
X146261000Y-93519000D01*
X146301000Y-87517000D02*
X146301000Y-93483000D01*
X146341000Y-87555000D02*
X146341000Y-93445000D01*
X146381000Y-87593000D02*
X146381000Y-93407000D01*
X146421000Y-87633000D02*
X146421000Y-93367000D01*
X146461000Y-87674000D02*
X146461000Y-93326000D01*
X146501000Y-87716000D02*
X146501000Y-93284000D01*
X146541000Y-87759000D02*
X146541000Y-93241000D01*
X146581000Y-87803000D02*
X146581000Y-93197000D01*
X146621000Y-87849000D02*
X146621000Y-93151000D01*
X146661000Y-87896000D02*
X146661000Y-93104000D01*
X146701000Y-87944000D02*
X146701000Y-93056000D01*
X146741000Y-87995000D02*
X146741000Y-93005000D01*
X146781000Y-88046000D02*
X146781000Y-92954000D01*
X146821000Y-88100000D02*
X146821000Y-92900000D01*
X146861000Y-88155000D02*
X146861000Y-92845000D01*
X146901000Y-88213000D02*
X146901000Y-92787000D01*
X146941000Y-88272000D02*
X146941000Y-92728000D01*
X146981000Y-88334000D02*
X146981000Y-92666000D01*
X147021000Y-88398000D02*
X147021000Y-92602000D01*
X147061000Y-88466000D02*
X147061000Y-92534000D01*
X147101000Y-88536000D02*
X147101000Y-92464000D01*
X147141000Y-88610000D02*
X147141000Y-92390000D01*
X147181000Y-88687000D02*
X147181000Y-92313000D01*
X147221000Y-88769000D02*
X147221000Y-92231000D01*
X147261000Y-88855000D02*
X147261000Y-92145000D01*
X147301000Y-88948000D02*
X147301000Y-92052000D01*
X147341000Y-89047000D02*
X147341000Y-91953000D01*
X147381000Y-89154000D02*
X147381000Y-91846000D01*
X147421000Y-89271000D02*
X147421000Y-91729000D01*
X147461000Y-89402000D02*
X147461000Y-91598000D01*
X147501000Y-89552000D02*
X147501000Y-91448000D01*
X147541000Y-89732000D02*
X147541000Y-91268000D01*
X147581000Y-89967000D02*
X147581000Y-91033000D01*
X147620000Y-90500000D02*
G75*
G02*
X139380000Y-90500000I-4120000J0D01*
G01*
X139380000Y-90500000D02*
G75*
G02*
X147620000Y-90500000I4120000J0D01*
G01*
%TO.C,C10*%
X157480000Y-112705000D02*
X157480000Y-112080000D01*
X157480000Y-114920000D02*
X157480000Y-114295000D01*
X161520000Y-112080000D02*
X157480000Y-112080000D01*
X161520000Y-112705000D02*
X161520000Y-112080000D01*
X161520000Y-114920000D02*
X157480000Y-114920000D01*
X161520000Y-114920000D02*
X161520000Y-114295000D01*
%TO.C,J3*%
X167420000Y-73310000D02*
X167420000Y-65630000D01*
X167420000Y-75910000D02*
X167420000Y-74580000D01*
X168750000Y-75910000D02*
X167420000Y-75910000D01*
X170080000Y-65630000D02*
X167420000Y-65630000D01*
X170080000Y-73310000D02*
X167420000Y-73310000D01*
X170080000Y-73310000D02*
X170080000Y-65630000D01*
D10*
%TO.C,D3*%
X153550000Y-98020000D02*
X153550000Y-98020000D01*
X155000000Y-95520000D02*
X158000000Y-95520000D01*
X159450000Y-98020000D02*
X159450000Y-98020000D01*
X153550000Y-98020000D02*
G75*
G02*
X159450000Y-98020000I2950000J0D01*
G01*
X159450000Y-98020000D02*
G75*
G02*
X153550000Y-98020000I-2950000J0D01*
G01*
D13*
%TO.C,C24*%
X167080000Y-60730000D02*
X167080000Y-64770000D01*
X167705000Y-60730000D02*
X167080000Y-60730000D01*
X167705000Y-64770000D02*
X167080000Y-64770000D01*
X169920000Y-60730000D02*
X169295000Y-60730000D01*
X169920000Y-60730000D02*
X169920000Y-64770000D01*
X169920000Y-64770000D02*
X169295000Y-64770000D01*
D15*
%TO.C,Y1*%
X163670000Y-81250000D02*
X168330000Y-81250000D01*
X163670000Y-92750000D02*
X163670000Y-81250000D01*
D10*
X166000000Y-93240000D02*
X166000000Y-93240000D01*
X166000000Y-93340000D02*
X166000000Y-93340000D01*
D15*
X168330000Y-81250000D02*
X168330000Y-92750000D01*
X168330000Y-92750000D02*
X163670000Y-92750000D01*
D10*
X166000000Y-93240000D02*
G75*
G02*
X166000000Y-93340000I0J-50000D01*
G01*
X166000000Y-93340000D02*
G75*
G02*
X166000000Y-93240000I0J50000D01*
G01*
D13*
%TO.C,J11*%
X181615000Y-61920000D02*
X181615000Y-64580000D01*
X186755000Y-61920000D02*
X181615000Y-61920000D01*
X186755000Y-61920000D02*
X186755000Y-64580000D01*
X186755000Y-64580000D02*
X181615000Y-64580000D01*
X189355000Y-63250000D02*
X189355000Y-64580000D01*
X189355000Y-64580000D02*
X188025000Y-64580000D01*
%TO.C,TP4*%
X169300000Y-97050000D02*
X170700000Y-97050000D01*
X169300000Y-98450000D02*
X169300000Y-97050000D01*
X170700000Y-97050000D02*
X170700000Y-98450000D01*
X170700000Y-98450000D02*
X169300000Y-98450000D01*
%TO.C,R3*%
X135880000Y-99060000D02*
X135880000Y-105600000D01*
X135880000Y-105600000D02*
X138620000Y-105600000D01*
X137250000Y-98290000D02*
X137250000Y-99060000D01*
X137250000Y-106370000D02*
X137250000Y-105600000D01*
X138620000Y-99060000D02*
X135880000Y-99060000D01*
X138620000Y-105600000D02*
X138620000Y-99060000D01*
D14*
%TO.C,IC1*%
X171970186Y-61991903D02*
X171970186Y-62395763D01*
X171970186Y-64382043D02*
X171970186Y-64937795D01*
X171970186Y-66920011D02*
X171970186Y-67477795D01*
X171970186Y-69460011D02*
X171970186Y-70017795D01*
X171970186Y-72000011D02*
X171970186Y-72557795D01*
X171970186Y-74540011D02*
X171970186Y-75097795D01*
X171970186Y-77080011D02*
X171970186Y-77637795D01*
X171970186Y-79620011D02*
X171970186Y-80177795D01*
X171970186Y-82160011D02*
X171970186Y-82717795D01*
X171970186Y-84700011D02*
X171970186Y-85257795D01*
X171970186Y-87240011D02*
X171970186Y-87797795D01*
X171970186Y-89780011D02*
X171970186Y-90337795D01*
X171970186Y-92320011D02*
X171970186Y-92877795D01*
X171970186Y-94860011D02*
X171970186Y-95417795D01*
X171970186Y-97400011D02*
X171970186Y-97805903D01*
X171970186Y-97805903D02*
X179717186Y-97805903D01*
X179717186Y-61991903D02*
X171970186Y-61991903D01*
X179717186Y-62397795D02*
X179717186Y-61991903D01*
X179717186Y-64937795D02*
X179717186Y-64380011D01*
X179717186Y-67477795D02*
X179717186Y-66920011D01*
X179717186Y-70017795D02*
X179717186Y-69460011D01*
X179717186Y-72557795D02*
X179717186Y-72000011D01*
X179717186Y-75097795D02*
X179717186Y-74540011D01*
X179717186Y-77637795D02*
X179717186Y-77080011D01*
X179717186Y-80177795D02*
X179717186Y-79620011D01*
X179717186Y-82717795D02*
X179717186Y-82160011D01*
X179717186Y-85257795D02*
X179717186Y-84700011D01*
X179717186Y-87797795D02*
X179717186Y-87240011D01*
X179717186Y-90337795D02*
X179717186Y-89780011D01*
X179717186Y-92877795D02*
X179717186Y-92320011D01*
X179717186Y-95417795D02*
X179717186Y-94860011D01*
X179717186Y-97805903D02*
X179717186Y-97400011D01*
D15*
%TO.C,IC2*%
X159360000Y-76250000D02*
X159360000Y-76250000D01*
X159360000Y-76250000D02*
X159360000Y-76250000D01*
X159560000Y-76250000D02*
X159560000Y-76250000D01*
D10*
X160817000Y-76250000D02*
X160817000Y-76250000D01*
X160817000Y-76250000D02*
X160817000Y-76250000D01*
X160817000Y-76250000D02*
X160817000Y-78091000D01*
X160817000Y-78091000D02*
X160817000Y-76250000D01*
X160817000Y-78091000D02*
X160817000Y-78091000D01*
X160817000Y-78091000D02*
X160817000Y-78091000D01*
X160817000Y-78091000D02*
X165643000Y-78091000D01*
X165643000Y-76250000D02*
X165643000Y-78091000D01*
X165643000Y-78091000D02*
X160817000Y-78091000D01*
X165643000Y-78091000D02*
X165643000Y-78091000D01*
D15*
X159360000Y-76250000D02*
G75*
G02*
X159560000Y-76250000I100000J0D01*
G01*
X159560000Y-76250000D02*
G75*
G02*
X159360000Y-76250000I-100000J0D01*
G01*
X159560000Y-76250000D02*
G75*
G02*
X159360000Y-76250000I-100000J0D01*
G01*
D10*
X160817000Y-76250000D02*
G75*
G02*
X165643000Y-76250000I2413000J0D01*
G01*
D15*
%TO.C,S2*%
X150400000Y-67000000D02*
X150400000Y-67000000D01*
X150400000Y-67000000D02*
X150400000Y-67000000D01*
X150500000Y-67000000D02*
X150500000Y-67000000D01*
D10*
X152250000Y-64000000D02*
X152250000Y-64000000D01*
X152250000Y-64000000D02*
X152250000Y-65500000D01*
X152250000Y-65500000D02*
X152250000Y-64000000D01*
X152250000Y-65500000D02*
X152250000Y-65500000D01*
X153250000Y-61500000D02*
X153250000Y-61500000D01*
X153250000Y-61500000D02*
X157250000Y-61500000D01*
X153250000Y-68000000D02*
X153250000Y-68000000D01*
X153250000Y-68000000D02*
X157250000Y-68000000D01*
X157250000Y-61500000D02*
X153250000Y-61500000D01*
X157250000Y-61500000D02*
X157250000Y-61500000D01*
X157250000Y-68000000D02*
X153250000Y-68000000D01*
X157250000Y-68000000D02*
X157250000Y-68000000D01*
X158250000Y-64000000D02*
X158250000Y-64000000D01*
X158250000Y-64000000D02*
X158250000Y-65500000D01*
X158250000Y-65500000D02*
X158250000Y-64000000D01*
X158250000Y-65500000D02*
X158250000Y-65500000D01*
D15*
X150400000Y-67000000D02*
G75*
G02*
X150500000Y-67000000I50000J0D01*
G01*
X150500000Y-67000000D02*
G75*
G02*
X150400000Y-67000000I-50000J0D01*
G01*
X150500000Y-67000000D02*
G75*
G02*
X150400000Y-67000000I-50000J0D01*
G01*
D13*
%TO.C,EC21*%
X143460000Y-108721000D02*
X140483000Y-108721000D01*
X143460000Y-108761000D02*
X140490000Y-108761000D01*
X143460000Y-108801000D02*
X140498000Y-108801000D01*
X143460000Y-108841000D02*
X140506000Y-108841000D01*
X143460000Y-108881000D02*
X140515000Y-108881000D01*
X143460000Y-108921000D02*
X140524000Y-108921000D01*
X143460000Y-108961000D02*
X140533000Y-108961000D01*
X143460000Y-109001000D02*
X140543000Y-109001000D01*
X143460000Y-109041000D02*
X140553000Y-109041000D01*
X143460000Y-109081000D02*
X140564000Y-109081000D01*
X143460000Y-109121000D02*
X140575000Y-109121000D01*
X143460000Y-109161000D02*
X140586000Y-109161000D01*
X143460000Y-109201000D02*
X140598000Y-109201000D01*
X143460000Y-109241000D02*
X140611000Y-109241000D01*
X143460000Y-109281000D02*
X140623000Y-109281000D01*
X143460000Y-109321000D02*
X140637000Y-109321000D01*
X143460000Y-109361000D02*
X140650000Y-109361000D01*
X143460000Y-109401000D02*
X140665000Y-109401000D01*
X143460000Y-109441000D02*
X140679000Y-109441000D01*
X143460000Y-109481000D02*
X140695000Y-109481000D01*
X143460000Y-109521000D02*
X140710000Y-109521000D01*
X143460000Y-109561000D02*
X140726000Y-109561000D01*
X143460000Y-109601000D02*
X140743000Y-109601000D01*
X143460000Y-109641000D02*
X140760000Y-109641000D01*
X143460000Y-109681000D02*
X140778000Y-109681000D01*
X143460000Y-109721000D02*
X140796000Y-109721000D01*
X143460000Y-109761000D02*
X140814000Y-109761000D01*
X143460000Y-109801000D02*
X140834000Y-109801000D01*
X143460000Y-109841000D02*
X140853000Y-109841000D01*
X143460000Y-109881000D02*
X140873000Y-109881000D01*
X143460000Y-109921000D02*
X140894000Y-109921000D01*
X143460000Y-109961000D02*
X140916000Y-109961000D01*
X143460000Y-110001000D02*
X140938000Y-110001000D01*
X143460000Y-110041000D02*
X140960000Y-110041000D01*
X143460000Y-110081000D02*
X140983000Y-110081000D01*
X143460000Y-110121000D02*
X141007000Y-110121000D01*
X143460000Y-110161000D02*
X141031000Y-110161000D01*
X143460000Y-110201000D02*
X141056000Y-110201000D01*
X143460000Y-110241000D02*
X141082000Y-110241000D01*
X143460000Y-110281000D02*
X141108000Y-110281000D01*
X143460000Y-110321000D02*
X141135000Y-110321000D01*
X143460000Y-110361000D02*
X141162000Y-110361000D01*
X143460000Y-110401000D02*
X141191000Y-110401000D01*
X143460000Y-110441000D02*
X141220000Y-110441000D01*
X143460000Y-110481000D02*
X141250000Y-110481000D01*
X143460000Y-110521000D02*
X141280000Y-110521000D01*
X143460000Y-110561000D02*
X141311000Y-110561000D01*
X143460000Y-110601000D02*
X141344000Y-110601000D01*
X143460000Y-110641000D02*
X141376000Y-110641000D01*
X143460000Y-110681000D02*
X141410000Y-110681000D01*
X143460000Y-110721000D02*
X141445000Y-110721000D01*
X143460000Y-110761000D02*
X141481000Y-110761000D01*
X145033000Y-112081000D02*
X143967000Y-112081000D01*
X145268000Y-112041000D02*
X143732000Y-112041000D01*
X145448000Y-112001000D02*
X143552000Y-112001000D01*
X145598000Y-111961000D02*
X143402000Y-111961000D01*
X145729000Y-111921000D02*
X143271000Y-111921000D01*
X145846000Y-111881000D02*
X143154000Y-111881000D01*
X145953000Y-111841000D02*
X143047000Y-111841000D01*
X146052000Y-111801000D02*
X142948000Y-111801000D01*
X146145000Y-111761000D02*
X142855000Y-111761000D01*
X146231000Y-111721000D02*
X142769000Y-111721000D01*
X146313000Y-111681000D02*
X142687000Y-111681000D01*
X146390000Y-111641000D02*
X142610000Y-111641000D01*
X146464000Y-111601000D02*
X142536000Y-111601000D01*
X146534000Y-111561000D02*
X142466000Y-111561000D01*
X146602000Y-111521000D02*
X142398000Y-111521000D01*
X146666000Y-111481000D02*
X142334000Y-111481000D01*
X146728000Y-111441000D02*
X142272000Y-111441000D01*
X146787000Y-111401000D02*
X142213000Y-111401000D01*
X146815000Y-103590302D02*
X146815000Y-104390302D01*
X146845000Y-111361000D02*
X142155000Y-111361000D01*
X146900000Y-111321000D02*
X142100000Y-111321000D01*
X146954000Y-111281000D02*
X142046000Y-111281000D01*
X147005000Y-111241000D02*
X141995000Y-111241000D01*
X147056000Y-111201000D02*
X141944000Y-111201000D01*
X147104000Y-111161000D02*
X141896000Y-111161000D01*
X147151000Y-111121000D02*
X141849000Y-111121000D01*
X147197000Y-111081000D02*
X141803000Y-111081000D01*
X147215000Y-103990302D02*
X146415000Y-103990302D01*
X147241000Y-111041000D02*
X141759000Y-111041000D01*
X147284000Y-111001000D02*
X141716000Y-111001000D01*
X147326000Y-110961000D02*
X141674000Y-110961000D01*
X147367000Y-110921000D02*
X141633000Y-110921000D01*
X147407000Y-110881000D02*
X141593000Y-110881000D01*
X147445000Y-110841000D02*
X141555000Y-110841000D01*
X147483000Y-110801000D02*
X141517000Y-110801000D01*
X147519000Y-110761000D02*
X145540000Y-110761000D01*
X147555000Y-110721000D02*
X145540000Y-110721000D01*
X147590000Y-110681000D02*
X145540000Y-110681000D01*
X147624000Y-110641000D02*
X145540000Y-110641000D01*
X147656000Y-110601000D02*
X145540000Y-110601000D01*
X147689000Y-110561000D02*
X145540000Y-110561000D01*
X147720000Y-110521000D02*
X145540000Y-110521000D01*
X147750000Y-110481000D02*
X145540000Y-110481000D01*
X147780000Y-110441000D02*
X145540000Y-110441000D01*
X147809000Y-110401000D02*
X145540000Y-110401000D01*
X147838000Y-110361000D02*
X145540000Y-110361000D01*
X147865000Y-110321000D02*
X145540000Y-110321000D01*
X147892000Y-110281000D02*
X145540000Y-110281000D01*
X147918000Y-110241000D02*
X145540000Y-110241000D01*
X147944000Y-110201000D02*
X145540000Y-110201000D01*
X147969000Y-110161000D02*
X145540000Y-110161000D01*
X147993000Y-110121000D02*
X145540000Y-110121000D01*
X148017000Y-110081000D02*
X145540000Y-110081000D01*
X148040000Y-110041000D02*
X145540000Y-110041000D01*
X148062000Y-110001000D02*
X145540000Y-110001000D01*
X148084000Y-109961000D02*
X145540000Y-109961000D01*
X148106000Y-109921000D02*
X145540000Y-109921000D01*
X148127000Y-109881000D02*
X145540000Y-109881000D01*
X148147000Y-109841000D02*
X145540000Y-109841000D01*
X148166000Y-109801000D02*
X145540000Y-109801000D01*
X148186000Y-109761000D02*
X145540000Y-109761000D01*
X148204000Y-109721000D02*
X145540000Y-109721000D01*
X148222000Y-109681000D02*
X145540000Y-109681000D01*
X148240000Y-109641000D02*
X145540000Y-109641000D01*
X148257000Y-109601000D02*
X145540000Y-109601000D01*
X148274000Y-109561000D02*
X145540000Y-109561000D01*
X148290000Y-109521000D02*
X145540000Y-109521000D01*
X148305000Y-109481000D02*
X145540000Y-109481000D01*
X148321000Y-109441000D02*
X145540000Y-109441000D01*
X148335000Y-109401000D02*
X145540000Y-109401000D01*
X148350000Y-109361000D02*
X145540000Y-109361000D01*
X148363000Y-109321000D02*
X145540000Y-109321000D01*
X148377000Y-109281000D02*
X145540000Y-109281000D01*
X148389000Y-109241000D02*
X145540000Y-109241000D01*
X148402000Y-109201000D02*
X145540000Y-109201000D01*
X148414000Y-109161000D02*
X145540000Y-109161000D01*
X148425000Y-109121000D02*
X145540000Y-109121000D01*
X148436000Y-109081000D02*
X145540000Y-109081000D01*
X148447000Y-109041000D02*
X145540000Y-109041000D01*
X148457000Y-109001000D02*
X145540000Y-109001000D01*
X148467000Y-108961000D02*
X145540000Y-108961000D01*
X148476000Y-108921000D02*
X145540000Y-108921000D01*
X148485000Y-108881000D02*
X145540000Y-108881000D01*
X148494000Y-108841000D02*
X145540000Y-108841000D01*
X148502000Y-108801000D02*
X145540000Y-108801000D01*
X148510000Y-108761000D02*
X145540000Y-108761000D01*
X148517000Y-108721000D02*
X145540000Y-108721000D01*
X148524000Y-108680000D02*
X140476000Y-108680000D01*
X148530000Y-108640000D02*
X140470000Y-108640000D01*
X148537000Y-108600000D02*
X140463000Y-108600000D01*
X148542000Y-108560000D02*
X140458000Y-108560000D01*
X148548000Y-108520000D02*
X140452000Y-108520000D01*
X148552000Y-108480000D02*
X140448000Y-108480000D01*
X148557000Y-108440000D02*
X140443000Y-108440000D01*
X148561000Y-108400000D02*
X140439000Y-108400000D01*
X148565000Y-108360000D02*
X140435000Y-108360000D01*
X148568000Y-108320000D02*
X140432000Y-108320000D01*
X148571000Y-108280000D02*
X140429000Y-108280000D01*
X148574000Y-108240000D02*
X140426000Y-108240000D01*
X148576000Y-108200000D02*
X140424000Y-108200000D01*
X148577000Y-108160000D02*
X140423000Y-108160000D01*
X148579000Y-108120000D02*
X140421000Y-108120000D01*
X148580000Y-108000000D02*
X140420000Y-108000000D01*
X148580000Y-108040000D02*
X140420000Y-108040000D01*
X148580000Y-108080000D02*
X140420000Y-108080000D01*
X148620000Y-108000000D02*
G75*
G02*
X140380000Y-108000000I-4120000J0D01*
G01*
X140380000Y-108000000D02*
G75*
G02*
X148620000Y-108000000I4120000J0D01*
G01*
D10*
%TO.C,D1*%
X145250000Y-61530000D02*
X145250000Y-61530000D01*
X145250000Y-67430000D02*
X145250000Y-67430000D01*
X145250000Y-61530000D02*
G75*
G02*
X145250000Y-67430000I0J-2950000D01*
G01*
X145250000Y-67430000D02*
G75*
G02*
X145250000Y-61530000I0J2950000D01*
G01*
D13*
%TO.C,TP1*%
X149550000Y-80050000D02*
X150950000Y-80050000D01*
X149550000Y-81450000D02*
X149550000Y-80050000D01*
X150950000Y-80050000D02*
X150950000Y-81450000D01*
X150950000Y-81450000D02*
X149550000Y-81450000D01*
D10*
%TO.C,D4*%
X162050000Y-98020000D02*
X162050000Y-98020000D01*
X163500000Y-95520000D02*
X166500000Y-95520000D01*
X167950000Y-98020000D02*
X167950000Y-98020000D01*
X162050000Y-98020000D02*
G75*
G02*
X167950000Y-98020000I2950000J0D01*
G01*
X167950000Y-98020000D02*
G75*
G02*
X162050000Y-98020000I-2950000J0D01*
G01*
D13*
%TO.C,EC11*%
X184919000Y-85033000D02*
X184919000Y-83967000D01*
X184959000Y-85268000D02*
X184959000Y-83732000D01*
X184999000Y-85448000D02*
X184999000Y-83552000D01*
X185039000Y-85598000D02*
X185039000Y-83402000D01*
X185079000Y-85729000D02*
X185079000Y-83271000D01*
X185119000Y-85846000D02*
X185119000Y-83154000D01*
X185159000Y-85953000D02*
X185159000Y-83047000D01*
X185199000Y-86052000D02*
X185199000Y-82948000D01*
X185239000Y-86145000D02*
X185239000Y-82855000D01*
X185279000Y-86231000D02*
X185279000Y-82769000D01*
X185319000Y-86313000D02*
X185319000Y-82687000D01*
X185359000Y-86390000D02*
X185359000Y-82610000D01*
X185399000Y-86464000D02*
X185399000Y-82536000D01*
X185439000Y-86534000D02*
X185439000Y-82466000D01*
X185479000Y-86602000D02*
X185479000Y-82398000D01*
X185519000Y-86666000D02*
X185519000Y-82334000D01*
X185559000Y-86728000D02*
X185559000Y-82272000D01*
X185599000Y-86787000D02*
X185599000Y-82213000D01*
X185639000Y-86845000D02*
X185639000Y-82155000D01*
X185679000Y-86900000D02*
X185679000Y-82100000D01*
X185719000Y-86954000D02*
X185719000Y-82046000D01*
X185759000Y-87005000D02*
X185759000Y-81995000D01*
X185799000Y-87056000D02*
X185799000Y-81944000D01*
X185839000Y-87104000D02*
X185839000Y-81896000D01*
X185879000Y-87151000D02*
X185879000Y-81849000D01*
X185919000Y-87197000D02*
X185919000Y-81803000D01*
X185959000Y-87241000D02*
X185959000Y-81759000D01*
X185999000Y-87284000D02*
X185999000Y-81716000D01*
X186039000Y-87326000D02*
X186039000Y-81674000D01*
X186079000Y-87367000D02*
X186079000Y-81633000D01*
X186119000Y-87407000D02*
X186119000Y-81593000D01*
X186159000Y-87445000D02*
X186159000Y-81555000D01*
X186199000Y-87483000D02*
X186199000Y-81517000D01*
X186239000Y-83460000D02*
X186239000Y-81481000D01*
X186239000Y-87519000D02*
X186239000Y-85540000D01*
X186279000Y-83460000D02*
X186279000Y-81445000D01*
X186279000Y-87555000D02*
X186279000Y-85540000D01*
X186319000Y-83460000D02*
X186319000Y-81410000D01*
X186319000Y-87590000D02*
X186319000Y-85540000D01*
X186359000Y-83460000D02*
X186359000Y-81376000D01*
X186359000Y-87624000D02*
X186359000Y-85540000D01*
X186399000Y-83460000D02*
X186399000Y-81344000D01*
X186399000Y-87656000D02*
X186399000Y-85540000D01*
X186439000Y-83460000D02*
X186439000Y-81311000D01*
X186439000Y-87689000D02*
X186439000Y-85540000D01*
X186479000Y-83460000D02*
X186479000Y-81280000D01*
X186479000Y-87720000D02*
X186479000Y-85540000D01*
X186519000Y-83460000D02*
X186519000Y-81250000D01*
X186519000Y-87750000D02*
X186519000Y-85540000D01*
X186559000Y-83460000D02*
X186559000Y-81220000D01*
X186559000Y-87780000D02*
X186559000Y-85540000D01*
X186599000Y-83460000D02*
X186599000Y-81191000D01*
X186599000Y-87809000D02*
X186599000Y-85540000D01*
X186639000Y-83460000D02*
X186639000Y-81162000D01*
X186639000Y-87838000D02*
X186639000Y-85540000D01*
X186679000Y-83460000D02*
X186679000Y-81135000D01*
X186679000Y-87865000D02*
X186679000Y-85540000D01*
X186719000Y-83460000D02*
X186719000Y-81108000D01*
X186719000Y-87892000D02*
X186719000Y-85540000D01*
X186759000Y-83460000D02*
X186759000Y-81082000D01*
X186759000Y-87918000D02*
X186759000Y-85540000D01*
X186799000Y-83460000D02*
X186799000Y-81056000D01*
X186799000Y-87944000D02*
X186799000Y-85540000D01*
X186839000Y-83460000D02*
X186839000Y-81031000D01*
X186839000Y-87969000D02*
X186839000Y-85540000D01*
X186879000Y-83460000D02*
X186879000Y-81007000D01*
X186879000Y-87993000D02*
X186879000Y-85540000D01*
X186919000Y-83460000D02*
X186919000Y-80983000D01*
X186919000Y-88017000D02*
X186919000Y-85540000D01*
X186959000Y-83460000D02*
X186959000Y-80960000D01*
X186959000Y-88040000D02*
X186959000Y-85540000D01*
X186999000Y-83460000D02*
X186999000Y-80938000D01*
X186999000Y-88062000D02*
X186999000Y-85540000D01*
X187039000Y-83460000D02*
X187039000Y-80916000D01*
X187039000Y-88084000D02*
X187039000Y-85540000D01*
X187079000Y-83460000D02*
X187079000Y-80894000D01*
X187079000Y-88106000D02*
X187079000Y-85540000D01*
X187119000Y-83460000D02*
X187119000Y-80873000D01*
X187119000Y-88127000D02*
X187119000Y-85540000D01*
X187159000Y-83460000D02*
X187159000Y-80853000D01*
X187159000Y-88147000D02*
X187159000Y-85540000D01*
X187199000Y-83460000D02*
X187199000Y-80834000D01*
X187199000Y-88166000D02*
X187199000Y-85540000D01*
X187239000Y-83460000D02*
X187239000Y-80814000D01*
X187239000Y-88186000D02*
X187239000Y-85540000D01*
X187279000Y-83460000D02*
X187279000Y-80796000D01*
X187279000Y-88204000D02*
X187279000Y-85540000D01*
X187319000Y-83460000D02*
X187319000Y-80778000D01*
X187319000Y-88222000D02*
X187319000Y-85540000D01*
X187359000Y-83460000D02*
X187359000Y-80760000D01*
X187359000Y-88240000D02*
X187359000Y-85540000D01*
X187399000Y-83460000D02*
X187399000Y-80743000D01*
X187399000Y-88257000D02*
X187399000Y-85540000D01*
X187439000Y-83460000D02*
X187439000Y-80726000D01*
X187439000Y-88274000D02*
X187439000Y-85540000D01*
X187479000Y-83460000D02*
X187479000Y-80710000D01*
X187479000Y-88290000D02*
X187479000Y-85540000D01*
X187519000Y-83460000D02*
X187519000Y-80695000D01*
X187519000Y-88305000D02*
X187519000Y-85540000D01*
X187559000Y-83460000D02*
X187559000Y-80679000D01*
X187559000Y-88321000D02*
X187559000Y-85540000D01*
X187599000Y-83460000D02*
X187599000Y-80665000D01*
X187599000Y-88335000D02*
X187599000Y-85540000D01*
X187639000Y-83460000D02*
X187639000Y-80650000D01*
X187639000Y-88350000D02*
X187639000Y-85540000D01*
X187679000Y-83460000D02*
X187679000Y-80637000D01*
X187679000Y-88363000D02*
X187679000Y-85540000D01*
X187719000Y-83460000D02*
X187719000Y-80623000D01*
X187719000Y-88377000D02*
X187719000Y-85540000D01*
X187759000Y-83460000D02*
X187759000Y-80611000D01*
X187759000Y-88389000D02*
X187759000Y-85540000D01*
X187799000Y-83460000D02*
X187799000Y-80598000D01*
X187799000Y-88402000D02*
X187799000Y-85540000D01*
X187839000Y-83460000D02*
X187839000Y-80586000D01*
X187839000Y-88414000D02*
X187839000Y-85540000D01*
X187879000Y-83460000D02*
X187879000Y-80575000D01*
X187879000Y-88425000D02*
X187879000Y-85540000D01*
X187919000Y-83460000D02*
X187919000Y-80564000D01*
X187919000Y-88436000D02*
X187919000Y-85540000D01*
X187959000Y-83460000D02*
X187959000Y-80553000D01*
X187959000Y-88447000D02*
X187959000Y-85540000D01*
X187999000Y-83460000D02*
X187999000Y-80543000D01*
X187999000Y-88457000D02*
X187999000Y-85540000D01*
X188039000Y-83460000D02*
X188039000Y-80533000D01*
X188039000Y-88467000D02*
X188039000Y-85540000D01*
X188079000Y-83460000D02*
X188079000Y-80524000D01*
X188079000Y-88476000D02*
X188079000Y-85540000D01*
X188119000Y-83460000D02*
X188119000Y-80515000D01*
X188119000Y-88485000D02*
X188119000Y-85540000D01*
X188159000Y-83460000D02*
X188159000Y-80506000D01*
X188159000Y-88494000D02*
X188159000Y-85540000D01*
X188199000Y-83460000D02*
X188199000Y-80498000D01*
X188199000Y-88502000D02*
X188199000Y-85540000D01*
X188239000Y-83460000D02*
X188239000Y-80490000D01*
X188239000Y-88510000D02*
X188239000Y-85540000D01*
X188279000Y-83460000D02*
X188279000Y-80483000D01*
X188279000Y-88517000D02*
X188279000Y-85540000D01*
X188320000Y-88524000D02*
X188320000Y-80476000D01*
X188360000Y-88530000D02*
X188360000Y-80470000D01*
X188400000Y-88537000D02*
X188400000Y-80463000D01*
X188440000Y-88542000D02*
X188440000Y-80458000D01*
X188480000Y-88548000D02*
X188480000Y-80452000D01*
X188520000Y-88552000D02*
X188520000Y-80448000D01*
X188560000Y-88557000D02*
X188560000Y-80443000D01*
X188600000Y-88561000D02*
X188600000Y-80439000D01*
X188640000Y-88565000D02*
X188640000Y-80435000D01*
X188680000Y-88568000D02*
X188680000Y-80432000D01*
X188720000Y-88571000D02*
X188720000Y-80429000D01*
X188760000Y-88574000D02*
X188760000Y-80426000D01*
X188800000Y-88576000D02*
X188800000Y-80424000D01*
X188840000Y-88577000D02*
X188840000Y-80423000D01*
X188880000Y-88579000D02*
X188880000Y-80421000D01*
X188920000Y-88580000D02*
X188920000Y-80420000D01*
X188960000Y-88580000D02*
X188960000Y-80420000D01*
X189000000Y-88580000D02*
X189000000Y-80420000D01*
X193009698Y-87215000D02*
X193009698Y-86415000D01*
X193409698Y-86815000D02*
X192609698Y-86815000D01*
X193120000Y-84500000D02*
G75*
G02*
X184880000Y-84500000I-4120000J0D01*
G01*
X184880000Y-84500000D02*
G75*
G02*
X193120000Y-84500000I4120000J0D01*
G01*
%TO.C,C8*%
X159580000Y-89480000D02*
X159580000Y-93520000D01*
X160205000Y-89480000D02*
X159580000Y-89480000D01*
X160205000Y-93520000D02*
X159580000Y-93520000D01*
X162420000Y-89480000D02*
X161795000Y-89480000D01*
X162420000Y-89480000D02*
X162420000Y-93520000D01*
X162420000Y-93520000D02*
X161795000Y-93520000D01*
%TO.C,J10*%
X181630000Y-65645000D02*
X181630000Y-68305000D01*
X186770000Y-65645000D02*
X181630000Y-65645000D01*
X186770000Y-65645000D02*
X186770000Y-68305000D01*
X186770000Y-68305000D02*
X181630000Y-68305000D01*
X189370000Y-66975000D02*
X189370000Y-68305000D01*
X189370000Y-68305000D02*
X188040000Y-68305000D01*
%TO.C,R1*%
X135880000Y-73900000D02*
X135880000Y-80440000D01*
X135880000Y-80440000D02*
X138620000Y-80440000D01*
X137250000Y-73130000D02*
X137250000Y-73900000D01*
X137250000Y-81210000D02*
X137250000Y-80440000D01*
X138620000Y-73900000D02*
X135880000Y-73900000D01*
X138620000Y-80440000D02*
X138620000Y-73900000D01*
%TO.C,R22*%
X185380000Y-101900000D02*
X185380000Y-108440000D01*
X185380000Y-108440000D02*
X188120000Y-108440000D01*
X186750000Y-101130000D02*
X186750000Y-101900000D01*
X186750000Y-109210000D02*
X186750000Y-108440000D01*
X188120000Y-101900000D02*
X185380000Y-101900000D01*
X188120000Y-108440000D02*
X188120000Y-101900000D01*
%TO.C,EC1*%
X139420000Y-81670000D02*
X147580000Y-81670000D01*
X139420000Y-81710000D02*
X147580000Y-81710000D01*
X139420000Y-81750000D02*
X147580000Y-81750000D01*
X139421000Y-81630000D02*
X147579000Y-81630000D01*
X139423000Y-81590000D02*
X147577000Y-81590000D01*
X139424000Y-81550000D02*
X147576000Y-81550000D01*
X139426000Y-81510000D02*
X147574000Y-81510000D01*
X139429000Y-81470000D02*
X147571000Y-81470000D01*
X139432000Y-81430000D02*
X147568000Y-81430000D01*
X139435000Y-81390000D02*
X147565000Y-81390000D01*
X139439000Y-81350000D02*
X147561000Y-81350000D01*
X139443000Y-81310000D02*
X147557000Y-81310000D01*
X139448000Y-81270000D02*
X147552000Y-81270000D01*
X139452000Y-81230000D02*
X147548000Y-81230000D01*
X139458000Y-81190000D02*
X147542000Y-81190000D01*
X139463000Y-81150000D02*
X147537000Y-81150000D01*
X139470000Y-81110000D02*
X147530000Y-81110000D01*
X139476000Y-81070000D02*
X147524000Y-81070000D01*
X139483000Y-81029000D02*
X142460000Y-81029000D01*
X139490000Y-80989000D02*
X142460000Y-80989000D01*
X139498000Y-80949000D02*
X142460000Y-80949000D01*
X139506000Y-80909000D02*
X142460000Y-80909000D01*
X139515000Y-80869000D02*
X142460000Y-80869000D01*
X139524000Y-80829000D02*
X142460000Y-80829000D01*
X139533000Y-80789000D02*
X142460000Y-80789000D01*
X139543000Y-80749000D02*
X142460000Y-80749000D01*
X139553000Y-80709000D02*
X142460000Y-80709000D01*
X139564000Y-80669000D02*
X142460000Y-80669000D01*
X139575000Y-80629000D02*
X142460000Y-80629000D01*
X139586000Y-80589000D02*
X142460000Y-80589000D01*
X139598000Y-80549000D02*
X142460000Y-80549000D01*
X139611000Y-80509000D02*
X142460000Y-80509000D01*
X139623000Y-80469000D02*
X142460000Y-80469000D01*
X139637000Y-80429000D02*
X142460000Y-80429000D01*
X139650000Y-80389000D02*
X142460000Y-80389000D01*
X139665000Y-80349000D02*
X142460000Y-80349000D01*
X139679000Y-80309000D02*
X142460000Y-80309000D01*
X139695000Y-80269000D02*
X142460000Y-80269000D01*
X139710000Y-80229000D02*
X142460000Y-80229000D01*
X139726000Y-80189000D02*
X142460000Y-80189000D01*
X139743000Y-80149000D02*
X142460000Y-80149000D01*
X139760000Y-80109000D02*
X142460000Y-80109000D01*
X139778000Y-80069000D02*
X142460000Y-80069000D01*
X139796000Y-80029000D02*
X142460000Y-80029000D01*
X139814000Y-79989000D02*
X142460000Y-79989000D01*
X139834000Y-79949000D02*
X142460000Y-79949000D01*
X139853000Y-79909000D02*
X142460000Y-79909000D01*
X139873000Y-79869000D02*
X142460000Y-79869000D01*
X139894000Y-79829000D02*
X142460000Y-79829000D01*
X139916000Y-79789000D02*
X142460000Y-79789000D01*
X139938000Y-79749000D02*
X142460000Y-79749000D01*
X139960000Y-79709000D02*
X142460000Y-79709000D01*
X139983000Y-79669000D02*
X142460000Y-79669000D01*
X140007000Y-79629000D02*
X142460000Y-79629000D01*
X140031000Y-79589000D02*
X142460000Y-79589000D01*
X140056000Y-79549000D02*
X142460000Y-79549000D01*
X140082000Y-79509000D02*
X142460000Y-79509000D01*
X140108000Y-79469000D02*
X142460000Y-79469000D01*
X140135000Y-79429000D02*
X142460000Y-79429000D01*
X140162000Y-79389000D02*
X142460000Y-79389000D01*
X140191000Y-79349000D02*
X142460000Y-79349000D01*
X140220000Y-79309000D02*
X142460000Y-79309000D01*
X140250000Y-79269000D02*
X142460000Y-79269000D01*
X140280000Y-79229000D02*
X142460000Y-79229000D01*
X140311000Y-79189000D02*
X142460000Y-79189000D01*
X140344000Y-79149000D02*
X142460000Y-79149000D01*
X140376000Y-79109000D02*
X142460000Y-79109000D01*
X140410000Y-79069000D02*
X142460000Y-79069000D01*
X140445000Y-79029000D02*
X142460000Y-79029000D01*
X140481000Y-78989000D02*
X142460000Y-78989000D01*
X140517000Y-78949000D02*
X146483000Y-78949000D01*
X140555000Y-78909000D02*
X146445000Y-78909000D01*
X140593000Y-78869000D02*
X146407000Y-78869000D01*
X140633000Y-78829000D02*
X146367000Y-78829000D01*
X140674000Y-78789000D02*
X146326000Y-78789000D01*
X140716000Y-78749000D02*
X146284000Y-78749000D01*
X140759000Y-78709000D02*
X146241000Y-78709000D01*
X140785000Y-85759698D02*
X141585000Y-85759698D01*
X140803000Y-78669000D02*
X146197000Y-78669000D01*
X140849000Y-78629000D02*
X146151000Y-78629000D01*
X140896000Y-78589000D02*
X146104000Y-78589000D01*
X140944000Y-78549000D02*
X146056000Y-78549000D01*
X140995000Y-78509000D02*
X146005000Y-78509000D01*
X141046000Y-78469000D02*
X145954000Y-78469000D01*
X141100000Y-78429000D02*
X145900000Y-78429000D01*
X141155000Y-78389000D02*
X145845000Y-78389000D01*
X141185000Y-86159698D02*
X141185000Y-85359698D01*
X141213000Y-78349000D02*
X145787000Y-78349000D01*
X141272000Y-78309000D02*
X145728000Y-78309000D01*
X141334000Y-78269000D02*
X145666000Y-78269000D01*
X141398000Y-78229000D02*
X145602000Y-78229000D01*
X141466000Y-78189000D02*
X145534000Y-78189000D01*
X141536000Y-78149000D02*
X145464000Y-78149000D01*
X141610000Y-78109000D02*
X145390000Y-78109000D01*
X141687000Y-78069000D02*
X145313000Y-78069000D01*
X141769000Y-78029000D02*
X145231000Y-78029000D01*
X141855000Y-77989000D02*
X145145000Y-77989000D01*
X141948000Y-77949000D02*
X145052000Y-77949000D01*
X142047000Y-77909000D02*
X144953000Y-77909000D01*
X142154000Y-77869000D02*
X144846000Y-77869000D01*
X142271000Y-77829000D02*
X144729000Y-77829000D01*
X142402000Y-77789000D02*
X144598000Y-77789000D01*
X142552000Y-77749000D02*
X144448000Y-77749000D01*
X142732000Y-77709000D02*
X144268000Y-77709000D01*
X142967000Y-77669000D02*
X144033000Y-77669000D01*
X144540000Y-78989000D02*
X146519000Y-78989000D01*
X144540000Y-79029000D02*
X146555000Y-79029000D01*
X144540000Y-79069000D02*
X146590000Y-79069000D01*
X144540000Y-79109000D02*
X146624000Y-79109000D01*
X144540000Y-79149000D02*
X146656000Y-79149000D01*
X144540000Y-79189000D02*
X146689000Y-79189000D01*
X144540000Y-79229000D02*
X146720000Y-79229000D01*
X144540000Y-79269000D02*
X146750000Y-79269000D01*
X144540000Y-79309000D02*
X146780000Y-79309000D01*
X144540000Y-79349000D02*
X146809000Y-79349000D01*
X144540000Y-79389000D02*
X146838000Y-79389000D01*
X144540000Y-79429000D02*
X146865000Y-79429000D01*
X144540000Y-79469000D02*
X146892000Y-79469000D01*
X144540000Y-79509000D02*
X146918000Y-79509000D01*
X144540000Y-79549000D02*
X146944000Y-79549000D01*
X144540000Y-79589000D02*
X146969000Y-79589000D01*
X144540000Y-79629000D02*
X146993000Y-79629000D01*
X144540000Y-79669000D02*
X147017000Y-79669000D01*
X144540000Y-79709000D02*
X147040000Y-79709000D01*
X144540000Y-79749000D02*
X147062000Y-79749000D01*
X144540000Y-79789000D02*
X147084000Y-79789000D01*
X144540000Y-79829000D02*
X147106000Y-79829000D01*
X144540000Y-79869000D02*
X147127000Y-79869000D01*
X144540000Y-79909000D02*
X147147000Y-79909000D01*
X144540000Y-79949000D02*
X147166000Y-79949000D01*
X144540000Y-79989000D02*
X147186000Y-79989000D01*
X144540000Y-80029000D02*
X147204000Y-80029000D01*
X144540000Y-80069000D02*
X147222000Y-80069000D01*
X144540000Y-80109000D02*
X147240000Y-80109000D01*
X144540000Y-80149000D02*
X147257000Y-80149000D01*
X144540000Y-80189000D02*
X147274000Y-80189000D01*
X144540000Y-80229000D02*
X147290000Y-80229000D01*
X144540000Y-80269000D02*
X147305000Y-80269000D01*
X144540000Y-80309000D02*
X147321000Y-80309000D01*
X144540000Y-80349000D02*
X147335000Y-80349000D01*
X144540000Y-80389000D02*
X147350000Y-80389000D01*
X144540000Y-80429000D02*
X147363000Y-80429000D01*
X144540000Y-80469000D02*
X147377000Y-80469000D01*
X144540000Y-80509000D02*
X147389000Y-80509000D01*
X144540000Y-80549000D02*
X147402000Y-80549000D01*
X144540000Y-80589000D02*
X147414000Y-80589000D01*
X144540000Y-80629000D02*
X147425000Y-80629000D01*
X144540000Y-80669000D02*
X147436000Y-80669000D01*
X144540000Y-80709000D02*
X147447000Y-80709000D01*
X144540000Y-80749000D02*
X147457000Y-80749000D01*
X144540000Y-80789000D02*
X147467000Y-80789000D01*
X144540000Y-80829000D02*
X147476000Y-80829000D01*
X144540000Y-80869000D02*
X147485000Y-80869000D01*
X144540000Y-80909000D02*
X147494000Y-80909000D01*
X144540000Y-80949000D02*
X147502000Y-80949000D01*
X144540000Y-80989000D02*
X147510000Y-80989000D01*
X144540000Y-81029000D02*
X147517000Y-81029000D01*
X147620000Y-81750000D02*
G75*
G02*
X139380000Y-81750000I-4120000J0D01*
G01*
X139380000Y-81750000D02*
G75*
G02*
X147620000Y-81750000I4120000J0D01*
G01*
%TO.C,TP1*%
X151800000Y-80050000D02*
X153200000Y-80050000D01*
X151800000Y-81450000D02*
X151800000Y-80050000D01*
X153200000Y-80050000D02*
X153200000Y-81450000D01*
X153200000Y-81450000D02*
X151800000Y-81450000D01*
%TO.C,C14*%
X148080000Y-74230000D02*
X148080000Y-78270000D01*
X148705000Y-74230000D02*
X148080000Y-74230000D01*
X148705000Y-78270000D02*
X148080000Y-78270000D01*
X150920000Y-74230000D02*
X150295000Y-74230000D01*
X150920000Y-74230000D02*
X150920000Y-78270000D01*
X150920000Y-78270000D02*
X150295000Y-78270000D01*
%TO.C,Cm1*%
X151580000Y-74230000D02*
X151580000Y-78270000D01*
X152205000Y-74230000D02*
X151580000Y-74230000D01*
X152205000Y-78270000D02*
X151580000Y-78270000D01*
X154420000Y-74230000D02*
X153795000Y-74230000D01*
X154420000Y-74230000D02*
X154420000Y-78270000D01*
X154420000Y-78270000D02*
X153795000Y-78270000D01*
%TO.C,R6*%
X179290000Y-118750000D02*
X180060000Y-118750000D01*
X180060000Y-117380000D02*
X180060000Y-120120000D01*
X180060000Y-120120000D02*
X186600000Y-120120000D01*
X186600000Y-117380000D02*
X180060000Y-117380000D01*
X186600000Y-120120000D02*
X186600000Y-117380000D01*
X187370000Y-118750000D02*
X186600000Y-118750000D01*
%TO.C,J9*%
X181630000Y-69395000D02*
X181630000Y-72055000D01*
X186770000Y-69395000D02*
X181630000Y-69395000D01*
X186770000Y-69395000D02*
X186770000Y-72055000D01*
X186770000Y-72055000D02*
X181630000Y-72055000D01*
X189370000Y-70725000D02*
X189370000Y-72055000D01*
X189370000Y-72055000D02*
X188040000Y-72055000D01*
D14*
%TO.C,J2*%
X181678700Y-89143200D02*
X181678700Y-98642800D01*
X181678700Y-98642800D02*
X197401300Y-98642800D01*
X197401300Y-89143200D02*
X181678700Y-89143200D01*
X197401300Y-98642800D02*
X197401300Y-89143200D01*
D16*
X181424700Y-95290000D02*
G75*
G02*
X180662700Y-95290000I-381000J0D01*
G01*
X180662700Y-95290000D02*
G75*
G02*
X181424700Y-95290000I381000J0D01*
G01*
%TD*%
M02*
